ISO-10303-21;
HEADER;
/* Generated by software containing ST-Developer
 * from STEP Tools, Inc. (www.steptools.com) 
 */
/* OPTION: using custom renumber hook */

FILE_DESCRIPTION(
/* description */ ('STEP AP242 Edition 2',
'CAx-IF Rec.Pracs.---Representation and Presentation of Product Manufa
cturing Information (PMI)---4.0---2014-10-13',
'CAx-IF Rec.Pracs.---3D Tessellated Geometry---0.4---2014-09-14','2;1',
'CAx-IF Rec.Pracs.---User Defined Attributes---1.5---2016-08-15'),
/* implementation_level */ '2;1');

FILE_NAME(
/* name */ 'Tetrix Bronze Bushing(2) - Chamfer1',
/* time_stamp */ '2026-05-11T00:35:31Z',
/* author */ (''),
/* organization */ (''),
/* preprocessor_version */ 'ST-DEVELOPER v20',
/* originating_system */ 'ONSHAPE BY PTC INC, 1.214',
/* authorisation */ '  ');

FILE_SCHEMA (('AP242_MANAGED_MODEL_BASED_3D_ENGINEERING_MIM_LF { 1 0 10303 442 3 1 4 }'));
ENDSEC;

DATA;
#10=SHAPE_REPRESENTATION_RELATIONSHIP('','',#144,#11);
#11=ADVANCED_BREP_SHAPE_REPRESENTATION('',(#142),#249);
#12=CYLINDRICAL_SURFACE('',#151,0.0024);
#13=CYLINDRICAL_SURFACE('',#157,0.00508414963527468);
#14=CYLINDRICAL_SURFACE('',#167,0.003925);
#15=PLANE('',#149);
#16=PLANE('',#159);
#17=PLANE('',#165);
#18=ORIENTED_EDGE('',*,*,#40,.F.);
#19=ORIENTED_EDGE('',*,*,#41,.T.);
#20=ORIENTED_EDGE('',*,*,#40,.T.);
#21=ORIENTED_EDGE('',*,*,#42,.F.);
#22=ORIENTED_EDGE('',*,*,#41,.F.);
#23=ORIENTED_EDGE('',*,*,#43,.T.);
#24=ORIENTED_EDGE('',*,*,#42,.T.);
#25=ORIENTED_EDGE('',*,*,#44,.F.);
#26=ORIENTED_EDGE('',*,*,#45,.T.);
#27=ORIENTED_EDGE('',*,*,#43,.F.);
#28=ORIENTED_EDGE('',*,*,#44,.T.);
#29=ORIENTED_EDGE('',*,*,#46,.F.);
#30=ORIENTED_EDGE('',*,*,#45,.F.);
#31=ORIENTED_EDGE('',*,*,#47,.F.);
#32=ORIENTED_EDGE('',*,*,#48,.T.);
#33=ORIENTED_EDGE('',*,*,#46,.T.);
#34=ORIENTED_EDGE('',*,*,#49,.F.);
#35=ORIENTED_EDGE('',*,*,#47,.T.);
#36=ORIENTED_EDGE('',*,*,#50,.F.);
#37=ORIENTED_EDGE('',*,*,#48,.F.);
#38=ORIENTED_EDGE('',*,*,#50,.T.);
#39=ORIENTED_EDGE('',*,*,#49,.T.);
#40=EDGE_CURVE('',#51,#51,#62,.F.);
#41=EDGE_CURVE('',#52,#52,#63,.F.);
#42=EDGE_CURVE('',#53,#53,#64,.T.);
#43=EDGE_CURVE('',#54,#54,#65,.T.);
#44=EDGE_CURVE('',#55,#55,#66,.T.);
#45=EDGE_CURVE('',#56,#56,#67,.T.);
#46=EDGE_CURVE('',#57,#57,#68,.F.);
#47=EDGE_CURVE('',#58,#58,#69,.T.);
#48=EDGE_CURVE('',#59,#59,#70,.T.);
#49=EDGE_CURVE('',#60,#60,#71,.T.);
#50=EDGE_CURVE('',#61,#61,#72,.F.);
#51=VERTEX_POINT('',#217);
#52=VERTEX_POINT('',#219);
#53=VERTEX_POINT('',#222);
#54=VERTEX_POINT('',#225);
#55=VERTEX_POINT('',#228);
#56=VERTEX_POINT('',#231);
#57=VERTEX_POINT('',#234);
#58=VERTEX_POINT('',#237);
#59=VERTEX_POINT('',#240);
#60=VERTEX_POINT('',#243);
#61=VERTEX_POINT('',#246);
#62=CIRCLE('',#147,0.00265000000001692);
#63=CIRCLE('',#148,0.0024);
#64=CIRCLE('',#150,0.00483414963525775);
#65=CIRCLE('',#152,0.00240000000002283);
#66=CIRCLE('',#154,0.00508414963527468);
#67=CIRCLE('',#156,0.00265000000007376);
#68=CIRCLE('',#158,0.00508414963525183);
#69=CIRCLE('',#160,0.00367499999998699);
#70=CIRCLE('',#162,0.00483414963525775);
#71=CIRCLE('',#164,0.003925);
#72=CIRCLE('',#166,0.003925);
#73=EDGE_LOOP('',(#18));
#74=EDGE_LOOP('',(#19));
#75=EDGE_LOOP('',(#20));
#76=EDGE_LOOP('',(#21));
#77=EDGE_LOOP('',(#22));
#78=EDGE_LOOP('',(#23));
#79=EDGE_LOOP('',(#24));
#80=EDGE_LOOP('',(#25));
#81=EDGE_LOOP('',(#26));
#82=EDGE_LOOP('',(#27));
#83=EDGE_LOOP('',(#28));
#84=EDGE_LOOP('',(#29));
#85=EDGE_LOOP('',(#30));
#86=EDGE_LOOP('',(#31));
#87=EDGE_LOOP('',(#32));
#88=EDGE_LOOP('',(#33));
#89=EDGE_LOOP('',(#34));
#90=EDGE_LOOP('',(#35));
#91=EDGE_LOOP('',(#36));
#92=EDGE_LOOP('',(#37));
#93=EDGE_LOOP('',(#38));
#94=EDGE_LOOP('',(#39));
#95=FACE_BOUND('',#73,.T.);
#96=FACE_BOUND('',#74,.T.);
#97=FACE_BOUND('',#75,.T.);
#98=FACE_BOUND('',#76,.T.);
#99=FACE_BOUND('',#77,.T.);
#100=FACE_BOUND('',#78,.T.);
#101=FACE_BOUND('',#79,.T.);
#102=FACE_BOUND('',#80,.T.);
#103=FACE_BOUND('',#81,.T.);
#104=FACE_BOUND('',#82,.T.);
#105=FACE_BOUND('',#83,.T.);
#106=FACE_BOUND('',#84,.T.);
#107=FACE_BOUND('',#85,.T.);
#108=FACE_BOUND('',#86,.T.);
#109=FACE_BOUND('',#87,.T.);
#110=FACE_BOUND('',#88,.T.);
#111=FACE_BOUND('',#89,.T.);
#112=FACE_BOUND('',#90,.T.);
#113=FACE_BOUND('',#91,.T.);
#114=FACE_BOUND('',#92,.T.);
#115=FACE_BOUND('',#93,.T.);
#116=FACE_BOUND('',#94,.T.);
#117=CONICAL_SURFACE('',#146,0.00264999999996007,0.785398163397448);
#118=CONICAL_SURFACE('',#153,0.00508414963525183,0.785398163397448);
#119=CONICAL_SURFACE('',#155,0.00265000000007376,0.785398163511135);
#120=CONICAL_SURFACE('',#161,0.00508414963525183,0.785398163397448);
#121=CONICAL_SURFACE('',#163,0.00392499999992424,0.785398163397448);
#122=ADVANCED_FACE('NONE',(#95,#96),#117,.F.);
#123=ADVANCED_FACE('',(#97,#98),#15,.T.);
#124=ADVANCED_FACE('',(#99,#100),#12,.F.);
#125=ADVANCED_FACE('',(#101,#102),#118,.T.);
#126=ADVANCED_FACE('',(#103,#104),#119,.F.);
#127=ADVANCED_FACE('',(#105,#106),#13,.T.);
#128=ADVANCED_FACE('',(#107,#108),#16,.F.);
#129=ADVANCED_FACE('',(#109,#110),#120,.T.);
#130=ADVANCED_FACE('',(#111,#112),#121,.T.);
#131=ADVANCED_FACE('',(#113,#114),#17,.F.);
#132=ADVANCED_FACE('',(#115,#116),#14,.T.);
#133=CLOSED_SHELL('',(#122,#123,#124,#125,#126,#127,#128,#129,#130,#131,
#132));
#134=STYLED_ITEM('',(#135),#142);
#135=PRESENTATION_STYLE_ASSIGNMENT((#136));
#136=SURFACE_STYLE_USAGE(.BOTH.,#137);
#137=SURFACE_SIDE_STYLE('',(#138));
#138=SURFACE_STYLE_FILL_AREA(#139);
#139=FILL_AREA_STYLE('',(#140));
#140=FILL_AREA_STYLE_COLOUR('',#141);
#141=COLOUR_RGB('',0.619607843137255,0.403921568627451,0.2);
#142=MANIFOLD_SOLID_BREP('Chamfer1',#133);
#143=SHAPE_DEFINITION_REPRESENTATION(#254,#144);
#144=SHAPE_REPRESENTATION('Chamfer1',(#145),#249);
#145=AXIS2_PLACEMENT_3D('',#214,#168,#169);
#146=AXIS2_PLACEMENT_3D('',#215,#170,#171);
#147=AXIS2_PLACEMENT_3D('',#216,#172,#173);
#148=AXIS2_PLACEMENT_3D('',#218,#174,#175);
#149=AXIS2_PLACEMENT_3D('',#220,#176,#177);
#150=AXIS2_PLACEMENT_3D('',#221,#178,#179);
#151=AXIS2_PLACEMENT_3D('',#223,#180,#181);
#152=AXIS2_PLACEMENT_3D('',#224,#182,#183);
#153=AXIS2_PLACEMENT_3D('',#226,#184,#185);
#154=AXIS2_PLACEMENT_3D('',#227,#186,#187);
#155=AXIS2_PLACEMENT_3D('',#229,#188,#189);
#156=AXIS2_PLACEMENT_3D('',#230,#190,#191);
#157=AXIS2_PLACEMENT_3D('',#232,#192,#193);
#158=AXIS2_PLACEMENT_3D('',#233,#194,#195);
#159=AXIS2_PLACEMENT_3D('',#235,#196,#197);
#160=AXIS2_PLACEMENT_3D('',#236,#198,#199);
#161=AXIS2_PLACEMENT_3D('',#238,#200,#201);
#162=AXIS2_PLACEMENT_3D('',#239,#202,#203);
#163=AXIS2_PLACEMENT_3D('',#241,#204,#205);
#164=AXIS2_PLACEMENT_3D('',#242,#206,#207);
#165=AXIS2_PLACEMENT_3D('',#244,#208,#209);
#166=AXIS2_PLACEMENT_3D('',#245,#210,#211);
#167=AXIS2_PLACEMENT_3D('',#247,#212,#213);
#168=DIRECTION('',(0.,0.,1.));
#169=DIRECTION('',(1.,0.,0.));
#170=DIRECTION('',(0.,0.,1.));
#171=DIRECTION('',(1.,0.,0.));
#172=DIRECTION('',(0.,0.,1.));
#173=DIRECTION('',(1.,0.,0.));
#174=DIRECTION('',(0.,0.,1.));
#175=DIRECTION('',(1.,0.,0.));
#176=DIRECTION('',(0.,0.,1.));
#177=DIRECTION('',(1.,0.,0.));
#178=DIRECTION('',(0.,0.,-1.));
#179=DIRECTION('',(-1.,0.,0.));
#180=DIRECTION('',(0.,0.,1.));
#181=DIRECTION('',(1.,0.,0.));
#182=DIRECTION('',(0.,0.,-1.));
#183=DIRECTION('',(-1.,0.,0.));
#184=DIRECTION('',(0.,0.,-1.));
#185=DIRECTION('',(-1.,0.,0.));
#186=DIRECTION('',(0.,0.,-1.));
#187=DIRECTION('',(-1.,0.,0.));
#188=DIRECTION('',(0.,0.,-1.));
#189=DIRECTION('',(-1.,0.,0.));
#190=DIRECTION('',(0.,0.,-1.));
#191=DIRECTION('',(-1.,0.,0.));
#192=DIRECTION('',(0.,0.,-1.));
#193=DIRECTION('',(-1.,0.,0.));
#194=DIRECTION('',(0.,0.,1.));
#195=DIRECTION('',(1.,0.,0.));
#196=DIRECTION('',(0.,0.,1.));
#197=DIRECTION('',(1.,0.,0.));
#198=DIRECTION('',(0.,0.,1.));
#199=DIRECTION('',(1.,0.,0.));
#200=DIRECTION('',(0.,0.,1.));
#201=DIRECTION('',(1.,0.,0.));
#202=DIRECTION('',(0.,0.,1.));
#203=DIRECTION('',(1.,0.,0.));
#204=DIRECTION('',(0.,0.,1.));
#205=DIRECTION('',(1.,0.,0.));
#206=DIRECTION('',(0.,0.,1.));
#207=DIRECTION('',(1.,0.,0.));
#208=DIRECTION('',(0.,0.,1.));
#209=DIRECTION('',(1.,0.,0.));
#210=DIRECTION('',(0.,0.,1.));
#211=DIRECTION('',(1.,0.,0.));
#212=DIRECTION('',(0.,0.,1.));
#213=DIRECTION('',(1.,0.,0.));
#214=CARTESIAN_POINT('',(0.,0.,0.));
#215=CARTESIAN_POINT('',(0.,0.,0.00139999999998963));
#216=CARTESIAN_POINT('',(0.,0.,0.00140000000004648));
#217=CARTESIAN_POINT('',(0.00265000000001692,0.,0.00140000000004648));
#218=CARTESIAN_POINT('',(0.,0.,0.00115));
#219=CARTESIAN_POINT('',(0.0024,0.,0.00115));
#220=CARTESIAN_POINT('',(0.,0.,0.0014));
#221=CARTESIAN_POINT('',(0.,0.,0.00139999999998963));
#222=CARTESIAN_POINT('',(-0.00483414963525775,0.,0.00139999999998963));
#223=CARTESIAN_POINT('',(0.,0.,-0.011));
#224=CARTESIAN_POINT('',(0.,0.,-0.01075000000003));
#225=CARTESIAN_POINT('',(-0.00240000000002283,0.,-0.01075000000003));
#226=CARTESIAN_POINT('',(0.,0.,0.00114999999999554));
#227=CARTESIAN_POINT('',(0.,0.,0.00115));
#228=CARTESIAN_POINT('',(-0.00508414963527468,0.,0.00115));
#229=CARTESIAN_POINT('',(0.,0.,-0.0110000000000241));
#230=CARTESIAN_POINT('',(0.,0.,-0.0110000000000241));
#231=CARTESIAN_POINT('',(-0.00265000000007376,0.,-0.0110000000000241));
#232=CARTESIAN_POINT('',(0.,0.,0.0014));
#233=CARTESIAN_POINT('',(0.,0.,0.000250000000050932));
#234=CARTESIAN_POINT('',(0.00508414963525183,0.,0.000250000000050932));
#235=CARTESIAN_POINT('',(0.,0.,-0.011));
#236=CARTESIAN_POINT('',(0.,0.,-0.0109999999999673));
#237=CARTESIAN_POINT('',(0.00367499999998699,0.,-0.0109999999999673));
#238=CARTESIAN_POINT('',(0.,0.,0.000250000000050932));
#239=CARTESIAN_POINT('',(0.,0.,5.6843418860808E-14));
#240=CARTESIAN_POINT('',(0.00483414963525775,0.,5.6843418860808E-14));
#241=CARTESIAN_POINT('',(0.,0.,-0.01075000000003));
#242=CARTESIAN_POINT('',(0.,0.,-0.01075));
#243=CARTESIAN_POINT('',(0.003925,0.,-0.01075));
#244=CARTESIAN_POINT('',(0.,0.,0.));
#245=CARTESIAN_POINT('',(0.,0.,0.));
#246=CARTESIAN_POINT('',(0.003925,0.,0.));
#247=CARTESIAN_POINT('',(0.,0.,-0.011));
#248=MECHANICAL_DESIGN_GEOMETRIC_PRESENTATION_REPRESENTATION('',(#134),
#249);
#249=(
GEOMETRIC_REPRESENTATION_CONTEXT(3)
GLOBAL_UNCERTAINTY_ASSIGNED_CONTEXT((#250))
GLOBAL_UNIT_ASSIGNED_CONTEXT((#253,#252,#251))
REPRESENTATION_CONTEXT('Chamfer1','TOP_LEVEL_ASSEMBLY_PART')
);
#250=UNCERTAINTY_MEASURE_WITH_UNIT(LENGTH_MEASURE(1.E-8),#253,
'DISTANCE_ACCURACY_VALUE','Maximum Tolerance applied to model');
#251=(
NAMED_UNIT(*)
SI_UNIT($,.STERADIAN.)
SOLID_ANGLE_UNIT()
);
#252=(
NAMED_UNIT(*)
PLANE_ANGLE_UNIT()
SI_UNIT($,.RADIAN.)
);
#253=(
LENGTH_UNIT()
NAMED_UNIT(*)
SI_UNIT($,.METRE.)
);
#254=PRODUCT_DEFINITION_SHAPE('','',#255);
#255=PRODUCT_DEFINITION('','',#257,#256);
#256=PRODUCT_DEFINITION_CONTEXT('',#263,'design');
#257=PRODUCT_DEFINITION_FORMATION_WITH_SPECIFIED_SOURCE('','',#259,
 .NOT_KNOWN.);
#258=PRODUCT_RELATED_PRODUCT_CATEGORY('','',(#259));
#259=PRODUCT('Chamfer1','Chamfer1','Chamfer1',(#261));
#260=PRODUCT_CATEGORY('','');
#261=PRODUCT_CONTEXT('',#263,'mechanical');
#262=APPLICATION_PROTOCOL_DEFINITION('international standard',
'ap242_managed_model_based_3d_engineering',2020,#263);
#263=APPLICATION_CONTEXT('managed model based 3d engineering');
ENDSEC;
END-ISO-10303-21;
