ISO-10303-21;
HEADER;
/* Generated by software containing ST-Developer
 * from STEP Tools, Inc. (www.steptools.com) 
 */
/* OPTION: using custom renumber hook */

FILE_DESCRIPTION(
/* description */ ('STEP AP242 Edition 2',
'CAx-IF Rec.Pracs.---Representation and Presentation of Product Manufa
cturing Information (PMI)---4.0---2014-10-13',
'CAx-IF Rec.Pracs.---3D Tessellated Geometry---0.4---2014-09-14','2;1',
'CAx-IF Rec.Pracs.---User Defined Attributes---1.5---2016-08-15'),
/* implementation_level */ '2;1');

FILE_NAME(
/* name */ 'Tetrix Axle Set Collar(2)',
/* time_stamp */ '2026-05-11T02:07:05Z',
/* author */ (''),
/* organization */ (''),
/* preprocessor_version */ 'ST-DEVELOPER v20',
/* originating_system */ 'ONSHAPE BY PTC INC, 1.214',
/* authorisation */ '  ');

FILE_SCHEMA (('AP242_MANAGED_MODEL_BASED_3D_ENGINEERING_MIM_LF { 1 0 10303 442 3 1 4 }'));
ENDSEC;

DATA;
#10=B_SPLINE_SURFACE_WITH_KNOTS('',1,3,((#573,#574,#575,#576,#577,#578,
#579,#580),(#581,#582,#583,#584,#585,#586,#587,#588),(#589,#590,#591,#592,
#593,#594,#595,#596),(#597,#598,#599,#600,#601,#602,#603,#604)),
 .RULED_SURF.,.F.,.F.,.F.,(2,1,1,2),(4,2,2,4),(-0.00909172896644934,0.,
1.,1.01568829840754),(-0.00660507245574062,-0.00495265324338689,-0.00330023403103316,
-0.003269330525178),.UNSPECIFIED.);
#11=B_SPLINE_SURFACE_WITH_KNOTS('',1,3,((#631,#632,#633,#634,#635,#636,
#637,#638,#639,#640,#641),(#642,#643,#644,#645,#646,#647,#648,#649,#650,
#651,#652),(#653,#654,#655,#656,#657,#658,#659,#660,#661,#662,#663),(#664,
#665,#666,#667,#668,#669,#670,#671,#672,#673,#674)),.RULED_SURF.,.F.,.F.,
 .F.,(2,1,1,2),(4,2,2,3,4),(-0.00951643471369555,0.,1.,1.01520077519678),
(-0.00332007614450783,-0.00330023403103316,-0.00164781481867943,4.60439367429809E-6,
2.66269951290754E-5),.UNSPECIFIED.);
#12=B_SPLINE_CURVE_WITH_KNOTS('',3,(#534,#535,#536,#537,#538,#539,#540,
#541,#542,#543,#544),.UNSPECIFIED.,.T.,.F.,(1,1,1,1,1,1,1,1,1,1,1,1,1,1,
1),(-0.00349806279247255,-0.00279751322413622,-0.00209696365579989,-0.00139641408746356,
-0.000695864519127231,4.68504920909886E-6,0.000705234617545428,0.00140578418588176,
0.00210633375421809,0.00280688332255442,0.00350743289089075,0.00420798245922708,
0.0049085320275634,0.00560908159589973,0.00630963116423606),
 .UNSPECIFIED.);
#13=B_SPLINE_CURVE_WITH_KNOTS('',3,(#551,#552,#553,#554,#555,#556,#557),
 .UNSPECIFIED.,.F.,.F.,(4,1,1,1,4),(2.06056181235334E-17,0.000698886842777575,
0.00139777368555513,0.00209666052833268,0.00279554737111024),
 .UNSPECIFIED.);
#14=B_SPLINE_CURVE_WITH_KNOTS('',3,(#560,#561,#562,#563,#564,#565,#566),
 .UNSPECIFIED.,.F.,.F.,(4,1,1,1,4),(3.25260651745651E-19,0.000698893498258085,
0.00139778699651617,0.00209668049477425,0.00279557399303234),
 .UNSPECIFIED.);
#15=B_SPLINE_CURVE_WITH_KNOTS('',3,(#605,#606,#607,#608),.UNSPECIFIED.,
 .F.,.F.,(4,4),(0.,0.999997391857674),.UNSPECIFIED.);
#16=B_SPLINE_CURVE_WITH_KNOTS('',3,(#610,#611,#612,#613,#614,#615,#616),
 .UNSPECIFIED.,.F.,.F.,(4,1,1,1,4),(1.05256991485127E-18,0.000836125633650982,
0.00167225126730196,0.00250837690095294,0.00334450253460392),
 .UNSPECIFIED.);
#17=B_SPLINE_CURVE_WITH_KNOTS('',3,(#618,#619,#620,#621),.UNSPECIFIED.,
 .F.,.F.,(4,4),(0.,1.),.UNSPECIFIED.);
#18=B_SPLINE_CURVE_WITH_KNOTS('',3,(#675,#676,#677,#678,#679,#680,#681),
 .UNSPECIFIED.,.F.,.F.,(4,1,1,1,4),(0.,0.000831444529814314,0.00166288905962863,
0.00249433358944294,0.00332577811925726),.UNSPECIFIED.);
#19=SHAPE_REPRESENTATION_RELATIONSHIP('','',#355,#21);
#20=SHAPE_REPRESENTATION_RELATIONSHIP('','',#356,#22);
#21=ADVANCED_BREP_SHAPE_REPRESENTATION('',(#351),#688);
#22=ADVANCED_BREP_SHAPE_REPRESENTATION('',(#352),#689);
#23=CYLINDRICAL_SURFACE('',#373,0.0017526);
#24=CYLINDRICAL_SURFACE('',#375,0.002425);
#25=CYLINDRICAL_SURFACE('',#378,0.000889);
#26=CYLINDRICAL_SURFACE('',#391,0.0055);
#27=CIRCLE('',#366,0.000939799999973903);
#28=CIRCLE('',#368,0.00128015999999773);
#29=CIRCLE('',#370,0.0017526);
#30=CIRCLE('',#372,0.0017526);
#31=CIRCLE('',#376,0.00242499999994716);
#32=CIRCLE('',#377,0.0024250000000291);
#33=CIRCLE('',#380,0.00292499999993533);
#34=CIRCLE('',#382,0.00292500000001728);
#35=CIRCLE('',#384,0.00499999999999545);
#36=CIRCLE('',#386,0.00500000000003975);
#37=CIRCLE('',#388,0.0055);
#38=CIRCLE('',#390,0.0055);
#39=VERTEX_LOOP('',#170);
#40=CONICAL_SURFACE('',#365,0.00093980000000007,1.02974425867656);
#41=CONICAL_SURFACE('',#369,0.00175259999980941,1.04719755117454);
#42=CONICAL_SURFACE('',#371,0.00175260000007176,0.785398163423734);
#43=CONICAL_SURFACE('',#379,0.00292499999987849,0.785398163397448);
#44=CONICAL_SURFACE('',#381,0.00292500000001728,0.785398163340605);
#45=CONICAL_SURFACE('',#387,0.00549999999993934,0.785398163454292);
#46=CONICAL_SURFACE('',#389,0.00550000000002792,0.785398163397448);
#47=ORIENTED_EDGE('',*,*,#121,.F.);
#48=ORIENTED_EDGE('',*,*,#122,.F.);
#49=ORIENTED_EDGE('',*,*,#123,.F.);
#50=ORIENTED_EDGE('',*,*,#124,.F.);
#51=ORIENTED_EDGE('',*,*,#125,.T.);
#52=ORIENTED_EDGE('',*,*,#121,.T.);
#53=ORIENTED_EDGE('',*,*,#126,.T.);
#54=ORIENTED_EDGE('',*,*,#127,.T.);
#55=ORIENTED_EDGE('',*,*,#128,.T.);
#56=ORIENTED_EDGE('',*,*,#129,.F.);
#57=ORIENTED_EDGE('',*,*,#130,.T.);
#58=ORIENTED_EDGE('',*,*,#123,.T.);
#59=ORIENTED_EDGE('',*,*,#131,.T.);
#60=ORIENTED_EDGE('',*,*,#132,.T.);
#61=ORIENTED_EDGE('',*,*,#127,.F.);
#62=ORIENTED_EDGE('',*,*,#133,.F.);
#63=ORIENTED_EDGE('',*,*,#132,.F.);
#64=ORIENTED_EDGE('',*,*,#134,.T.);
#65=ORIENTED_EDGE('',*,*,#135,.F.);
#66=ORIENTED_EDGE('',*,*,#128,.F.);
#67=ORIENTED_EDGE('',*,*,#122,.T.);
#68=ORIENTED_EDGE('',*,*,#125,.F.);
#69=ORIENTED_EDGE('',*,*,#135,.T.);
#70=ORIENTED_EDGE('',*,*,#136,.T.);
#71=ORIENTED_EDGE('',*,*,#137,.T.);
#72=ORIENTED_EDGE('',*,*,#129,.T.);
#73=ORIENTED_EDGE('',*,*,#136,.F.);
#74=ORIENTED_EDGE('',*,*,#134,.F.);
#75=ORIENTED_EDGE('',*,*,#131,.F.);
#76=ORIENTED_EDGE('',*,*,#138,.F.);
#77=ORIENTED_EDGE('',*,*,#139,.F.);
#78=ORIENTED_EDGE('',*,*,#137,.F.);
#79=ORIENTED_EDGE('',*,*,#138,.T.);
#80=ORIENTED_EDGE('',*,*,#133,.T.);
#81=ORIENTED_EDGE('',*,*,#126,.F.);
#82=ORIENTED_EDGE('',*,*,#124,.T.);
#83=ORIENTED_EDGE('',*,*,#130,.F.);
#84=ORIENTED_EDGE('',*,*,#140,.F.);
#85=ORIENTED_EDGE('',*,*,#141,.F.);
#86=ORIENTED_EDGE('',*,*,#139,.T.);
#87=ORIENTED_EDGE('',*,*,#142,.F.);
#88=ORIENTED_EDGE('',*,*,#140,.T.);
#89=ORIENTED_EDGE('',*,*,#142,.T.);
#90=ORIENTED_EDGE('',*,*,#141,.T.);
#91=ORIENTED_EDGE('',*,*,#143,.T.);
#92=ORIENTED_EDGE('',*,*,#144,.T.);
#93=ORIENTED_EDGE('',*,*,#145,.T.);
#94=ORIENTED_EDGE('',*,*,#146,.F.);
#95=ORIENTED_EDGE('',*,*,#147,.F.);
#96=ORIENTED_EDGE('',*,*,#143,.F.);
#97=ORIENTED_EDGE('',*,*,#148,.T.);
#98=ORIENTED_EDGE('',*,*,#144,.F.);
#99=ORIENTED_EDGE('',*,*,#145,.F.);
#100=ORIENTED_EDGE('',*,*,#149,.F.);
#101=ORIENTED_EDGE('',*,*,#150,.T.);
#102=ORIENTED_EDGE('',*,*,#151,.F.);
#103=ORIENTED_EDGE('',*,*,#152,.T.);
#104=ORIENTED_EDGE('',*,*,#146,.T.);
#105=ORIENTED_EDGE('',*,*,#148,.F.);
#106=ORIENTED_EDGE('',*,*,#153,.F.);
#107=ORIENTED_EDGE('',*,*,#149,.T.);
#108=ORIENTED_EDGE('',*,*,#154,.F.);
#109=ORIENTED_EDGE('',*,*,#155,.F.);
#110=ORIENTED_EDGE('',*,*,#153,.T.);
#111=ORIENTED_EDGE('',*,*,#150,.F.);
#112=ORIENTED_EDGE('',*,*,#147,.T.);
#113=ORIENTED_EDGE('',*,*,#152,.F.);
#114=ORIENTED_EDGE('',*,*,#156,.F.);
#115=ORIENTED_EDGE('',*,*,#157,.F.);
#116=ORIENTED_EDGE('',*,*,#154,.T.);
#117=ORIENTED_EDGE('',*,*,#156,.T.);
#118=ORIENTED_EDGE('',*,*,#151,.T.);
#119=ORIENTED_EDGE('',*,*,#155,.T.);
#120=ORIENTED_EDGE('',*,*,#157,.T.);
#121=EDGE_CURVE('',#158,#159,#188,.T.);
#122=EDGE_CURVE('',#160,#158,#189,.T.);
#123=EDGE_CURVE('',#161,#160,#190,.T.);
#124=EDGE_CURVE('',#159,#161,#191,.T.);
#125=EDGE_CURVE('',#162,#158,#192,.T.);
#126=EDGE_CURVE('',#159,#163,#193,.T.);
#127=EDGE_CURVE('',#163,#162,#194,.T.);
#128=EDGE_CURVE('',#160,#164,#195,.T.);
#129=EDGE_CURVE('',#165,#164,#196,.T.);
#130=EDGE_CURVE('',#165,#161,#197,.T.);
#131=EDGE_CURVE('',#166,#167,#198,.T.);
#132=EDGE_CURVE('',#167,#162,#199,.T.);
#133=EDGE_CURVE('',#166,#163,#200,.T.);
#134=EDGE_CURVE('',#167,#168,#201,.T.);
#135=EDGE_CURVE('',#164,#168,#202,.T.);
#136=EDGE_CURVE('',#168,#169,#203,.T.);
#137=EDGE_CURVE('',#169,#165,#204,.T.);
#138=EDGE_CURVE('',#169,#166,#205,.T.);
#139=EDGE_CURVE('',#171,#171,#27,.T.);
#140=EDGE_CURVE('',#172,#172,#28,.T.);
#141=EDGE_CURVE('',#173,#173,#29,.T.);
#142=EDGE_CURVE('',#174,#174,#30,.F.);
#143=EDGE_CURVE('',#175,#175,#12,.T.);
#144=EDGE_CURVE('',#176,#176,#31,.T.);
#145=EDGE_CURVE('',#177,#177,#32,.T.);
#146=EDGE_CURVE('',#178,#179,#13,.T.);
#147=EDGE_CURVE('',#179,#178,#14,.T.);
#148=EDGE_CURVE('',#180,#180,#33,.T.);
#149=EDGE_CURVE('',#181,#181,#34,.F.);
#150=EDGE_CURVE('',#179,#182,#15,.T.);
#151=EDGE_CURVE('',#183,#182,#16,.T.);
#152=EDGE_CURVE('',#183,#178,#17,.T.);
#153=EDGE_CURVE('',#184,#184,#35,.T.);
#154=EDGE_CURVE('',#185,#185,#36,.T.);
#155=EDGE_CURVE('',#186,#186,#37,.T.);
#156=EDGE_CURVE('',#182,#183,#18,.T.);
#157=EDGE_CURVE('',#187,#187,#38,.F.);
#158=VERTEX_POINT('',#483);
#159=VERTEX_POINT('',#484);
#160=VERTEX_POINT('',#486);
#161=VERTEX_POINT('',#488);
#162=VERTEX_POINT('',#492);
#163=VERTEX_POINT('',#494);
#164=VERTEX_POINT('',#498);
#165=VERTEX_POINT('',#500);
#166=VERTEX_POINT('',#504);
#167=VERTEX_POINT('',#505);
#168=VERTEX_POINT('',#510);
#169=VERTEX_POINT('',#514);
#170=VERTEX_POINT('',#519);
#171=VERTEX_POINT('',#521);
#172=VERTEX_POINT('',#524);
#173=VERTEX_POINT('',#527);
#174=VERTEX_POINT('',#530);
#175=VERTEX_POINT('',#545);
#176=VERTEX_POINT('',#547);
#177=VERTEX_POINT('',#549);
#178=VERTEX_POINT('',#558);
#179=VERTEX_POINT('',#559);
#180=VERTEX_POINT('',#569);
#181=VERTEX_POINT('',#572);
#182=VERTEX_POINT('',#609);
#183=VERTEX_POINT('',#617);
#184=VERTEX_POINT('',#624);
#185=VERTEX_POINT('',#627);
#186=VERTEX_POINT('',#630);
#187=VERTEX_POINT('',#684);
#188=LINE('',#482,#206);
#189=LINE('',#485,#207);
#190=LINE('',#487,#208);
#191=LINE('',#489,#209);
#192=LINE('',#491,#210);
#193=LINE('',#493,#211);
#194=LINE('',#495,#212);
#195=LINE('',#497,#213);
#196=LINE('',#499,#214);
#197=LINE('',#501,#215);
#198=LINE('',#503,#216);
#199=LINE('',#506,#217);
#200=LINE('',#507,#218);
#201=LINE('',#509,#219);
#202=LINE('',#511,#220);
#203=LINE('',#513,#221);
#204=LINE('',#515,#222);
#205=LINE('',#517,#223);
#206=VECTOR('',#396,1.);
#207=VECTOR('',#397,1.);
#208=VECTOR('',#398,1.);
#209=VECTOR('',#399,1.);
#210=VECTOR('',#402,1.);
#211=VECTOR('',#403,1.);
#212=VECTOR('',#404,1.);
#213=VECTOR('',#407,1.);
#214=VECTOR('',#408,1.);
#215=VECTOR('',#409,1.);
#216=VECTOR('',#412,1.);
#217=VECTOR('',#413,1.);
#218=VECTOR('',#414,1.);
#219=VECTOR('',#417,1.);
#220=VECTOR('',#418,1.);
#221=VECTOR('',#421,1.);
#222=VECTOR('',#422,1.);
#223=VECTOR('',#425,1.);
#224=EDGE_LOOP('',(#47,#48,#49,#50));
#225=EDGE_LOOP('',(#51,#52,#53,#54));
#226=EDGE_LOOP('',(#55,#56,#57,#58));
#227=EDGE_LOOP('',(#59,#60,#61,#62));
#228=EDGE_LOOP('',(#63,#64,#65,#66,#67,#68));
#229=EDGE_LOOP('',(#69,#70,#71,#72));
#230=EDGE_LOOP('',(#73,#74,#75,#76));
#231=EDGE_LOOP('',(#77));
#232=EDGE_LOOP('',(#78,#79,#80,#81,#82,#83));
#233=EDGE_LOOP('',(#84));
#234=EDGE_LOOP('',(#85));
#235=EDGE_LOOP('',(#86));
#236=EDGE_LOOP('',(#87));
#237=EDGE_LOOP('',(#88));
#238=EDGE_LOOP('',(#89));
#239=EDGE_LOOP('',(#90));
#240=EDGE_LOOP('',(#91));
#241=EDGE_LOOP('',(#92));
#242=EDGE_LOOP('',(#93));
#243=EDGE_LOOP('',(#94,#95));
#244=EDGE_LOOP('',(#96));
#245=EDGE_LOOP('',(#97));
#246=EDGE_LOOP('',(#98));
#247=EDGE_LOOP('',(#99));
#248=EDGE_LOOP('',(#100));
#249=EDGE_LOOP('',(#101,#102,#103,#104));
#250=EDGE_LOOP('',(#105));
#251=EDGE_LOOP('',(#106));
#252=EDGE_LOOP('',(#107));
#253=EDGE_LOOP('',(#108));
#254=EDGE_LOOP('',(#109));
#255=EDGE_LOOP('',(#110));
#256=EDGE_LOOP('',(#111,#112,#113,#114));
#257=EDGE_LOOP('',(#115));
#258=EDGE_LOOP('',(#116));
#259=EDGE_LOOP('',(#117,#118));
#260=EDGE_LOOP('',(#119));
#261=EDGE_LOOP('',(#120));
#262=FACE_BOUND('',#224,.T.);
#263=FACE_BOUND('',#225,.T.);
#264=FACE_BOUND('',#226,.T.);
#265=FACE_BOUND('',#227,.T.);
#266=FACE_BOUND('',#228,.T.);
#267=FACE_BOUND('',#229,.T.);
#268=FACE_BOUND('',#230,.T.);
#269=FACE_BOUND('',#39,.T.);
#270=FACE_BOUND('',#231,.T.);
#271=FACE_BOUND('',#232,.T.);
#272=FACE_BOUND('',#233,.T.);
#273=FACE_BOUND('',#234,.T.);
#274=FACE_BOUND('',#235,.T.);
#275=FACE_BOUND('',#236,.T.);
#276=FACE_BOUND('',#237,.T.);
#277=FACE_BOUND('',#238,.T.);
#278=FACE_BOUND('',#239,.T.);
#279=FACE_BOUND('',#240,.T.);
#280=FACE_BOUND('',#241,.T.);
#281=FACE_BOUND('',#242,.T.);
#282=FACE_BOUND('',#243,.T.);
#283=FACE_BOUND('',#244,.T.);
#284=FACE_BOUND('',#245,.T.);
#285=FACE_BOUND('',#246,.T.);
#286=FACE_BOUND('',#247,.T.);
#287=FACE_BOUND('',#248,.T.);
#288=FACE_BOUND('',#249,.T.);
#289=FACE_BOUND('',#250,.T.);
#290=FACE_BOUND('',#251,.T.);
#291=FACE_BOUND('',#252,.T.);
#292=FACE_BOUND('',#253,.T.);
#293=FACE_BOUND('',#254,.T.);
#294=FACE_BOUND('',#255,.T.);
#295=FACE_BOUND('',#256,.T.);
#296=FACE_BOUND('',#257,.T.);
#297=FACE_BOUND('',#258,.T.);
#298=FACE_BOUND('',#259,.T.);
#299=FACE_BOUND('',#260,.T.);
#300=FACE_BOUND('',#261,.T.);
#301=PLANE('',#358);
#302=PLANE('',#359);
#303=PLANE('',#360);
#304=PLANE('',#361);
#305=PLANE('',#362);
#306=PLANE('',#363);
#307=PLANE('',#364);
#308=PLANE('',#367);
#309=PLANE('',#383);
#310=PLANE('',#385);
#311=ADVANCED_FACE('',(#262),#301,.F.);
#312=ADVANCED_FACE('',(#263),#302,.T.);
#313=ADVANCED_FACE('',(#264),#303,.T.);
#314=ADVANCED_FACE('',(#265),#304,.F.);
#315=ADVANCED_FACE('',(#266),#305,.F.);
#316=ADVANCED_FACE('',(#267),#306,.T.);
#317=ADVANCED_FACE('',(#268),#307,.F.);
#318=ADVANCED_FACE('',(#269,#270),#40,.F.);
#319=ADVANCED_FACE('',(#271,#272),#308,.T.);
#320=ADVANCED_FACE('',(#273,#274),#41,.T.);
#321=ADVANCED_FACE('',(#275,#276),#42,.T.);
#322=ADVANCED_FACE('',(#277,#278),#23,.T.);
#323=ADVANCED_FACE('NONE',(#279,#280,#281),#24,.F.);
#324=ADVANCED_FACE('',(#282,#283),#25,.F.);
#325=ADVANCED_FACE('',(#284,#285),#43,.F.);
#326=ADVANCED_FACE('',(#286,#287),#44,.F.);
#327=ADVANCED_FACE('',(#288),#10,.T.);
#328=ADVANCED_FACE('',(#289,#290),#309,.F.);
#329=ADVANCED_FACE('',(#291,#292),#310,.T.);
#330=ADVANCED_FACE('',(#293,#294),#45,.T.);
#331=ADVANCED_FACE('',(#295),#11,.T.);
#332=ADVANCED_FACE('',(#296,#297),#46,.T.);
#333=ADVANCED_FACE('',(#298,#299,#300),#26,.T.);
#334=CLOSED_SHELL('',(#311,#312,#313,#314,#315,#316,#317,#318,#319,#320,
#321,#322));
#335=CLOSED_SHELL('',(#323,#324,#325,#326,#327,#328,#329,#330,#331,#332,
#333));
#336=STYLED_ITEM('',(#338),#351);
#337=STYLED_ITEM('',(#339),#352);
#338=PRESENTATION_STYLE_ASSIGNMENT((#340));
#339=PRESENTATION_STYLE_ASSIGNMENT((#341));
#340=SURFACE_STYLE_USAGE(.BOTH.,#342);
#341=SURFACE_STYLE_USAGE(.BOTH.,#343);
#342=SURFACE_SIDE_STYLE('',(#344));
#343=SURFACE_SIDE_STYLE('',(#345));
#344=SURFACE_STYLE_FILL_AREA(#346);
#345=SURFACE_STYLE_FILL_AREA(#347);
#346=FILL_AREA_STYLE('',(#348));
#347=FILL_AREA_STYLE('',(#349));
#348=FILL_AREA_STYLE_COLOUR('',#350);
#349=FILL_AREA_STYLE_COLOUR('',#350);
#350=COLOUR_RGB('',0.796078431372549,0.823529411764706,0.937254901960784);
#351=MANIFOLD_SOLID_BREP('Screw 6-32 Set screw-1-solid1',#334);
#352=MANIFOLD_SOLID_BREP('Axle set collar-1-solid1',#335);
#353=SHAPE_DEFINITION_REPRESENTATION(#698,#355);
#354=SHAPE_DEFINITION_REPRESENTATION(#699,#356);
#355=SHAPE_REPRESENTATION('Screw 6-32 Set screw-1-solid1',(#357),#688);
#356=SHAPE_REPRESENTATION('Axle set collar-1-solid1',(#374),#689);
#357=AXIS2_PLACEMENT_3D('',#480,#392,#393);
#358=AXIS2_PLACEMENT_3D('',#481,#394,#395);
#359=AXIS2_PLACEMENT_3D('',#490,#400,#401);
#360=AXIS2_PLACEMENT_3D('',#496,#405,#406);
#361=AXIS2_PLACEMENT_3D('',#502,#410,#411);
#362=AXIS2_PLACEMENT_3D('',#508,#415,#416);
#363=AXIS2_PLACEMENT_3D('',#512,#419,#420);
#364=AXIS2_PLACEMENT_3D('',#516,#423,#424);
#365=AXIS2_PLACEMENT_3D('',#518,#426,#427);
#366=AXIS2_PLACEMENT_3D('',#520,#428,#429);
#367=AXIS2_PLACEMENT_3D('',#522,#430,#431);
#368=AXIS2_PLACEMENT_3D('',#523,#432,#433);
#369=AXIS2_PLACEMENT_3D('',#525,#434,#435);
#370=AXIS2_PLACEMENT_3D('',#526,#436,#437);
#371=AXIS2_PLACEMENT_3D('',#528,#438,#439);
#372=AXIS2_PLACEMENT_3D('',#529,#440,#441);
#373=AXIS2_PLACEMENT_3D('',#531,#442,#443);
#374=AXIS2_PLACEMENT_3D('',#532,#444,#445);
#375=AXIS2_PLACEMENT_3D('',#533,#446,#447);
#376=AXIS2_PLACEMENT_3D('',#546,#448,#449);
#377=AXIS2_PLACEMENT_3D('',#548,#450,#451);
#378=AXIS2_PLACEMENT_3D('',#550,#452,#453);
#379=AXIS2_PLACEMENT_3D('',#567,#454,#455);
#380=AXIS2_PLACEMENT_3D('',#568,#456,#457);
#381=AXIS2_PLACEMENT_3D('',#570,#458,#459);
#382=AXIS2_PLACEMENT_3D('',#571,#460,#461);
#383=AXIS2_PLACEMENT_3D('',#622,#462,#463);
#384=AXIS2_PLACEMENT_3D('',#623,#464,#465);
#385=AXIS2_PLACEMENT_3D('',#625,#466,#467);
#386=AXIS2_PLACEMENT_3D('',#626,#468,#469);
#387=AXIS2_PLACEMENT_3D('',#628,#470,#471);
#388=AXIS2_PLACEMENT_3D('',#629,#472,#473);
#389=AXIS2_PLACEMENT_3D('',#682,#474,#475);
#390=AXIS2_PLACEMENT_3D('',#683,#476,#477);
#391=AXIS2_PLACEMENT_3D('',#685,#478,#479);
#392=DIRECTION('',(0.,0.,1.));
#393=DIRECTION('',(1.,0.,0.));
#394=DIRECTION('',(-0.00121261413565932,0.629709353097679,0.77682987853729));
#395=DIRECTION('',(0.,-0.77683044967608,0.62970981607091));
#396=DIRECTION('',(0.999998145897405,0.00192566917004366,5.33564061262551E-17));
#397=DIRECTION('',(0.0014959173474656,-0.776828438214996,0.62971052064559));
#398=DIRECTION('',(-0.999998145897405,-0.00192566917004361,-4.00173045946914E-17));
#399=DIRECTION('',(-0.00149591734746654,0.776828438214996,-0.62971052064559));
#400=DIRECTION('',(-0.000689195357039435,0.357898485327534,-0.933760247178052));
#401=DIRECTION('',(0.,0.933760468941633,0.357898570326709));
#402=DIRECTION('',(-0.00179811332020538,0.933758515890754,0.357899148909275));
#403=DIRECTION('',(0.00179811332020348,-0.933758515890754,-0.357899148909275));
#404=DIRECTION('',(-0.999998145897405,-0.00192566917004361,-2.66782030631276E-17));
#405=DIRECTION('',(0.00190180949269876,-0.987607838425216,0.156930368640762));
#406=DIRECTION('',(0.,-0.156930652440636,-0.987609624459258));
#407=DIRECTION('',(0.00030219597273505,-0.156930077675758,-0.987609669554868));
#408=DIRECTION('',(-0.999998145897405,-0.00192566917004372,-5.33564061262552E-17));
#409=DIRECTION('',(-0.000302195972732211,0.156930077675758,0.987609669554868));
#410=DIRECTION('',(0.00190180949269876,-0.987607838425216,0.156930368640761));
#411=DIRECTION('',(0.,-0.156930652440636,-0.987609624459258));
#412=DIRECTION('',(-0.999998145897405,-0.00192566917004369,8.00346091893828E-17));
#413=DIRECTION('',(-0.00030219597273505,0.156930077675758,0.987609669554868));
#414=DIRECTION('',(-0.000302195972732211,0.156930077675758,0.987609669554868));
#415=DIRECTION('',(-0.999998145897405,-0.0019256691700436,5.42101086242752E-20));
#416=DIRECTION('',(0.0019256691700436,-0.999998145897405,0.));
#417=DIRECTION('',(-0.00149591734746559,0.776828438214996,-0.62971052064559));
#418=DIRECTION('',(0.00179811332020538,-0.933758515890754,-0.357899148909276));
#419=DIRECTION('',(0.000689195357039435,-0.357898485327535,0.933760247178052));
#420=DIRECTION('',(0.,-0.933760468941633,-0.357898570326709));
#421=DIRECTION('',(0.999998145897405,0.00192566917004369,0.));
#422=DIRECTION('',(-0.00179811332020632,0.933758515890754,0.357899148909276));
#423=DIRECTION('',(0.00121261413565932,-0.62970935309768,-0.776829878537289));
#424=DIRECTION('',(0.,0.77683044967608,-0.62970981607091));
#425=DIRECTION('',(0.00149591734746843,-0.776828438214996,0.62971052064559));
#426=DIRECTION('',(-0.999998145897405,-0.00192566917004356,1.54881420348269E-16));
#427=DIRECTION('',(0.00192566917004356,-0.999998145897405,0.));
#428=DIRECTION('',(0.999998145897405,0.0019256691700436,-2.58345048912562E-19));
#429=DIRECTION('',(-0.00030219597277999,0.156930077698889,0.987609669551192));
#430=DIRECTION('',(0.999998145897405,0.0019256691700436,-5.42101086242752E-20));
#431=DIRECTION('',(-0.0019256691700436,0.999998145897405,0.));
#432=DIRECTION('',(-0.999998145897405,-0.00192566917004356,-2.50683701662136E-16));
#433=DIRECTION('',(0.00192566917004356,-0.999998145897405,0.));
#434=DIRECTION('',(0.999998145897405,0.00192566917004359,-4.5679841984338E-17));
#435=DIRECTION('',(-0.00192566917004359,0.999998145897405,0.));
#436=DIRECTION('',(0.999998145897405,0.0019256691700436,-2.58345048912562E-19));
#437=DIRECTION('',(-0.0019256691700436,0.999998145897405,0.));
#438=DIRECTION('',(-0.999998145897405,-0.00192566917004356,-2.50683701662136E-16));
#439=DIRECTION('',(0.00192566917004356,-0.999998145897405,0.));
#440=DIRECTION('',(0.999998145897405,0.0019256691700436,-2.58345048912562E-19));
#441=DIRECTION('',(-0.0019256691700436,0.999998145897405,0.));
#442=DIRECTION('',(0.999998145897405,0.0019256691700436,-2.58345048912562E-19));
#443=DIRECTION('',(-0.0019256691700436,0.999998145897405,0.));
#444=DIRECTION('',(0.,0.,1.));
#445=DIRECTION('',(1.,0.,0.));
#446=DIRECTION('',(0.,0.,1.));
#447=DIRECTION('',(1.,0.,0.));
#448=DIRECTION('',(0.,0.,-1.));
#449=DIRECTION('',(-1.,0.,0.));
#450=DIRECTION('',(0.,0.,1.));
#451=DIRECTION('',(1.,0.,0.));
#452=DIRECTION('',(0.999998145897405,0.0019256691700436,0.));
#453=DIRECTION('',(-0.0019256691700436,0.999998145897405,0.));
#454=DIRECTION('',(0.,0.,-1.));
#455=DIRECTION('',(-1.,0.,0.));
#456=DIRECTION('',(0.,0.,-1.));
#457=DIRECTION('',(-1.,0.,0.));
#458=DIRECTION('',(0.,0.,1.));
#459=DIRECTION('',(1.,0.,0.));
#460=DIRECTION('',(0.,0.,1.));
#461=DIRECTION('',(1.,0.,0.));
#462=DIRECTION('',(0.,0.,1.));
#463=DIRECTION('',(1.,0.,0.));
#464=DIRECTION('',(0.,0.,1.));
#465=DIRECTION('',(1.,0.,0.));
#466=DIRECTION('',(0.,0.,1.));
#467=DIRECTION('',(1.,0.,0.));
#468=DIRECTION('',(0.,0.,-1.));
#469=DIRECTION('',(-1.,0.,0.));
#470=DIRECTION('',(0.,0.,1.));
#471=DIRECTION('',(1.,0.,0.));
#472=DIRECTION('',(0.,0.,1.));
#473=DIRECTION('',(1.,0.,0.));
#474=DIRECTION('',(0.,0.,-1.));
#475=DIRECTION('',(-1.,0.,0.));
#476=DIRECTION('',(0.,0.,1.));
#477=DIRECTION('',(1.,0.,0.));
#478=DIRECTION('',(0.,0.,1.));
#479=DIRECTION('',(1.,0.,0.));
#480=CARTESIAN_POINT('',(0.,0.,0.));
#481=CARTESIAN_POINT('',(0.00393869810584194,0.00125909591672369,0.000227160559607638));
#482=CARTESIAN_POINT('',(0.00394006917924159,0.000547098820404525,0.000804317677145094));
#483=CARTESIAN_POINT('',(0.0039400691792416,0.000547098820404525,0.000804317677145094));
#484=CARTESIAN_POINT('',(0.00597206541170512,0.000551011780158054,0.000804317677145094));
#485=CARTESIAN_POINT('',(0.00393869810584194,0.00125909591672369,0.000227160559607638));
#486=CARTESIAN_POINT('',(0.00393869810584194,0.00125909591672369,0.000227160559607638));
#487=CARTESIAN_POINT('',(0.00597069433830547,0.00126300887647722,0.000227160559607638));
#488=CARTESIAN_POINT('',(0.00597069433830547,0.00126300887647722,0.000227160559607638));
#489=CARTESIAN_POINT('',(0.00597206541170512,0.000551011780158053,0.000804317677145094));
#490=CARTESIAN_POINT('',(0.0039417172284116,-0.000308731526776344,0.000476287519824849));
#491=CARTESIAN_POINT('',(0.0039417172284116,-0.000308731526776344,0.000476287519824849));
#492=CARTESIAN_POINT('',(0.0039417172284116,-0.000308731526776344,0.000476287519824849));
#493=CARTESIAN_POINT('',(0.00597206541170512,0.000551011780158054,0.000804317677145094));
#494=CARTESIAN_POINT('',(0.00597371346087513,-0.000304818567022816,0.000476287519824849));
#495=CARTESIAN_POINT('',(0.00597371346087513,-0.000304818567022816,0.000476287519824849));
#496=CARTESIAN_POINT('',(0.00393869810584194,0.00125909591672369,0.000227160559607638));
#497=CARTESIAN_POINT('',(0.00393869810584194,0.00125909591672369,0.000227160559607638));
#498=CARTESIAN_POINT('',(0.00393897508161229,0.00111526266586199,-0.000678026715250065));
#499=CARTESIAN_POINT('',(0.00597097131407582,0.00111917562561552,-0.000678026715250065));
#500=CARTESIAN_POINT('',(0.00597097131407582,0.00111917562561552,-0.000678026715250065));
#501=CARTESIAN_POINT('',(0.00597097131407582,0.00111917562561552,-0.000678026715250065));
#502=CARTESIAN_POINT('',(0.0039417172284116,-0.000308731526776344,0.000476287519824849));
#503=CARTESIAN_POINT('',(0.00597399043664548,-0.000448651817884517,-0.000428899755032854));
#504=CARTESIAN_POINT('',(0.00597399043664548,-0.000448651817884517,-0.000428899755032854));
#505=CARTESIAN_POINT('',(0.00394199420418195,-0.000452564777638045,-0.000428899755032854));
#506=CARTESIAN_POINT('',(0.00394199420418196,-0.000452564777638046,-0.000428899755032854));
#507=CARTESIAN_POINT('',(0.00597399043664548,-0.000448651817884517,-0.000428899755032854));
#508=CARTESIAN_POINT('',(0.0039417172284116,-0.000308731526776344,0.000476287519824849));
#509=CARTESIAN_POINT('',(0.00394199420418195,-0.000452564777638046,-0.000428899755032854));
#510=CARTESIAN_POINT('',(0.0039406231307823,0.000259432318681122,-0.00100605687257031));
#511=CARTESIAN_POINT('',(0.00393897508161229,0.00111526266586199,-0.000678026715250065));
#512=CARTESIAN_POINT('',(0.00393897508161229,0.00111526266586199,-0.000678026715250065));
#513=CARTESIAN_POINT('',(0.0039406231307823,0.000259432318681122,-0.00100605687257031));
#514=CARTESIAN_POINT('',(0.00597261936324583,0.000263345278434651,-0.00100605687257031));
#515=CARTESIAN_POINT('',(0.00597261936324583,0.00026334527843465,-0.00100605687257031));
#516=CARTESIAN_POINT('',(0.00394199420418195,-0.000452564777638046,-0.000428899755032854));
#517=CARTESIAN_POINT('',(0.00597261936324583,0.000263345278434651,-0.00100605687257031));
#518=CARTESIAN_POINT('',(0.00279734827425136,0.000401064529681467,-0.00010086959771261));
#519=CARTESIAN_POINT('',(0.00336203603702245,0.000402151933513094,-0.00010086959771261));
#520=CARTESIAN_POINT('',(0.00279734827428517,0.000401064529681532,-0.00010086959771261));
#521=CARTESIAN_POINT('',(0.00279706427050996,0.000548547416698852,0.000827285969705827));
#522=CARTESIAN_POINT('',(0.00597234238747547,0.000407178529296355,-0.00010086959771261));
#523=CARTESIAN_POINT('',(0.00597234238749829,0.000407178529296399,-0.00010086959771261));
#524=CARTESIAN_POINT('',(0.00597480755214301,-0.000872979097153353,-0.00010086959771261));
#525=CARTESIAN_POINT('',(0.00326661770293144,0.000401968189028197,-0.00010086959771261));
#526=CARTESIAN_POINT('',(0.00326661770297325,0.000401968189028278,-0.00010086959771261));
#527=CARTESIAN_POINT('',(0.00326324277518583,0.00215456493952807,-0.00010086959771261));
#528=CARTESIAN_POINT('',(0.00549990326340132,0.000406268766153609,-0.00010086959771261));
#529=CARTESIAN_POINT('',(0.00549990326342768,0.000406268766153659,-0.00010086959771261));
#530=CARTESIAN_POINT('',(0.00549652833564026,0.00215886551665345,-0.00010086959771261));
#531=CARTESIAN_POINT('',(0.0186723188403725,0.000431634527755909,-0.00010086959771261));
#532=CARTESIAN_POINT('',(0.,0.,0.));
#533=CARTESIAN_POINT('',(-0.000187169612173693,0.000395317324944244,-0.00329619022162942));
#534=CARTESIAN_POINT('',(0.00215632244474671,0.00109325515433354,0.000598915764308098));
#535=CARTESIAN_POINT('',(0.00227854839362254,0.000394766016831441,0.000884405541380026));
#536=CARTESIAN_POINT('',(0.002156466307721,-0.000300415271993836,0.000592170895501226));
#537=CARTESIAN_POINT('',(0.00202720543121985,-0.000585465372448696,-0.000106316100199213));
#538=CARTESIAN_POINT('',(0.00215899185409208,-0.000293665257298937,-0.000800646498266334));
#539=CARTESIAN_POINT('',(0.00227852992126571,0.00040561935796642,-0.00108615496359072));
#540=CARTESIAN_POINT('',(0.00215375936621572,0.00110003346257964,-0.000793872815572469));
#541=CARTESIAN_POINT('',(0.00202341384746507,0.00138464922922431,-9.54275503208051E-5));
#542=CARTESIAN_POINT('',(0.00215632244474671,0.00109325515433354,0.000598915764308098));
#543=CARTESIAN_POINT('',(0.00227854839362254,0.000394766016831441,0.000884405541380026));
#544=CARTESIAN_POINT('',(0.002156466307721,-0.000300415271993836,0.000592170895501226));
#545=CARTESIAN_POINT('',(0.00223783038782631,0.000395317324944244,0.000788118137554905));
#546=CARTESIAN_POINT('',(-0.000187169612173693,0.000395317324944244,-0.00279619022165889));
#547=CARTESIAN_POINT('',(-0.00261216961212085,0.000395317324944244,-0.00279619022165889));
#548=CARTESIAN_POINT('',(-0.000187169612173693,0.000395317324944244,0.0024038097783432));
#549=CARTESIAN_POINT('',(0.00223783038785541,0.000395317324944244,0.0024038097783432));
#550=CARTESIAN_POINT('',(0.00531282019026203,0.000405908505379484,-0.000100869597712612));
#551=CARTESIAN_POINT('',(0.00517109814908992,0.000416003091929408,0.000788069947705543));
#552=CARTESIAN_POINT('',(0.00516987500469326,0.000651645685438222,0.000785321685226053));
#553=CARTESIAN_POINT('',(0.00512771263647026,0.00110941434191598,0.000586507366327586));
#554=CARTESIAN_POINT('',(0.00503228729980903,0.00139085496657637,-0.000111152732616064));
#555=CARTESIAN_POINT('',(0.00513107430242725,0.00109344636470147,-0.000804902665715157));
#556=CARTESIAN_POINT('',(0.00517146172846643,0.000630946774136922,-0.000992556119242463));
#557=CARTESIAN_POINT('',(0.00517113808276918,0.000395274479258125,-0.000989809216631073));
#558=CARTESIAN_POINT('',(0.00517109814908992,0.000416003091929387,0.000788069947705542));
#559=CARTESIAN_POINT('',(0.00517113808276918,0.000395274479258125,-0.000989809216631074));
#560=CARTESIAN_POINT('',(0.00517113808276918,0.000395274479258125,-0.000989809216631076));
#561=CARTESIAN_POINT('',(0.00517081447288586,0.000159628263418045,-0.000987062617986597));
#562=CARTESIAN_POINT('',(0.00513028511462387,-0.000298293498407493,-0.000788255049355662));
#563=CARTESIAN_POINT('',(0.00503607651884162,-0.000580111500854223,-9.06047343070594E-5));
#564=CARTESIAN_POINT('',(0.00513388601359878,-0.000282334975389766,0.000603159278443044));
#565=CARTESIAN_POINT('',(0.00517232143734894,0.000180332782887549,0.000790818533426924));
#566=CARTESIAN_POINT('',(0.00517109814908992,0.000416003091929385,0.000788069947705541));
#567=CARTESIAN_POINT('',(-0.000187169612173693,0.000395317324944244,-0.00329619022159022));
#568=CARTESIAN_POINT('',(-0.000187169612173693,0.000395317324944244,-0.00329619022164707));
#569=CARTESIAN_POINT('',(-0.00311216961210902,0.000395317324944244,-0.00329619022164707));
#570=CARTESIAN_POINT('',(-0.000187169612173693,0.000395317324944244,0.00290380977838822));
#571=CARTESIAN_POINT('',(-0.000187169612173693,0.000395317324944244,0.00290380977838822));
#572=CARTESIAN_POINT('',(0.00273783038784359,0.000395317324944244,0.00290380977838822));
#573=CARTESIAN_POINT('',(0.00516984985811861,0.000395292485224696,-0.000988305045202831));
#574=CARTESIAN_POINT('',(0.00517049079315082,0.000870752589590956,-0.000993831217192847));
#575=CARTESIAN_POINT('',(0.00506504228596877,0.00128708962059553,-0.000587128641489092));
#576=CARTESIAN_POINT('',(0.00506175700391549,0.00129812477195657,0.000363924664759023));
#577=CARTESIAN_POINT('',(0.00516733191583964,0.000892476329365171,0.000781004506345104));
#578=CARTESIAN_POINT('',(0.005169856348504,0.000407068691031814,0.000786669783145506));
#579=CARTESIAN_POINT('',(0.00516986547723823,0.000398178553438127,0.000786629254686544));
#580=CARTESIAN_POINT('',(0.00516983875527684,0.000389311983683468,0.000786446450487908));
#581=CARTESIAN_POINT('',(0.00517113808276918,0.000395274479258125,-0.000989809216631075));
#582=CARTESIAN_POINT('',(0.00517177757808888,0.000871676427593275,-0.000995344753965002));
#583=CARTESIAN_POINT('',(0.0050663023179549,0.00128883875863356,-0.000587952884496573));
#584=CARTESIAN_POINT('',(0.00506301620858038,0.00129989578463552,0.000364712525727851));
#585=CARTESIAN_POINT('',(0.00516861786892755,0.000893443225964542,0.00078249925270931));
#586=CARTESIAN_POINT('',(0.00517114453523209,0.000407074017596887,0.000788174130714383));
#587=CARTESIAN_POINT('',(0.00517115369595238,0.000398166269107256,0.000788133533557256));
#588=CARTESIAN_POINT('',(0.00517112699727727,0.000389282135196028,0.000787950419525961));
#589=CARTESIAN_POINT('',(0.00531283001565924,0.000393294001547247,-0.00115525315295978));
#590=CARTESIAN_POINT('',(0.00531331115688432,0.000973289443745461,-0.00116181878522349));
#591=CARTESIAN_POINT('',(0.00520489333741649,0.00148122659206793,-0.000678611439159049));
#592=CARTESIAN_POINT('',(0.00520151623091219,0.00149468961158281,0.000451369417033793));
#593=CARTESIAN_POINT('',(0.0053100599524578,0.000999792260668351,0.000946906525486802));
#594=CARTESIAN_POINT('',(0.00531283229702564,0.000407659886917507,0.000953637440765566));
#595=CARTESIAN_POINT('',(0.00531284497589509,0.000396815114567124,0.000953589287491707));
#596=CARTESIAN_POINT('',(0.00531282083848003,0.00038599909766269,0.000953372094941423));
#597=CARTESIAN_POINT('',(0.00531505292098436,0.000393262931221929,-0.00115784868680263));
#598=CARTESIAN_POINT('',(0.00531553157790315,0.000974883579064947,-0.00116443047950298));
#599=CARTESIAN_POINT('',(0.00520706759468641,0.00148424482980882,-0.000680033717617791));
#600=CARTESIAN_POINT('',(0.00520368906059199,0.00149774559526791,0.000452728916203671));
#601=CARTESIAN_POINT('',(0.00531227893807161,0.00100146069606014,0.000949485795842506));
#602=CARTESIAN_POINT('',(0.00531505513691336,0.000407669078210238,0.00095623327854915));
#603=CARTESIAN_POINT('',(0.00531506787097659,0.000396793917251505,0.000956185006732677));
#604=CARTESIAN_POINT('',(0.00531504377374333,0.000385947592390185,0.000955967279548418));
#605=CARTESIAN_POINT('',(0.00517113808276918,0.000395274479258125,-0.000989809216631075));
#606=CARTESIAN_POINT('',(0.00521836937059381,0.000395243078793302,-0.00104496426713193));
#607=CARTESIAN_POINT('',(0.00526560026458028,0.000395348297459649,-0.00110011995783047));
#608=CARTESIAN_POINT('',(0.00531283075068822,0.000395590067108794,-0.00115527588824716));
#609=CARTESIAN_POINT('',(0.00531283075065198,0.00039559007271369,-0.00115527588825362));
#610=CARTESIAN_POINT('',(0.00531281814200164,0.000406923526792583,0.00095357697996507));
#611=CARTESIAN_POINT('',(0.00531222155371909,0.000689636880495181,0.000953564918463458));
#612=CARTESIAN_POINT('',(0.00526047195715749,0.00123601459003964,0.00072168700521632));
#613=CARTESIAN_POINT('',(0.005174156240464,0.00161610590317339,-0.000104422295519523));
#614=CARTESIAN_POINT('',(0.00526204772931347,0.00122772507510196,-0.00093294317581615));
#615=CARTESIAN_POINT('',(0.00531281635390017,0.000678511637967481,-0.00115772178105008));
#616=CARTESIAN_POINT('',(0.00531283038106641,0.000395590013234793,-0.001155275456149));
#617=CARTESIAN_POINT('',(0.00531280048622944,0.000406923487344815,0.000953525644413704));
#618=CARTESIAN_POINT('',(0.0053127828304517,0.000406923450518282,0.000953535745341736));
#619=CARTESIAN_POINT('',(0.005265557929664,0.000410637491342422,0.000898398695258984));
#620=CARTESIAN_POINT('',(0.00521832959832476,0.000413664676997152,0.000843240058196174));
#621=CARTESIAN_POINT('',(0.00517109814908992,0.000416003091929172,0.000788069947705545));
#622=CARTESIAN_POINT('',(-0.000187169612173693,0.000395317324944244,-0.00329619022162942));
#623=CARTESIAN_POINT('',(-0.000187169612173693,0.000395317324944244,-0.00329619022154593));
#624=CARTESIAN_POINT('',(0.00481283038782176,0.000395317324944244,-0.00329619022154593));
#625=CARTESIAN_POINT('',(-0.000187169612173693,0.000395317324944244,0.00290380977837058));
#626=CARTESIAN_POINT('',(-0.000187169612173693,0.000395317324944244,0.00290380977838822));
#627=CARTESIAN_POINT('',(-0.00518716961221344,0.000395317324944244,0.00290380977838822));
#628=CARTESIAN_POINT('',(-0.000187169612173693,0.000395317324944244,-0.00279619022165889));
#629=CARTESIAN_POINT('',(-0.000187169612173693,0.000395317324944244,-0.00279619022162941));
#630=CARTESIAN_POINT('',(0.00531283038782631,0.000395317324944244,-0.00279619022162941));
#631=CARTESIAN_POINT('',(0.00516961633137225,0.000433111399086739,0.000786117804134785));
#632=CARTESIAN_POINT('',(0.00516967545342207,0.000427411219713871,0.000786302631248541));
#633=CARTESIAN_POINT('',(0.00516972007423668,0.000421700236556206,0.000786428737431909));
#634=CARTESIAN_POINT('',(0.00517222781478057,-6.04730847312703E-5,0.000792056341202249));
#635=CARTESIAN_POINT('',(0.00506830266355412,-0.000476079439899117,0.000384413452676903));
#636=CARTESIAN_POINT('',(0.00506520698719586,-0.000487265994493445,-0.00056650202382538));
#637=CARTESIAN_POINT('',(0.00516914867845428,-8.0122781269075E-5,-0.000982709045709447));
#638=CARTESIAN_POINT('',(0.00516978968074038,0.000395293326344963,-0.000988234780212225));
#639=CARTESIAN_POINT('',(0.00516979822369229,0.00040162943003154,-0.000988308424386651));
#640=CARTESIAN_POINT('',(0.00516980676664421,0.000407965533718117,-0.000988382068561077));
#641=CARTESIAN_POINT('',(0.00516981530959612,0.000414301637404695,-0.000988455712735503));
#642=CARTESIAN_POINT('',(0.00517096455708374,0.000433170979547016,0.000787691570331726));
#643=CARTESIAN_POINT('',(0.0051710237140109,0.000427458979648371,0.000787876725351234));
#644=CARTESIAN_POINT('',(0.0051710683660905,0.000421736153641627,0.000788003055259942));
#645=CARTESIAN_POINT('',(0.00517357842925227,-6.14370421032867E-5,0.000793640642701745));
#646=CARTESIAN_POINT('',(0.00506962857801001,-0.000477905069560029,0.000385274535703812));
#647=CARTESIAN_POINT('',(0.00506653216138903,-0.000489114814380384,-0.000567328241095637));
#648=CARTESIAN_POINT('',(0.00517049858744948,-8.1127469077024E-5,-0.000984273679297148));
#649=CARTESIAN_POINT('',(0.00517113808276918,0.000395274479258125,-0.000989809216631075));
#650=CARTESIAN_POINT('',(0.00517114660563702,0.000401623721727607,-0.00098988299145264));
#651=CARTESIAN_POINT('',(0.00517115512850485,0.000407972964197089,-0.000989956766274206));
#652=CARTESIAN_POINT('',(0.00517116365137269,0.000414322206666571,-0.000990030541095772));
#653=CARTESIAN_POINT('',(0.00531263796230867,0.000439431775955494,0.000953065078823895));
#654=CARTESIAN_POINT('',(0.00531270078419554,0.000432477659010616,0.000953284690629181));
#655=CARTESIAN_POINT('',(0.00531274872164193,0.000425510370194538,0.00095343452990315));
#656=CARTESIAN_POINT('',(0.00531550284867445,-0.000162731003656883,0.000960121215222814));
#657=CARTESIAN_POINT('',(0.00520895748592339,-0.000669744735972581,0.0004757583201057));
#658=CARTESIAN_POINT('',(0.005205783281481,-0.000683391341521238,-0.00065414828401231));
#659=CARTESIAN_POINT('',(0.00531234887443417,-0.000186701440650967,-0.00114868752069608));
#660=CARTESIAN_POINT('',(0.00531283001565924,0.000393294001547247,-0.00115525315295978));
#661=CARTESIAN_POINT('',(0.00531283642806438,0.000401023885328327,-0.0011553406563618));
#662=CARTESIAN_POINT('',(0.00531284284046951,0.000408753769109408,-0.00115542815976382));
#663=CARTESIAN_POINT('',(0.00531284925287464,0.000416483652890488,-0.00115551566316584));
#664=CARTESIAN_POINT('',(0.00531479150789285,0.000439526944914253,0.000955578884349987));
#665=CARTESIAN_POINT('',(0.00531485438548995,0.000432553946827387,0.000955799019925129));
#666=CARTESIAN_POINT('',(0.00531490237287647,0.000425567741211904,0.000955949216559673));
#667=CARTESIAN_POINT('',(0.00531766020986902,-0.00016427075039525,0.000962651848980338));
#668=CARTESIAN_POINT('',(0.005211075393331,-0.000672660847615544,0.000477133743771347));
#669=CARTESIAN_POINT('',(0.00520790000645342,-0.000686344495336317,-0.000655468015967261));
#670=CARTESIAN_POINT('',(0.00531450510875822,-0.000188306246859493,-0.00115118673853842));
#671=CARTESIAN_POINT('',(0.0053149838428783,0.000393263896750782,-0.00115776802904359));
#672=CARTESIAN_POINT('',(0.00531499022320276,0.000401014767350067,-0.00115785574113067));
#673=CARTESIAN_POINT('',(0.00531499660352723,0.000408765637949352,-0.00115794345321776));
#674=CARTESIAN_POINT('',(0.0053150029838517,0.000416516508548638,-0.00115803116530484));
#675=CARTESIAN_POINT('',(0.00531282991407157,0.000395590072287378,-0.00115527585659239));
#676=CARTESIAN_POINT('',(0.00531284385362591,0.000114496436715354,-0.00115238242330028));
#677=CARTESIAN_POINT('',(0.00526297418159739,-0.000427327022470271,-0.000919241123562988));
#678=CARTESIAN_POINT('',(0.00517915161183249,-0.000803450515207451,-9.71959463230122E-5));
#679=CARTESIAN_POINT('',(0.00526456444335918,-0.000418667816530342,0.00072664713801682));
#680=CARTESIAN_POINT('',(0.0053134119102098,0.000125546559857474,0.000953588984451933));
#681=CARTESIAN_POINT('',(0.00531281814200164,0.000406923526792584,0.000953576979965072));
#682=CARTESIAN_POINT('',(-0.000187169612173693,0.000395317324944244,0.00240380977840005));
#683=CARTESIAN_POINT('',(-0.000187169612173693,0.000395317324944244,0.00240380977837057));
#684=CARTESIAN_POINT('',(0.00531283038782631,0.000395317324944244,0.00240380977837057));
#685=CARTESIAN_POINT('',(-0.000187169612173693,0.000395317324944244,-0.00329619022162942));
#686=MECHANICAL_DESIGN_GEOMETRIC_PRESENTATION_REPRESENTATION('',(#336),
#688);
#687=MECHANICAL_DESIGN_GEOMETRIC_PRESENTATION_REPRESENTATION('',(#337),
#689);
#688=(
GEOMETRIC_REPRESENTATION_CONTEXT(3)
GLOBAL_UNCERTAINTY_ASSIGNED_CONTEXT((#690))
GLOBAL_UNIT_ASSIGNED_CONTEXT((#696,#694,#692))
REPRESENTATION_CONTEXT('Screw 6-32 Set screw-1-solid1',
'TOP_LEVEL_ASSEMBLY_PART')
);
#689=(
GEOMETRIC_REPRESENTATION_CONTEXT(3)
GLOBAL_UNCERTAINTY_ASSIGNED_CONTEXT((#691))
GLOBAL_UNIT_ASSIGNED_CONTEXT((#697,#695,#693))
REPRESENTATION_CONTEXT('Axle set collar-1-solid1',
'TOP_LEVEL_ASSEMBLY_PART')
);
#690=UNCERTAINTY_MEASURE_WITH_UNIT(LENGTH_MEASURE(1.E-8),#696,
'DISTANCE_ACCURACY_VALUE','Maximum Tolerance applied to model');
#691=UNCERTAINTY_MEASURE_WITH_UNIT(LENGTH_MEASURE(2.E-5),#697,
'DISTANCE_ACCURACY_VALUE','Maximum Tolerance applied to model');
#692=(
NAMED_UNIT(*)
SI_UNIT($,.STERADIAN.)
SOLID_ANGLE_UNIT()
);
#693=(
NAMED_UNIT(*)
SI_UNIT($,.STERADIAN.)
SOLID_ANGLE_UNIT()
);
#694=(
NAMED_UNIT(*)
PLANE_ANGLE_UNIT()
SI_UNIT($,.RADIAN.)
);
#695=(
NAMED_UNIT(*)
PLANE_ANGLE_UNIT()
SI_UNIT($,.RADIAN.)
);
#696=(
LENGTH_UNIT()
NAMED_UNIT(*)
SI_UNIT($,.METRE.)
);
#697=(
LENGTH_UNIT()
NAMED_UNIT(*)
SI_UNIT($,.METRE.)
);
#698=PRODUCT_DEFINITION_SHAPE('','',#700);
#699=PRODUCT_DEFINITION_SHAPE('','',#701);
#700=PRODUCT_DEFINITION('','',#704,#702);
#701=PRODUCT_DEFINITION('','',#705,#703);
#702=PRODUCT_DEFINITION_CONTEXT('',#716,'design');
#703=PRODUCT_DEFINITION_CONTEXT('',#717,'design');
#704=PRODUCT_DEFINITION_FORMATION_WITH_SPECIFIED_SOURCE('','',#708,
 .NOT_KNOWN.);
#705=PRODUCT_DEFINITION_FORMATION_WITH_SPECIFIED_SOURCE('','',#709,
 .NOT_KNOWN.);
#706=PRODUCT_RELATED_PRODUCT_CATEGORY('','',(#708));
#707=PRODUCT_RELATED_PRODUCT_CATEGORY('','',(#709));
#708=PRODUCT('Screw 6-32 Set screw-1-solid1',
'Screw 6-32 Set screw-1-solid1','Screw 6-32 Set screw-1-solid1',(#712));
#709=PRODUCT('Axle set collar-1-solid1','Axle set collar-1-solid1',
'Axle set collar-1-solid1',(#713));
#710=PRODUCT_CATEGORY('','');
#711=PRODUCT_CATEGORY('','');
#712=PRODUCT_CONTEXT('',#716,'mechanical');
#713=PRODUCT_CONTEXT('',#717,'mechanical');
#714=APPLICATION_PROTOCOL_DEFINITION('international standard',
'ap242_managed_model_based_3d_engineering',2020,#716);
#715=APPLICATION_PROTOCOL_DEFINITION('international standard',
'ap242_managed_model_based_3d_engineering',2020,#717);
#716=APPLICATION_CONTEXT('managed model based 3d engineering');
#717=APPLICATION_CONTEXT('managed model based 3d engineering');
ENDSEC;
END-ISO-10303-21;
