ISO-10303-21;
HEADER;
/* Generated by software containing ST-Developer
 * from STEP Tools, Inc. (www.steptools.com) 
 */
/* OPTION: using custom renumber hook */

FILE_DESCRIPTION(
/* description */ ('STEP AP242 Edition 2',
'CAx-IF Rec.Pracs.---Representation and Presentation of Product Manufa
cturing Information (PMI)---4.0---2014-10-13',
'CAx-IF Rec.Pracs.---3D Tessellated Geometry---0.4---2014-09-14','2;1',
'CAx-IF Rec.Pracs.---User Defined Attributes---1.5---2016-08-15'),
/* implementation_level */ '2;1');

FILE_NAME(
/* name */ 'Tetrix 4 inch Wheel(2) - WHEEL 4',
/* time_stamp */ '2026-05-11T00:22:49Z',
/* author */ (''),
/* organization */ (''),
/* preprocessor_version */ 'ST-DEVELOPER v20',
/* originating_system */ 'ONSHAPE BY PTC INC, 1.214',
/* authorisation */ '  ');

FILE_SCHEMA (('AP242_MANAGED_MODEL_BASED_3D_ENGINEERING_MIM_LF { 1 0 10303 442 3 1 4 }'));
ENDSEC;

DATA;
#10=SHAPE_REPRESENTATION_RELATIONSHIP('','',#388,#11);
#11=ADVANCED_BREP_SHAPE_REPRESENTATION('',(#386),#671);
#12=ORIENTED_CLOSED_SHELL('',*,#370,.F.);
#13=CONICAL_SURFACE('',#444,0.0444547996697645,0.000227666720705138);
#14=B_SPLINE_CURVE_WITH_KNOTS('',3,(#645,#646,#647,#648,#649,#650,#651,
#652,#653,#654,#655),.UNSPECIFIED.,.F.,.F.,(4,1,1,1,1,1,1,1,4),(0.,0.125,
0.25,0.375,0.5,0.625,0.75,0.875,1.),.UNSPECIFIED.);
#15=B_SPLINE_CURVE_WITH_KNOTS('',3,(#658,#659,#660,#661,#662,#663,#664,
#665,#666,#667,#668),.UNSPECIFIED.,.F.,.F.,(4,1,1,1,1,1,1,1,4),(0.,0.125,
0.25,0.375,0.5,0.625,0.75,0.875,1.),.UNSPECIFIED.);
#16=DEGENERATE_TOROIDAL_SURFACE('',#395,0.0145789335348128,0.03422,.T.);
#17=OVER_RIDING_STYLED_ITEM('',(#373),#349,#371);
#18=CYLINDRICAL_SURFACE('',#393,0.03937);
#19=CYLINDRICAL_SURFACE('',#413,0.004);
#20=CYLINDRICAL_SURFACE('',#415,0.004);
#21=CYLINDRICAL_SURFACE('',#417,0.004);
#22=CYLINDRICAL_SURFACE('',#419,0.004);
#23=CYLINDRICAL_SURFACE('',#421,0.004);
#24=CYLINDRICAL_SURFACE('',#423,0.004);
#25=CYLINDRICAL_SURFACE('',#425,0.004);
#26=CYLINDRICAL_SURFACE('',#427,0.004);
#27=CYLINDRICAL_SURFACE('',#429,0.00175);
#28=CYLINDRICAL_SURFACE('',#431,0.00175);
#29=CYLINDRICAL_SURFACE('',#433,0.00175);
#30=CYLINDRICAL_SURFACE('',#435,0.00175);
#31=CYLINDRICAL_SURFACE('',#437,0.004);
#32=CYLINDRICAL_SURFACE('',#439,0.03937);
#33=CYLINDRICAL_SURFACE('',#442,0.04445);
#34=ORIENTED_EDGE('',*,*,#104,.F.);
#35=ORIENTED_EDGE('',*,*,#105,.T.);
#36=ORIENTED_EDGE('',*,*,#105,.F.);
#37=ORIENTED_EDGE('',*,*,#106,.F.);
#38=ORIENTED_EDGE('',*,*,#107,.F.);
#39=ORIENTED_EDGE('',*,*,#104,.T.);
#40=ORIENTED_EDGE('',*,*,#106,.T.);
#41=ORIENTED_EDGE('',*,*,#108,.T.);
#42=ORIENTED_EDGE('',*,*,#109,.T.);
#43=ORIENTED_EDGE('',*,*,#110,.T.);
#44=ORIENTED_EDGE('',*,*,#111,.T.);
#45=ORIENTED_EDGE('',*,*,#112,.T.);
#46=ORIENTED_EDGE('',*,*,#113,.T.);
#47=ORIENTED_EDGE('',*,*,#114,.T.);
#48=ORIENTED_EDGE('',*,*,#115,.T.);
#49=ORIENTED_EDGE('',*,*,#116,.T.);
#50=ORIENTED_EDGE('',*,*,#117,.T.);
#51=ORIENTED_EDGE('',*,*,#118,.T.);
#52=ORIENTED_EDGE('',*,*,#119,.T.);
#53=ORIENTED_EDGE('',*,*,#120,.T.);
#54=ORIENTED_EDGE('',*,*,#107,.T.);
#55=ORIENTED_EDGE('',*,*,#121,.T.);
#56=ORIENTED_EDGE('',*,*,#122,.F.);
#57=ORIENTED_EDGE('',*,*,#120,.F.);
#58=ORIENTED_EDGE('',*,*,#123,.F.);
#59=ORIENTED_EDGE('',*,*,#119,.F.);
#60=ORIENTED_EDGE('',*,*,#124,.F.);
#61=ORIENTED_EDGE('',*,*,#118,.F.);
#62=ORIENTED_EDGE('',*,*,#125,.F.);
#63=ORIENTED_EDGE('',*,*,#117,.F.);
#64=ORIENTED_EDGE('',*,*,#126,.F.);
#65=ORIENTED_EDGE('',*,*,#116,.F.);
#66=ORIENTED_EDGE('',*,*,#127,.F.);
#67=ORIENTED_EDGE('',*,*,#115,.F.);
#68=ORIENTED_EDGE('',*,*,#128,.F.);
#69=ORIENTED_EDGE('',*,*,#114,.F.);
#70=ORIENTED_EDGE('',*,*,#129,.F.);
#71=ORIENTED_EDGE('',*,*,#113,.F.);
#72=ORIENTED_EDGE('',*,*,#130,.F.);
#73=ORIENTED_EDGE('',*,*,#112,.F.);
#74=ORIENTED_EDGE('',*,*,#131,.F.);
#75=ORIENTED_EDGE('',*,*,#111,.F.);
#76=ORIENTED_EDGE('',*,*,#132,.F.);
#77=ORIENTED_EDGE('',*,*,#110,.F.);
#78=ORIENTED_EDGE('',*,*,#133,.F.);
#79=ORIENTED_EDGE('',*,*,#109,.F.);
#80=ORIENTED_EDGE('',*,*,#134,.F.);
#81=ORIENTED_EDGE('',*,*,#108,.F.);
#82=ORIENTED_EDGE('',*,*,#121,.F.);
#83=ORIENTED_EDGE('',*,*,#135,.F.);
#84=ORIENTED_EDGE('',*,*,#135,.T.);
#85=ORIENTED_EDGE('',*,*,#134,.T.);
#86=ORIENTED_EDGE('',*,*,#133,.T.);
#87=ORIENTED_EDGE('',*,*,#132,.T.);
#88=ORIENTED_EDGE('',*,*,#131,.T.);
#89=ORIENTED_EDGE('',*,*,#130,.T.);
#90=ORIENTED_EDGE('',*,*,#129,.T.);
#91=ORIENTED_EDGE('',*,*,#128,.T.);
#92=ORIENTED_EDGE('',*,*,#127,.T.);
#93=ORIENTED_EDGE('',*,*,#126,.T.);
#94=ORIENTED_EDGE('',*,*,#125,.T.);
#95=ORIENTED_EDGE('',*,*,#124,.T.);
#96=ORIENTED_EDGE('',*,*,#123,.T.);
#97=ORIENTED_EDGE('',*,*,#122,.T.);
#98=ORIENTED_EDGE('',*,*,#136,.T.);
#99=ORIENTED_EDGE('',*,*,#137,.T.);
#100=ORIENTED_EDGE('',*,*,#138,.T.);
#101=ORIENTED_EDGE('',*,*,#138,.F.);
#102=ORIENTED_EDGE('',*,*,#137,.F.);
#103=ORIENTED_EDGE('',*,*,#136,.F.);
#104=EDGE_CURVE('',#139,#139,#174,.F.);
#105=EDGE_CURVE('',#140,#140,#175,.F.);
#106=EDGE_CURVE('',#141,#141,#176,.T.);
#107=EDGE_CURVE('',#142,#142,#177,.F.);
#108=EDGE_CURVE('',#143,#143,#178,.T.);
#109=EDGE_CURVE('',#144,#144,#179,.T.);
#110=EDGE_CURVE('',#145,#145,#180,.T.);
#111=EDGE_CURVE('',#146,#146,#181,.T.);
#112=EDGE_CURVE('',#147,#147,#182,.T.);
#113=EDGE_CURVE('',#148,#148,#183,.T.);
#114=EDGE_CURVE('',#149,#149,#184,.T.);
#115=EDGE_CURVE('',#150,#150,#185,.T.);
#116=EDGE_CURVE('',#151,#151,#186,.T.);
#117=EDGE_CURVE('',#152,#152,#187,.T.);
#118=EDGE_CURVE('',#153,#153,#188,.T.);
#119=EDGE_CURVE('',#154,#154,#189,.T.);
#120=EDGE_CURVE('',#155,#155,#190,.T.);
#121=EDGE_CURVE('',#156,#156,#191,.F.);
#122=EDGE_CURVE('',#157,#157,#192,.F.);
#123=EDGE_CURVE('',#158,#158,#193,.F.);
#124=EDGE_CURVE('',#159,#159,#194,.F.);
#125=EDGE_CURVE('',#160,#160,#195,.F.);
#126=EDGE_CURVE('',#161,#161,#196,.F.);
#127=EDGE_CURVE('',#162,#162,#197,.F.);
#128=EDGE_CURVE('',#163,#163,#198,.F.);
#129=EDGE_CURVE('',#164,#164,#199,.F.);
#130=EDGE_CURVE('',#165,#165,#200,.F.);
#131=EDGE_CURVE('',#166,#166,#201,.F.);
#132=EDGE_CURVE('',#167,#167,#202,.F.);
#133=EDGE_CURVE('',#168,#168,#203,.F.);
#134=EDGE_CURVE('',#169,#169,#204,.F.);
#135=EDGE_CURVE('',#170,#170,#205,.T.);
#136=EDGE_CURVE('',#171,#171,#206,.T.);
#137=EDGE_CURVE('',#172,#173,#14,.F.);
#138=EDGE_CURVE('',#173,#172,#15,.F.);
#139=VERTEX_POINT('',#560);
#140=VERTEX_POINT('',#562);
#141=VERTEX_POINT('',#565);
#142=VERTEX_POINT('',#568);
#143=VERTEX_POINT('',#571);
#144=VERTEX_POINT('',#573);
#145=VERTEX_POINT('',#575);
#146=VERTEX_POINT('',#577);
#147=VERTEX_POINT('',#579);
#148=VERTEX_POINT('',#581);
#149=VERTEX_POINT('',#583);
#150=VERTEX_POINT('',#585);
#151=VERTEX_POINT('',#587);
#152=VERTEX_POINT('',#589);
#153=VERTEX_POINT('',#591);
#154=VERTEX_POINT('',#593);
#155=VERTEX_POINT('',#595);
#156=VERTEX_POINT('',#598);
#157=VERTEX_POINT('',#601);
#158=VERTEX_POINT('',#604);
#159=VERTEX_POINT('',#607);
#160=VERTEX_POINT('',#610);
#161=VERTEX_POINT('',#613);
#162=VERTEX_POINT('',#616);
#163=VERTEX_POINT('',#619);
#164=VERTEX_POINT('',#622);
#165=VERTEX_POINT('',#625);
#166=VERTEX_POINT('',#628);
#167=VERTEX_POINT('',#631);
#168=VERTEX_POINT('',#634);
#169=VERTEX_POINT('',#637);
#170=VERTEX_POINT('',#640);
#171=VERTEX_POINT('',#644);
#172=VERTEX_POINT('',#656);
#173=VERTEX_POINT('',#657);
#174=CIRCLE('',#391,0.046355);
#175=CIRCLE('',#392,0.03937);
#176=CIRCLE('',#394,0.03937);
#177=CIRCLE('',#396,0.046355);
#178=CIRCLE('',#398,0.004);
#179=CIRCLE('',#399,0.00175);
#180=CIRCLE('',#400,0.00175);
#181=CIRCLE('',#401,0.00175);
#182=CIRCLE('',#402,0.00175);
#183=CIRCLE('',#403,0.004);
#184=CIRCLE('',#404,0.004);
#185=CIRCLE('',#405,0.004);
#186=CIRCLE('',#406,0.004);
#187=CIRCLE('',#407,0.004);
#188=CIRCLE('',#408,0.004);
#189=CIRCLE('',#409,0.004);
#190=CIRCLE('',#410,0.004);
#191=CIRCLE('',#412,0.03937);
#192=CIRCLE('',#414,0.004);
#193=CIRCLE('',#416,0.004);
#194=CIRCLE('',#418,0.004);
#195=CIRCLE('',#420,0.004);
#196=CIRCLE('',#422,0.004);
#197=CIRCLE('',#424,0.004);
#198=CIRCLE('',#426,0.004);
#199=CIRCLE('',#428,0.004);
#200=CIRCLE('',#430,0.00175);
#201=CIRCLE('',#432,0.00175);
#202=CIRCLE('',#434,0.00175);
#203=CIRCLE('',#436,0.00175);
#204=CIRCLE('',#438,0.004);
#205=CIRCLE('',#440,0.03937);
#206=CIRCLE('',#443,0.04445);
#207=EDGE_LOOP('',(#34));
#208=EDGE_LOOP('',(#35));
#209=EDGE_LOOP('',(#36));
#210=EDGE_LOOP('',(#37));
#211=EDGE_LOOP('',(#38));
#212=EDGE_LOOP('',(#39));
#213=EDGE_LOOP('',(#40));
#214=EDGE_LOOP('',(#41));
#215=EDGE_LOOP('',(#42));
#216=EDGE_LOOP('',(#43));
#217=EDGE_LOOP('',(#44));
#218=EDGE_LOOP('',(#45));
#219=EDGE_LOOP('',(#46));
#220=EDGE_LOOP('',(#47));
#221=EDGE_LOOP('',(#48));
#222=EDGE_LOOP('',(#49));
#223=EDGE_LOOP('',(#50));
#224=EDGE_LOOP('',(#51));
#225=EDGE_LOOP('',(#52));
#226=EDGE_LOOP('',(#53));
#227=EDGE_LOOP('',(#54));
#228=EDGE_LOOP('',(#55));
#229=EDGE_LOOP('',(#56));
#230=EDGE_LOOP('',(#57));
#231=EDGE_LOOP('',(#58));
#232=EDGE_LOOP('',(#59));
#233=EDGE_LOOP('',(#60));
#234=EDGE_LOOP('',(#61));
#235=EDGE_LOOP('',(#62));
#236=EDGE_LOOP('',(#63));
#237=EDGE_LOOP('',(#64));
#238=EDGE_LOOP('',(#65));
#239=EDGE_LOOP('',(#66));
#240=EDGE_LOOP('',(#67));
#241=EDGE_LOOP('',(#68));
#242=EDGE_LOOP('',(#69));
#243=EDGE_LOOP('',(#70));
#244=EDGE_LOOP('',(#71));
#245=EDGE_LOOP('',(#72));
#246=EDGE_LOOP('',(#73));
#247=EDGE_LOOP('',(#74));
#248=EDGE_LOOP('',(#75));
#249=EDGE_LOOP('',(#76));
#250=EDGE_LOOP('',(#77));
#251=EDGE_LOOP('',(#78));
#252=EDGE_LOOP('',(#79));
#253=EDGE_LOOP('',(#80));
#254=EDGE_LOOP('',(#81));
#255=EDGE_LOOP('',(#82));
#256=EDGE_LOOP('',(#83));
#257=EDGE_LOOP('',(#84));
#258=EDGE_LOOP('',(#85));
#259=EDGE_LOOP('',(#86));
#260=EDGE_LOOP('',(#87));
#261=EDGE_LOOP('',(#88));
#262=EDGE_LOOP('',(#89));
#263=EDGE_LOOP('',(#90));
#264=EDGE_LOOP('',(#91));
#265=EDGE_LOOP('',(#92));
#266=EDGE_LOOP('',(#93));
#267=EDGE_LOOP('',(#94));
#268=EDGE_LOOP('',(#95));
#269=EDGE_LOOP('',(#96));
#270=EDGE_LOOP('',(#97));
#271=EDGE_LOOP('',(#98));
#272=EDGE_LOOP('',(#99,#100));
#273=EDGE_LOOP('',(#101,#102));
#274=EDGE_LOOP('',(#103));
#275=FACE_BOUND('',#207,.T.);
#276=FACE_BOUND('',#208,.T.);
#277=FACE_BOUND('',#209,.T.);
#278=FACE_BOUND('',#210,.T.);
#279=FACE_BOUND('',#211,.T.);
#280=FACE_BOUND('',#212,.T.);
#281=FACE_BOUND('',#213,.T.);
#282=FACE_BOUND('',#214,.T.);
#283=FACE_BOUND('',#215,.T.);
#284=FACE_BOUND('',#216,.T.);
#285=FACE_BOUND('',#217,.T.);
#286=FACE_BOUND('',#218,.T.);
#287=FACE_BOUND('',#219,.T.);
#288=FACE_BOUND('',#220,.T.);
#289=FACE_BOUND('',#221,.T.);
#290=FACE_BOUND('',#222,.T.);
#291=FACE_BOUND('',#223,.T.);
#292=FACE_BOUND('',#224,.T.);
#293=FACE_BOUND('',#225,.T.);
#294=FACE_BOUND('',#226,.T.);
#295=FACE_BOUND('',#227,.T.);
#296=FACE_BOUND('',#228,.T.);
#297=FACE_BOUND('',#229,.T.);
#298=FACE_BOUND('',#230,.T.);
#299=FACE_BOUND('',#231,.T.);
#300=FACE_BOUND('',#232,.T.);
#301=FACE_BOUND('',#233,.T.);
#302=FACE_BOUND('',#234,.T.);
#303=FACE_BOUND('',#235,.T.);
#304=FACE_BOUND('',#236,.T.);
#305=FACE_BOUND('',#237,.T.);
#306=FACE_BOUND('',#238,.T.);
#307=FACE_BOUND('',#239,.T.);
#308=FACE_BOUND('',#240,.T.);
#309=FACE_BOUND('',#241,.T.);
#310=FACE_BOUND('',#242,.T.);
#311=FACE_BOUND('',#243,.T.);
#312=FACE_BOUND('',#244,.T.);
#313=FACE_BOUND('',#245,.T.);
#314=FACE_BOUND('',#246,.T.);
#315=FACE_BOUND('',#247,.T.);
#316=FACE_BOUND('',#248,.T.);
#317=FACE_BOUND('',#249,.T.);
#318=FACE_BOUND('',#250,.T.);
#319=FACE_BOUND('',#251,.T.);
#320=FACE_BOUND('',#252,.T.);
#321=FACE_BOUND('',#253,.T.);
#322=FACE_BOUND('',#254,.T.);
#323=FACE_BOUND('',#255,.T.);
#324=FACE_BOUND('',#256,.T.);
#325=FACE_BOUND('',#257,.T.);
#326=FACE_BOUND('',#258,.T.);
#327=FACE_BOUND('',#259,.T.);
#328=FACE_BOUND('',#260,.T.);
#329=FACE_BOUND('',#261,.T.);
#330=FACE_BOUND('',#262,.T.);
#331=FACE_BOUND('',#263,.T.);
#332=FACE_BOUND('',#264,.T.);
#333=FACE_BOUND('',#265,.T.);
#334=FACE_BOUND('',#266,.T.);
#335=FACE_BOUND('',#267,.T.);
#336=FACE_BOUND('',#268,.T.);
#337=FACE_BOUND('',#269,.T.);
#338=FACE_BOUND('',#270,.T.);
#339=FACE_BOUND('',#271,.T.);
#340=FACE_BOUND('',#272,.T.);
#341=FACE_BOUND('',#273,.T.);
#342=FACE_BOUND('',#274,.T.);
#343=PLANE('',#390);
#344=PLANE('',#397);
#345=PLANE('',#411);
#346=PLANE('',#441);
#347=ADVANCED_FACE('NONE',(#275,#276),#343,.T.);
#348=ADVANCED_FACE('',(#277,#278),#18,.F.);
#349=ADVANCED_FACE('',(#279,#280),#16,.T.);
#350=ADVANCED_FACE('',(#281,#282,#283,#284,#285,#286,#287,#288,#289,#290,
#291,#292,#293,#294),#344,.T.);
#351=ADVANCED_FACE('',(#295,#296),#345,.T.);
#352=ADVANCED_FACE('',(#297,#298),#19,.F.);
#353=ADVANCED_FACE('',(#299,#300),#20,.F.);
#354=ADVANCED_FACE('',(#301,#302),#21,.F.);
#355=ADVANCED_FACE('',(#303,#304),#22,.F.);
#356=ADVANCED_FACE('',(#305,#306),#23,.F.);
#357=ADVANCED_FACE('',(#307,#308),#24,.F.);
#358=ADVANCED_FACE('',(#309,#310),#25,.F.);
#359=ADVANCED_FACE('',(#311,#312),#26,.F.);
#360=ADVANCED_FACE('',(#313,#314),#27,.F.);
#361=ADVANCED_FACE('',(#315,#316),#28,.F.);
#362=ADVANCED_FACE('',(#317,#318),#29,.F.);
#363=ADVANCED_FACE('',(#319,#320),#30,.F.);
#364=ADVANCED_FACE('',(#321,#322),#31,.F.);
#365=ADVANCED_FACE('',(#323,#324),#32,.F.);
#366=ADVANCED_FACE('',(#325,#326,#327,#328,#329,#330,#331,#332,#333,#334,
#335,#336,#337,#338),#346,.T.);
#367=ADVANCED_FACE('',(#339,#340),#33,.T.);
#368=ADVANCED_FACE('',(#341,#342),#13,.F.);
#369=CLOSED_SHELL('',(#347,#348,#349,#350,#351,#352,#353,#354,#355,#356,
#357,#358,#359,#360,#361,#362,#363,#364,#365,#366));
#370=CLOSED_SHELL('',(#367,#368));
#371=STYLED_ITEM('',(#372),#386);
#372=PRESENTATION_STYLE_ASSIGNMENT((#374));
#373=PRESENTATION_STYLE_ASSIGNMENT((#375));
#374=SURFACE_STYLE_USAGE(.BOTH.,#376);
#375=SURFACE_STYLE_USAGE(.BOTH.,#377);
#376=SURFACE_SIDE_STYLE('',(#378));
#377=SURFACE_SIDE_STYLE('',(#379));
#378=SURFACE_STYLE_FILL_AREA(#380);
#379=SURFACE_STYLE_FILL_AREA(#381);
#380=FILL_AREA_STYLE('',(#382));
#381=FILL_AREA_STYLE('',(#383));
#382=FILL_AREA_STYLE_COLOUR('',#384);
#383=FILL_AREA_STYLE_COLOUR('',#385);
#384=DRAUGHTING_PRE_DEFINED_COLOUR('white');
#385=DRAUGHTING_PRE_DEFINED_COLOUR('black');
#386=BREP_WITH_VOIDS('WHEEL 4',#369,(#12));
#387=SHAPE_DEFINITION_REPRESENTATION(#676,#388);
#388=SHAPE_REPRESENTATION('WHEEL 4',(#389),#671);
#389=AXIS2_PLACEMENT_3D('',#557,#445,#446);
#390=AXIS2_PLACEMENT_3D('',#558,#447,#448);
#391=AXIS2_PLACEMENT_3D('',#559,#449,#450);
#392=AXIS2_PLACEMENT_3D('',#561,#451,#452);
#393=AXIS2_PLACEMENT_3D('',#563,#453,#454);
#394=AXIS2_PLACEMENT_3D('',#564,#455,#456);
#395=AXIS2_PLACEMENT_3D('',#566,#457,#458);
#396=AXIS2_PLACEMENT_3D('',#567,#459,#460);
#397=AXIS2_PLACEMENT_3D('',#569,#461,#462);
#398=AXIS2_PLACEMENT_3D('',#570,#463,#464);
#399=AXIS2_PLACEMENT_3D('',#572,#465,#466);
#400=AXIS2_PLACEMENT_3D('',#574,#467,#468);
#401=AXIS2_PLACEMENT_3D('',#576,#469,#470);
#402=AXIS2_PLACEMENT_3D('',#578,#471,#472);
#403=AXIS2_PLACEMENT_3D('',#580,#473,#474);
#404=AXIS2_PLACEMENT_3D('',#582,#475,#476);
#405=AXIS2_PLACEMENT_3D('',#584,#477,#478);
#406=AXIS2_PLACEMENT_3D('',#586,#479,#480);
#407=AXIS2_PLACEMENT_3D('',#588,#481,#482);
#408=AXIS2_PLACEMENT_3D('',#590,#483,#484);
#409=AXIS2_PLACEMENT_3D('',#592,#485,#486);
#410=AXIS2_PLACEMENT_3D('',#594,#487,#488);
#411=AXIS2_PLACEMENT_3D('',#596,#489,#490);
#412=AXIS2_PLACEMENT_3D('',#597,#491,#492);
#413=AXIS2_PLACEMENT_3D('',#599,#493,#494);
#414=AXIS2_PLACEMENT_3D('',#600,#495,#496);
#415=AXIS2_PLACEMENT_3D('',#602,#497,#498);
#416=AXIS2_PLACEMENT_3D('',#603,#499,#500);
#417=AXIS2_PLACEMENT_3D('',#605,#501,#502);
#418=AXIS2_PLACEMENT_3D('',#606,#503,#504);
#419=AXIS2_PLACEMENT_3D('',#608,#505,#506);
#420=AXIS2_PLACEMENT_3D('',#609,#507,#508);
#421=AXIS2_PLACEMENT_3D('',#611,#509,#510);
#422=AXIS2_PLACEMENT_3D('',#612,#511,#512);
#423=AXIS2_PLACEMENT_3D('',#614,#513,#514);
#424=AXIS2_PLACEMENT_3D('',#615,#515,#516);
#425=AXIS2_PLACEMENT_3D('',#617,#517,#518);
#426=AXIS2_PLACEMENT_3D('',#618,#519,#520);
#427=AXIS2_PLACEMENT_3D('',#620,#521,#522);
#428=AXIS2_PLACEMENT_3D('',#621,#523,#524);
#429=AXIS2_PLACEMENT_3D('',#623,#525,#526);
#430=AXIS2_PLACEMENT_3D('',#624,#527,#528);
#431=AXIS2_PLACEMENT_3D('',#626,#529,#530);
#432=AXIS2_PLACEMENT_3D('',#627,#531,#532);
#433=AXIS2_PLACEMENT_3D('',#629,#533,#534);
#434=AXIS2_PLACEMENT_3D('',#630,#535,#536);
#435=AXIS2_PLACEMENT_3D('',#632,#537,#538);
#436=AXIS2_PLACEMENT_3D('',#633,#539,#540);
#437=AXIS2_PLACEMENT_3D('',#635,#541,#542);
#438=AXIS2_PLACEMENT_3D('',#636,#543,#544);
#439=AXIS2_PLACEMENT_3D('',#638,#545,#546);
#440=AXIS2_PLACEMENT_3D('',#639,#547,#548);
#441=AXIS2_PLACEMENT_3D('',#641,#549,#550);
#442=AXIS2_PLACEMENT_3D('',#642,#551,#552);
#443=AXIS2_PLACEMENT_3D('',#643,#553,#554);
#444=AXIS2_PLACEMENT_3D('',#669,#555,#556);
#445=DIRECTION('',(0.,0.,1.));
#446=DIRECTION('',(1.,0.,0.));
#447=DIRECTION('',(0.,0.,-1.));
#448=DIRECTION('',(-1.,0.,0.));
#449=DIRECTION('',(0.,0.,-1.));
#450=DIRECTION('',(-1.,0.,0.));
#451=DIRECTION('',(0.,0.,-1.));
#452=DIRECTION('',(-1.,0.,0.));
#453=DIRECTION('',(0.,0.,-1.));
#454=DIRECTION('',(-1.,0.,0.));
#455=DIRECTION('',(0.,0.,-1.));
#456=DIRECTION('',(-1.,0.,0.));
#457=DIRECTION('',(0.,0.,-1.));
#458=DIRECTION('',(1.,0.,0.));
#459=DIRECTION('',(0.,0.,-1.));
#460=DIRECTION('',(-1.,0.,0.));
#461=DIRECTION('',(0.,0.,-1.));
#462=DIRECTION('',(-1.,0.,0.));
#463=DIRECTION('',(0.,0.,1.));
#464=DIRECTION('',(1.,0.,0.));
#465=DIRECTION('',(0.,0.,1.));
#466=DIRECTION('',(1.,0.,0.));
#467=DIRECTION('',(0.,0.,1.));
#468=DIRECTION('',(1.,0.,0.));
#469=DIRECTION('',(0.,0.,1.));
#470=DIRECTION('',(1.,0.,0.));
#471=DIRECTION('',(0.,0.,1.));
#472=DIRECTION('',(1.,0.,0.));
#473=DIRECTION('',(0.,0.,1.));
#474=DIRECTION('',(1.,0.,0.));
#475=DIRECTION('',(0.,0.,1.));
#476=DIRECTION('',(1.,0.,0.));
#477=DIRECTION('',(0.,0.,1.));
#478=DIRECTION('',(1.,0.,0.));
#479=DIRECTION('',(0.,0.,1.));
#480=DIRECTION('',(1.,0.,0.));
#481=DIRECTION('',(0.,0.,1.));
#482=DIRECTION('',(1.,0.,0.));
#483=DIRECTION('',(0.,0.,1.));
#484=DIRECTION('',(1.,0.,0.));
#485=DIRECTION('',(0.,0.,1.));
#486=DIRECTION('',(1.,0.,0.));
#487=DIRECTION('',(0.,0.,1.));
#488=DIRECTION('',(1.,0.,0.));
#489=DIRECTION('',(0.,0.,1.));
#490=DIRECTION('',(1.,0.,0.));
#491=DIRECTION('',(0.,0.,1.));
#492=DIRECTION('',(1.,0.,0.));
#493=DIRECTION('',(0.,0.,1.));
#494=DIRECTION('',(1.,0.,0.));
#495=DIRECTION('',(0.,0.,1.));
#496=DIRECTION('',(1.,0.,0.));
#497=DIRECTION('',(0.,0.,1.));
#498=DIRECTION('',(1.,0.,0.));
#499=DIRECTION('',(0.,0.,1.));
#500=DIRECTION('',(1.,0.,0.));
#501=DIRECTION('',(0.,0.,1.));
#502=DIRECTION('',(1.,0.,0.));
#503=DIRECTION('',(0.,0.,1.));
#504=DIRECTION('',(1.,0.,0.));
#505=DIRECTION('',(0.,0.,1.));
#506=DIRECTION('',(1.,0.,0.));
#507=DIRECTION('',(0.,0.,1.));
#508=DIRECTION('',(1.,0.,0.));
#509=DIRECTION('',(0.,0.,1.));
#510=DIRECTION('',(1.,0.,0.));
#511=DIRECTION('',(0.,0.,1.));
#512=DIRECTION('',(1.,0.,0.));
#513=DIRECTION('',(0.,0.,1.));
#514=DIRECTION('',(1.,0.,0.));
#515=DIRECTION('',(0.,0.,1.));
#516=DIRECTION('',(1.,0.,0.));
#517=DIRECTION('',(0.,0.,1.));
#518=DIRECTION('',(1.,0.,0.));
#519=DIRECTION('',(0.,0.,1.));
#520=DIRECTION('',(1.,0.,0.));
#521=DIRECTION('',(0.,0.,1.));
#522=DIRECTION('',(1.,0.,0.));
#523=DIRECTION('',(0.,0.,1.));
#524=DIRECTION('',(1.,0.,0.));
#525=DIRECTION('',(0.,0.,1.));
#526=DIRECTION('',(1.,0.,0.));
#527=DIRECTION('',(0.,0.,1.));
#528=DIRECTION('',(1.,0.,0.));
#529=DIRECTION('',(0.,0.,1.));
#530=DIRECTION('',(1.,0.,0.));
#531=DIRECTION('',(0.,0.,1.));
#532=DIRECTION('',(1.,0.,0.));
#533=DIRECTION('',(0.,0.,1.));
#534=DIRECTION('',(1.,0.,0.));
#535=DIRECTION('',(0.,0.,1.));
#536=DIRECTION('',(1.,0.,0.));
#537=DIRECTION('',(0.,0.,1.));
#538=DIRECTION('',(1.,0.,0.));
#539=DIRECTION('',(0.,0.,1.));
#540=DIRECTION('',(1.,0.,0.));
#541=DIRECTION('',(0.,0.,1.));
#542=DIRECTION('',(1.,0.,0.));
#543=DIRECTION('',(0.,0.,1.));
#544=DIRECTION('',(1.,0.,0.));
#545=DIRECTION('',(0.,0.,1.));
#546=DIRECTION('',(1.,0.,0.));
#547=DIRECTION('',(0.,0.,1.));
#548=DIRECTION('',(1.,0.,0.));
#549=DIRECTION('',(0.,0.,1.));
#550=DIRECTION('',(1.,0.,0.));
#551=DIRECTION('',(0.,0.,1.));
#552=DIRECTION('',(1.,0.,0.));
#553=DIRECTION('',(0.,0.,1.));
#554=DIRECTION('',(1.,0.,2.75819081360317E-13));
#555=DIRECTION('',(0.,0.,1.));
#556=DIRECTION('',(1.,0.,0.));
#557=CARTESIAN_POINT('',(0.,0.,0.));
#558=CARTESIAN_POINT('',(-0.0252639135472918,0.0119697290917884,-0.007500634435137));
#559=CARTESIAN_POINT('',(-0.0252639135472918,0.0119697290917884,-0.007500634435137));
#560=CARTESIAN_POINT('',(-0.0716189135472918,0.0119697290917884,-0.007500634435137));
#561=CARTESIAN_POINT('',(-0.0252639135472918,0.0119697290917884,-0.007500634435137));
#562=CARTESIAN_POINT('',(-0.0646339135472918,0.0119697290917884,-0.007500634435137));
#563=CARTESIAN_POINT('',(-0.0252639135472918,0.0119697290917884,0.002024365564863));
#564=CARTESIAN_POINT('',(-0.0252639135472918,0.0119697290917884,0.002024365564863));
#565=CARTESIAN_POINT('',(-0.0646339135472918,0.0119697290917884,0.002024365564863));
#566=CARTESIAN_POINT('',(-0.0252639135472918,0.0119697290917884,0.00519936556486302));
#567=CARTESIAN_POINT('',(-0.0252639135472918,0.0119697290917884,0.017899365564863));
#568=CARTESIAN_POINT('',(-0.0716189135472918,0.0119697290917884,0.017899365564863));
#569=CARTESIAN_POINT('',(-0.0252639135472918,0.0119697290917884,0.002024365564863));
#570=CARTESIAN_POINT('',(-0.0252639135472918,0.0119697290917884,0.002024365564863));
#571=CARTESIAN_POINT('',(-0.0212639135472918,0.0119697290917884,0.002024365564863));
#572=CARTESIAN_POINT('',(-0.0252639135472918,0.0199697290917884,0.002024365564863));
#573=CARTESIAN_POINT('',(-0.0235139135472918,0.0199697290917884,0.002024365564863));
#574=CARTESIAN_POINT('',(-0.0172639135472918,0.0119697290917884,0.002024365564863));
#575=CARTESIAN_POINT('',(-0.0155139135472918,0.0119697290917884,0.002024365564863));
#576=CARTESIAN_POINT('',(-0.0252639135472918,0.00396972909178839,0.002024365564863));
#577=CARTESIAN_POINT('',(-0.0235139135472918,0.00396972909178839,0.002024365564863));
#578=CARTESIAN_POINT('',(-0.0332639135472918,0.0119697290917884,0.002024365564863));
#579=CARTESIAN_POINT('',(-0.0315139135472918,0.0119697290917884,0.002024365564863));
#580=CARTESIAN_POINT('',(-0.0252639135472918,0.0359697290917884,0.002024365564863));
#581=CARTESIAN_POINT('',(-0.0212639135472918,0.0359697290917884,0.002024365564863));
#582=CARTESIAN_POINT('',(-0.00126391354729185,0.0119697290917884,0.002024365564863));
#583=CARTESIAN_POINT('',(0.00273608645270815,0.0119697290917884,0.002024365564863));
#584=CARTESIAN_POINT('',(-0.0252639135472918,-0.0120302709082116,0.002024365564863));
#585=CARTESIAN_POINT('',(-0.0212639135472918,-0.0120302709082116,0.002024365564863));
#586=CARTESIAN_POINT('',(-0.0492639135472919,0.0119697290917884,0.002024365564863));
#587=CARTESIAN_POINT('',(-0.0452639135472919,0.0119697290917884,0.002024365564863));
#588=CARTESIAN_POINT('',(-0.00829335079881471,0.0289402918402655,0.002024365564863));
#589=CARTESIAN_POINT('',(-0.00429335079881471,0.0289402918402655,0.002024365564863));
#590=CARTESIAN_POINT('',(-0.00829335079881471,-0.00500083365668874,0.002024365564863));
#591=CARTESIAN_POINT('',(-0.00429335079881471,-0.00500083365668874,0.002024365564863));
#592=CARTESIAN_POINT('',(-0.042234476295769,-0.00500083365668874,0.002024365564863));
#593=CARTESIAN_POINT('',(-0.038234476295769,-0.00500083365668874,0.002024365564863));
#594=CARTESIAN_POINT('',(-0.042234476295769,0.0289402918402655,0.002024365564863));
#595=CARTESIAN_POINT('',(-0.038234476295769,0.0289402918402655,0.002024365564863));
#596=CARTESIAN_POINT('',(-0.0252639135472918,0.0119697290917884,0.017899365564863));
#597=CARTESIAN_POINT('',(-0.0252639135472918,0.0119697290917884,0.017899365564863));
#598=CARTESIAN_POINT('',(0.0141060864527082,0.0119697290917884,0.017899365564863));
#599=CARTESIAN_POINT('',(-0.042234476295769,0.0289402918402655,-0.00750063443513699));
#600=CARTESIAN_POINT('',(-0.042234476295769,0.0289402918402655,0.00837436556486301));
#601=CARTESIAN_POINT('',(-0.038234476295769,0.0289402918402655,0.00837436556486301));
#602=CARTESIAN_POINT('',(-0.042234476295769,-0.00500083365668874,-0.00750063443513699));
#603=CARTESIAN_POINT('',(-0.042234476295769,-0.00500083365668874,0.00837436556486301));
#604=CARTESIAN_POINT('',(-0.038234476295769,-0.00500083365668874,0.00837436556486301));
#605=CARTESIAN_POINT('',(-0.00829335079881471,-0.00500083365668874,-0.00750063443513699));
#606=CARTESIAN_POINT('',(-0.00829335079881471,-0.00500083365668874,0.00837436556486301));
#607=CARTESIAN_POINT('',(-0.00429335079881471,-0.00500083365668874,0.00837436556486301));
#608=CARTESIAN_POINT('',(-0.00829335079881471,0.0289402918402655,-0.00750063443513699));
#609=CARTESIAN_POINT('',(-0.00829335079881471,0.0289402918402655,0.00837436556486301));
#610=CARTESIAN_POINT('',(-0.00429335079881471,0.0289402918402655,0.00837436556486301));
#611=CARTESIAN_POINT('',(-0.0492639135472919,0.0119697290917884,-0.00750063443513699));
#612=CARTESIAN_POINT('',(-0.0492639135472919,0.0119697290917884,0.00837436556486301));
#613=CARTESIAN_POINT('',(-0.0452639135472919,0.0119697290917884,0.00837436556486301));
#614=CARTESIAN_POINT('',(-0.0252639135472918,-0.0120302709082116,-0.00750063443513699));
#615=CARTESIAN_POINT('',(-0.0252639135472918,-0.0120302709082116,0.00837436556486301));
#616=CARTESIAN_POINT('',(-0.0212639135472918,-0.0120302709082116,0.00837436556486301));
#617=CARTESIAN_POINT('',(-0.00126391354729185,0.0119697290917884,-0.00750063443513699));
#618=CARTESIAN_POINT('',(-0.00126391354729185,0.0119697290917884,0.00837436556486301));
#619=CARTESIAN_POINT('',(0.00273608645270815,0.0119697290917884,0.00837436556486301));
#620=CARTESIAN_POINT('',(-0.0252639135472918,0.0359697290917884,-0.00750063443513699));
#621=CARTESIAN_POINT('',(-0.0252639135472918,0.0359697290917884,0.00837436556486301));
#622=CARTESIAN_POINT('',(-0.0212639135472918,0.0359697290917884,0.00837436556486301));
#623=CARTESIAN_POINT('',(-0.0332639135472918,0.0119697290917884,-0.00750063443513699));
#624=CARTESIAN_POINT('',(-0.0332639135472918,0.0119697290917884,0.00837436556486301));
#625=CARTESIAN_POINT('',(-0.0315139135472918,0.0119697290917884,0.00837436556486301));
#626=CARTESIAN_POINT('',(-0.0252639135472918,0.00396972909178839,-0.00750063443513699));
#627=CARTESIAN_POINT('',(-0.0252639135472918,0.00396972909178839,0.00837436556486301));
#628=CARTESIAN_POINT('',(-0.0235139135472918,0.00396972909178839,0.00837436556486301));
#629=CARTESIAN_POINT('',(-0.0172639135472918,0.0119697290917884,-0.00750063443513699));
#630=CARTESIAN_POINT('',(-0.0172639135472918,0.0119697290917884,0.00837436556486301));
#631=CARTESIAN_POINT('',(-0.0155139135472918,0.0119697290917884,0.00837436556486301));
#632=CARTESIAN_POINT('',(-0.0252639135472918,0.0199697290917884,-0.00750063443513699));
#633=CARTESIAN_POINT('',(-0.0252639135472918,0.0199697290917884,0.00837436556486301));
#634=CARTESIAN_POINT('',(-0.0235139135472918,0.0199697290917884,0.00837436556486301));
#635=CARTESIAN_POINT('',(-0.0252639135472918,0.0119697290917884,-0.00750063443513699));
#636=CARTESIAN_POINT('',(-0.0252639135472918,0.0119697290917884,0.00837436556486301));
#637=CARTESIAN_POINT('',(-0.0212639135472918,0.0119697290917884,0.00837436556486301));
#638=CARTESIAN_POINT('',(-0.0252639135472918,0.0119697290917884,0.008374365564863));
#639=CARTESIAN_POINT('',(-0.0252639135472918,0.0119697290917884,0.008374365564863));
#640=CARTESIAN_POINT('',(0.0141060864527082,0.0119697290917884,0.008374365564863));
#641=CARTESIAN_POINT('',(-0.0252639135472918,0.0119697290917884,0.008374365564863));
#642=CARTESIAN_POINT('',(-0.0252639135472918,0.0119697290917884,-0.005341634435137));
#643=CARTESIAN_POINT('',(-0.0252639135472918,0.0119697290917884,-0.00534163443512625));
#644=CARTESIAN_POINT('',(0.0191860864527082,0.0119697290917884,-0.00534163443511399));
#645=CARTESIAN_POINT('',(0.0191860864527082,0.0119697290917884,0.015740365564863));
#646=CARTESIAN_POINT('',(0.0191860864527082,0.0177882204856245,0.015740365564863));
#647=CARTESIAN_POINT('',(0.0168716581445301,0.0294224908202497,0.015740365564863));
#648=CARTESIAN_POINT('',(0.00698525685209169,0.044218997363189,0.015740365564863));
#649=CARTESIAN_POINT('',(-0.00781078829419525,0.0541052728201768,0.015740365564863));
#650=CARTESIAN_POINT('',(-0.0252639135472917,0.0575769572275942,0.015740365564863));
#651=CARTESIAN_POINT('',(-0.0427170388003882,0.0541052728201769,0.015740365564863));
#652=CARTESIAN_POINT('',(-0.0575130839466752,0.0442189973631891,0.015740365564863));
#653=CARTESIAN_POINT('',(-0.0673994852391137,0.0294224908202499,0.015740365564863));
#654=CARTESIAN_POINT('',(-0.0697139135472918,0.0177882204856246,0.015740365564863));
#655=CARTESIAN_POINT('',(-0.0697139135472918,0.0119697290917885,0.015740365564863));
#656=CARTESIAN_POINT('',(-0.0697163133821741,0.0119697290917884,0.0157403652916824));
#657=CARTESIAN_POINT('',(0.0191884862875904,0.0119697290917884,0.0157403652916824));
#658=CARTESIAN_POINT('',(-0.0697139135472918,0.0119697290917885,0.015740365564863));
#659=CARTESIAN_POINT('',(-0.0697139135472918,0.00615123769795243,0.015740365564863));
#660=CARTESIAN_POINT('',(-0.0673994852391138,-0.00548303263667284,0.015740365564863));
#661=CARTESIAN_POINT('',(-0.0575130839466753,-0.0202795391796122,0.015740365564863));
#662=CARTESIAN_POINT('',(-0.0427170388003883,-0.0301658146366,0.015740365564863));
#663=CARTESIAN_POINT('',(-0.0252639135472917,-0.0336374990440174,0.015740365564863));
#664=CARTESIAN_POINT('',(-0.00781078829419526,-0.0301658146366,0.015740365564863));
#665=CARTESIAN_POINT('',(0.00698525685209175,-0.0202795391796121,0.015740365564863));
#666=CARTESIAN_POINT('',(0.0168716581445302,-0.00548303263667284,0.015740365564863));
#667=CARTESIAN_POINT('',(0.0191860864527082,0.00615123769795248,0.015740365564863));
#668=CARTESIAN_POINT('',(0.0191860864527082,0.0119697290917886,0.015740365564863));
#669=CARTESIAN_POINT('',(-0.0252639135472918,0.0119697290917884,0.0157403650185027));
#670=MECHANICAL_DESIGN_GEOMETRIC_PRESENTATION_REPRESENTATION('',(#371,#17),
#671);
#671=(
GEOMETRIC_REPRESENTATION_CONTEXT(3)
GLOBAL_UNCERTAINTY_ASSIGNED_CONTEXT((#672))
GLOBAL_UNIT_ASSIGNED_CONTEXT((#675,#674,#673))
REPRESENTATION_CONTEXT('WHEEL 4','TOP_LEVEL_ASSEMBLY_PART')
);
#672=UNCERTAINTY_MEASURE_WITH_UNIT(LENGTH_MEASURE(2.E-5),#675,
'DISTANCE_ACCURACY_VALUE','Maximum Tolerance applied to model');
#673=(
NAMED_UNIT(*)
SI_UNIT($,.STERADIAN.)
SOLID_ANGLE_UNIT()
);
#674=(
NAMED_UNIT(*)
PLANE_ANGLE_UNIT()
SI_UNIT($,.RADIAN.)
);
#675=(
LENGTH_UNIT()
NAMED_UNIT(*)
SI_UNIT($,.METRE.)
);
#676=PRODUCT_DEFINITION_SHAPE('','',#677);
#677=PRODUCT_DEFINITION('','',#679,#678);
#678=PRODUCT_DEFINITION_CONTEXT('',#685,'design');
#679=PRODUCT_DEFINITION_FORMATION_WITH_SPECIFIED_SOURCE('','',#681,
 .NOT_KNOWN.);
#680=PRODUCT_RELATED_PRODUCT_CATEGORY('','',(#681));
#681=PRODUCT('WHEEL 4','WHEEL 4','WHEEL 4',(#683));
#682=PRODUCT_CATEGORY('','');
#683=PRODUCT_CONTEXT('',#685,'mechanical');
#684=APPLICATION_PROTOCOL_DEFINITION('international standard',
'ap242_managed_model_based_3d_engineering',2020,#685);
#685=APPLICATION_CONTEXT('managed model based 3d engineering');
ENDSEC;
END-ISO-10303-21;
