ISO-10303-21;
HEADER;
/* Generated by software containing ST-Developer
 * from STEP Tools, Inc. (www.steptools.com) 
 */
/* OPTION: using custom renumber hook */

FILE_DESCRIPTION(
/* description */ ('STEP AP242 Edition 2',
'CAx-IF Rec.Pracs.---Representation and Presentation of Product Manufa
cturing Information (PMI)---4.0---2014-10-13',
'CAx-IF Rec.Pracs.---3D Tessellated Geometry---0.4---2014-09-14','2;1',
'CAx-IF Rec.Pracs.---User Defined Attributes---1.5---2016-08-15'),
/* implementation_level */ '2;1');

FILE_NAME(
/* name */ 'Tetrix Axle Hub With Set Screw(2) - Part 3',
/* time_stamp */ '2026-05-11T00:24:48Z',
/* author */ (''),
/* organization */ (''),
/* preprocessor_version */ 'ST-DEVELOPER v20',
/* originating_system */ 'ONSHAPE BY PTC INC, 1.214',
/* authorisation */ '  ');

FILE_SCHEMA (('AP242_MANAGED_MODEL_BASED_3D_ENGINEERING_MIM_LF { 1 0 10303 442 3 1 4 }'));
ENDSEC;

DATA;
#10=SHAPE_REPRESENTATION_RELATIONSHIP('','',#440,#11);
#11=ADVANCED_BREP_SHAPE_REPRESENTATION('',(#438),#893);
#12=VERTEX_LOOP('',#252);
#13=LINE('',#850,#31);
#14=LINE('',#853,#32);
#15=LINE('',#855,#33);
#16=LINE('',#857,#34);
#17=LINE('',#859,#35);
#18=LINE('',#861,#36);
#19=LINE('',#863,#37);
#20=LINE('',#865,#38);
#21=LINE('',#867,#39);
#22=LINE('',#869,#40);
#23=LINE('',#871,#41);
#24=LINE('',#873,#42);
#25=LINE('',#875,#43);
#26=LINE('',#877,#44);
#27=LINE('',#879,#45);
#28=LINE('',#881,#46);
#29=LINE('',#883,#47);
#30=LINE('',#885,#48);
#31=VECTOR('',#568,1.);
#32=VECTOR('',#569,1.);
#33=VECTOR('',#570,1.);
#34=VECTOR('',#571,1.);
#35=VECTOR('',#572,1.);
#36=VECTOR('',#573,1.);
#37=VECTOR('',#576,1.);
#38=VECTOR('',#577,1.);
#39=VECTOR('',#578,1.);
#40=VECTOR('',#581,1.);
#41=VECTOR('',#582,1.);
#42=VECTOR('',#585,1.);
#43=VECTOR('',#586,1.);
#44=VECTOR('',#587,1.);
#45=VECTOR('',#588,1.);
#46=VECTOR('',#591,1.);
#47=VECTOR('',#594,1.);
#48=VECTOR('',#597,1.);
#49=CONICAL_SURFACE('',#448,0.00256500000000415,0.785398163397448);
#50=CONICAL_SURFACE('',#464,0.00256500000000415,0.78539816325534);
#51=CONICAL_SURFACE('',#477,0.00241299999996544,0.785398163369834);
#52=CONICAL_SURFACE('',#487,0.00241300000006483,0.78539816341716);
#53=CONICAL_SURFACE('',#489,0.00129540000000036,1.02974425867661);
#54=CYLINDRICAL_SURFACE('',#446,0.002);
#55=CYLINDRICAL_SURFACE('',#452,0.0039625);
#56=CYLINDRICAL_SURFACE('',#454,0.011);
#57=CYLINDRICAL_SURFACE('',#456,0.002365);
#58=CYLINDRICAL_SURFACE('',#466,0.00135);
#59=CYLINDRICAL_SURFACE('',#468,0.00135);
#60=CYLINDRICAL_SURFACE('',#470,0.00135);
#61=CYLINDRICAL_SURFACE('',#472,0.00135);
#62=CYLINDRICAL_SURFACE('',#475,0.002413);
#63=TOROIDAL_SURFACE('',#444,0.0037125,0.00025);
#64=TOROIDAL_SURFACE('',#450,0.01075,0.00025);
#65=TOROIDAL_SURFACE('',#463,0.01075,0.00025);
#66=B_SPLINE_CURVE_WITH_KNOTS('',3,(#610,#611,#612,#613,#614,#615,#616,
#617,#618,#619,#620,#621),.UNSPECIFIED.,.F.,.F.,(4,1,1,1,1,1,1,1,1,4),(0.,
0.125,0.25,0.375,0.4375,0.5,0.625,0.75,0.875,1.),.UNSPECIFIED.);
#67=B_SPLINE_CURVE_WITH_KNOTS('',3,(#624,#625,#626,#627,#628,#629,#630,
#631,#632,#633,#634,#635),.UNSPECIFIED.,.F.,.F.,(4,1,1,1,1,1,1,1,1,4),(0.,
0.125,0.25,0.375,0.4375,0.5,0.625,0.75,0.875,1.),.UNSPECIFIED.);
#68=B_SPLINE_CURVE_WITH_KNOTS('',3,(#642,#643,#644,#645,#646,#647,#648,
#649,#650,#651,#652,#653,#654,#655,#656,#657,#658,#659,#660),
 .UNSPECIFIED.,.T.,.F.,(1,1,1,1,1,1,1,1,1,1,1,1,1,1,1,1,1,1,1,1,1,1,1),
(-0.00251758484074445,-0.00167838989382963,-0.000839194946914815,0.,0.000839194946914815,
0.00167838989382963,0.00251758484074445,0.00335677978765926,0.00419597473457408,
0.00503516968148889,0.00587436462840371,0.00671355957531852,0.00755275452223334,
0.00839194946914815,0.00923114441606297,0.0100703393629778,0.0109095343098926,
0.0117487292568074,0.0125879242037222,0.013427119150637,0.0142663140975519,
0.0151055090444667,0.0159447039913815),.UNSPECIFIED.);
#69=B_SPLINE_CURVE_WITH_KNOTS('',3,(#668,#669,#670,#671,#672,#673,#674,
#675,#676,#677,#678,#679,#680,#681,#682,#683,#684,#685,#686,#687,#688,#689,
#690,#691,#692,#693,#694,#695,#696,#697,#698),.UNSPECIFIED.,.F.,.F.,(4,
1,1,1,1,1,1,1,1,1,1,1,1,1,1,1,1,1,1,1,1,1,1,1,1,1,1,1,4),(0.,0.03125,0.0625,
0.09375,0.125,0.15625,0.1875,0.25,0.3125,0.34375,0.375,0.40625,0.4375,0.46875,
0.5,0.53125,0.5625,0.59375,0.625,0.65625,0.6875,0.75,0.8125,0.84375,0.875,
0.90625,0.9375,0.96875,1.),.UNSPECIFIED.);
#70=B_SPLINE_CURVE_WITH_KNOTS('',3,(#701,#702,#703,#704,#705,#706,#707,
#708,#709,#710,#711,#712,#713,#714,#715,#716,#717,#718,#719,#720,#721,#722,
#723,#724,#725,#726,#727,#728,#729,#730,#731),.UNSPECIFIED.,.F.,.F.,(4,
1,1,1,1,1,1,1,1,1,1,1,1,1,1,1,1,1,1,1,1,1,1,1,1,1,1,1,4),(0.,0.03125,0.0625,
0.09375,0.125,0.15625,0.1875,0.25,0.3125,0.34375,0.375,0.40625,0.4375,0.46875,
0.5,0.53125,0.5625,0.59375,0.625,0.65625,0.6875,0.75,0.8125,0.84375,0.875,
0.90625,0.9375,0.96875,1.),.UNSPECIFIED.);
#71=B_SPLINE_CURVE_WITH_KNOTS('',3,(#736,#737,#738,#739,#740,#741,#742,
#743,#744,#745,#746),.UNSPECIFIED.,.T.,.F.,(1,1,1,1,1,1,1,1,1,1,1,1,1,1,
1),(-0.00567462086108517,-0.00378308057405678,-0.00189154028702839,0.,0.00189154028702839,
0.00378308057405678,0.00567462086108517,0.00756616114811356,0.00945770143514195,
0.0113492417221703,0.0132407820091987,0.0151323222962271,0.0170238625832555,
0.0189154028702839,0.0208069431573123),.UNSPECIFIED.);
#72=B_SPLINE_CURVE_WITH_KNOTS('',3,(#763,#764,#765,#766,#767,#768,#769,
#770,#771,#772,#773,#774,#775,#776,#777,#778,#779,#780,#781,#782,#783,#784,
#785,#786,#787,#788,#789,#790,#791,#792,#793),.UNSPECIFIED.,.F.,.F.,(4,
1,1,1,1,1,1,1,1,1,1,1,1,1,1,1,1,1,1,1,1,1,1,1,1,1,1,1,4),(0.,0.03125,0.0625,
0.09375,0.125,0.15625,0.1875,0.25,0.3125,0.34375,0.375,0.40625,0.4375,0.46875,
0.5,0.53125,0.5625,0.59375,0.625,0.65625,0.6875,0.75,0.8125,0.84375,0.875,
0.90625,0.9375,0.96875,1.),.UNSPECIFIED.);
#73=B_SPLINE_CURVE_WITH_KNOTS('',3,(#796,#797,#798,#799,#800,#801,#802,
#803,#804,#805,#806,#807,#808,#809,#810,#811,#812,#813,#814,#815,#816,#817,
#818,#819,#820,#821,#822,#823,#824,#825,#826),.UNSPECIFIED.,.F.,.F.,(4,
1,1,1,1,1,1,1,1,1,1,1,1,1,1,1,1,1,1,1,1,1,1,1,1,1,1,1,4),(0.,0.03125,0.0625,
0.09375,0.125,0.15625,0.1875,0.25,0.3125,0.34375,0.375,0.40625,0.4375,0.46875,
0.5,0.53125,0.5625,0.59375,0.625,0.65625,0.6875,0.75,0.8125,0.84375,0.875,
0.90625,0.9375,0.96875,1.),.UNSPECIFIED.);
#74=ORIENTED_EDGE('',*,*,#166,.T.);
#75=ORIENTED_EDGE('',*,*,#167,.F.);
#76=ORIENTED_EDGE('',*,*,#168,.F.);
#77=ORIENTED_EDGE('',*,*,#168,.T.);
#78=ORIENTED_EDGE('',*,*,#167,.T.);
#79=ORIENTED_EDGE('',*,*,#169,.F.);
#80=ORIENTED_EDGE('',*,*,#170,.T.);
#81=ORIENTED_EDGE('',*,*,#171,.T.);
#82=ORIENTED_EDGE('',*,*,#166,.F.);
#83=ORIENTED_EDGE('',*,*,#172,.T.);
#84=ORIENTED_EDGE('',*,*,#173,.F.);
#85=ORIENTED_EDGE('',*,*,#174,.F.);
#86=ORIENTED_EDGE('',*,*,#175,.F.);
#87=ORIENTED_EDGE('',*,*,#176,.F.);
#88=ORIENTED_EDGE('',*,*,#169,.T.);
#89=ORIENTED_EDGE('',*,*,#177,.F.);
#90=ORIENTED_EDGE('',*,*,#178,.F.);
#91=ORIENTED_EDGE('',*,*,#173,.T.);
#92=ORIENTED_EDGE('',*,*,#171,.F.);
#93=ORIENTED_EDGE('',*,*,#172,.F.);
#94=ORIENTED_EDGE('',*,*,#179,.T.);
#95=ORIENTED_EDGE('',*,*,#176,.T.);
#96=ORIENTED_EDGE('',*,*,#180,.T.);
#97=ORIENTED_EDGE('',*,*,#181,.T.);
#98=ORIENTED_EDGE('',*,*,#182,.T.);
#99=ORIENTED_EDGE('',*,*,#183,.T.);
#100=ORIENTED_EDGE('',*,*,#175,.T.);
#101=ORIENTED_EDGE('',*,*,#174,.T.);
#102=ORIENTED_EDGE('',*,*,#184,.T.);
#103=ORIENTED_EDGE('',*,*,#185,.T.);
#104=ORIENTED_EDGE('',*,*,#178,.T.);
#105=ORIENTED_EDGE('',*,*,#186,.T.);
#106=ORIENTED_EDGE('',*,*,#179,.F.);
#107=ORIENTED_EDGE('',*,*,#187,.T.);
#108=ORIENTED_EDGE('',*,*,#183,.F.);
#109=ORIENTED_EDGE('',*,*,#188,.T.);
#110=ORIENTED_EDGE('',*,*,#182,.F.);
#111=ORIENTED_EDGE('',*,*,#189,.T.);
#112=ORIENTED_EDGE('',*,*,#181,.F.);
#113=ORIENTED_EDGE('',*,*,#190,.T.);
#114=ORIENTED_EDGE('',*,*,#180,.F.);
#115=ORIENTED_EDGE('',*,*,#190,.F.);
#116=ORIENTED_EDGE('',*,*,#189,.F.);
#117=ORIENTED_EDGE('',*,*,#188,.F.);
#118=ORIENTED_EDGE('',*,*,#187,.F.);
#119=ORIENTED_EDGE('',*,*,#186,.F.);
#120=ORIENTED_EDGE('',*,*,#184,.F.);
#121=ORIENTED_EDGE('',*,*,#185,.F.);
#122=ORIENTED_EDGE('',*,*,#177,.T.);
#123=ORIENTED_EDGE('',*,*,#191,.T.);
#124=ORIENTED_EDGE('',*,*,#191,.F.);
#125=ORIENTED_EDGE('',*,*,#192,.T.);
#126=ORIENTED_EDGE('',*,*,#193,.F.);
#127=ORIENTED_EDGE('',*,*,#194,.T.);
#128=ORIENTED_EDGE('',*,*,#195,.T.);
#129=ORIENTED_EDGE('',*,*,#196,.F.);
#130=ORIENTED_EDGE('',*,*,#197,.T.);
#131=ORIENTED_EDGE('',*,*,#198,.F.);
#132=ORIENTED_EDGE('',*,*,#192,.F.);
#133=ORIENTED_EDGE('',*,*,#199,.F.);
#134=ORIENTED_EDGE('',*,*,#200,.F.);
#135=ORIENTED_EDGE('',*,*,#201,.F.);
#136=ORIENTED_EDGE('',*,*,#194,.F.);
#137=ORIENTED_EDGE('',*,*,#202,.T.);
#138=ORIENTED_EDGE('',*,*,#199,.T.);
#139=ORIENTED_EDGE('',*,*,#193,.T.);
#140=ORIENTED_EDGE('',*,*,#203,.T.);
#141=ORIENTED_EDGE('',*,*,#204,.F.);
#142=ORIENTED_EDGE('',*,*,#200,.T.);
#143=ORIENTED_EDGE('',*,*,#202,.F.);
#144=ORIENTED_EDGE('',*,*,#205,.F.);
#145=ORIENTED_EDGE('',*,*,#206,.T.);
#146=ORIENTED_EDGE('',*,*,#207,.F.);
#147=ORIENTED_EDGE('',*,*,#201,.T.);
#148=ORIENTED_EDGE('',*,*,#204,.T.);
#149=ORIENTED_EDGE('',*,*,#208,.F.);
#150=ORIENTED_EDGE('',*,*,#195,.F.);
#151=ORIENTED_EDGE('',*,*,#205,.T.);
#152=ORIENTED_EDGE('',*,*,#203,.F.);
#153=ORIENTED_EDGE('',*,*,#198,.T.);
#154=ORIENTED_EDGE('',*,*,#209,.T.);
#155=ORIENTED_EDGE('',*,*,#207,.T.);
#156=ORIENTED_EDGE('',*,*,#210,.T.);
#157=ORIENTED_EDGE('',*,*,#196,.T.);
#158=ORIENTED_EDGE('',*,*,#208,.T.);
#159=ORIENTED_EDGE('',*,*,#210,.F.);
#160=ORIENTED_EDGE('',*,*,#206,.F.);
#161=ORIENTED_EDGE('',*,*,#209,.F.);
#162=ORIENTED_EDGE('',*,*,#197,.F.);
#163=ORIENTED_EDGE('',*,*,#211,.T.);
#164=ORIENTED_EDGE('',*,*,#170,.F.);
#165=ORIENTED_EDGE('',*,*,#211,.F.);
#166=EDGE_CURVE('',#212,#212,#253,.F.);
#167=EDGE_CURVE('',#213,#214,#66,.F.);
#168=EDGE_CURVE('',#214,#213,#67,.F.);
#169=EDGE_CURVE('',#215,#215,#254,.T.);
#170=EDGE_CURVE('',#216,#216,#255,.T.);
#171=EDGE_CURVE('',#217,#217,#68,.T.);
#172=EDGE_CURVE('',#218,#218,#256,.F.);
#173=EDGE_CURVE('',#219,#219,#257,.F.);
#174=EDGE_CURVE('',#220,#221,#69,.T.);
#175=EDGE_CURVE('',#221,#220,#70,.T.);
#176=EDGE_CURVE('',#222,#222,#258,.T.);
#177=EDGE_CURVE('',#223,#223,#71,.T.);
#178=EDGE_CURVE('',#224,#224,#259,.F.);
#179=EDGE_CURVE('',#225,#225,#260,.T.);
#180=EDGE_CURVE('',#226,#226,#261,.F.);
#181=EDGE_CURVE('',#227,#227,#262,.F.);
#182=EDGE_CURVE('',#228,#228,#263,.F.);
#183=EDGE_CURVE('',#229,#229,#264,.F.);
#184=EDGE_CURVE('',#230,#231,#72,.T.);
#185=EDGE_CURVE('',#231,#230,#73,.T.);
#186=EDGE_CURVE('',#232,#232,#265,.T.);
#187=EDGE_CURVE('',#233,#233,#266,.F.);
#188=EDGE_CURVE('',#234,#234,#267,.F.);
#189=EDGE_CURVE('',#235,#235,#268,.F.);
#190=EDGE_CURVE('',#236,#236,#269,.F.);
#191=EDGE_CURVE('',#237,#237,#270,.F.);
#192=EDGE_CURVE('',#238,#238,#271,.T.);
#193=EDGE_CURVE('',#239,#240,#13,.T.);
#194=EDGE_CURVE('',#239,#241,#14,.T.);
#195=EDGE_CURVE('',#241,#242,#15,.T.);
#196=EDGE_CURVE('',#243,#242,#16,.T.);
#197=EDGE_CURVE('',#243,#244,#17,.T.);
#198=EDGE_CURVE('',#240,#244,#18,.T.);
#199=EDGE_CURVE('',#245,#239,#19,.T.);
#200=EDGE_CURVE('',#246,#245,#20,.T.);
#201=EDGE_CURVE('',#241,#246,#21,.T.);
#202=EDGE_CURVE('',#247,#245,#22,.T.);
#203=EDGE_CURVE('',#240,#247,#23,.T.);
#204=EDGE_CURVE('',#246,#248,#24,.T.);
#205=EDGE_CURVE('',#249,#247,#25,.T.);
#206=EDGE_CURVE('',#249,#250,#26,.T.);
#207=EDGE_CURVE('',#248,#250,#27,.T.);
#208=EDGE_CURVE('',#242,#248,#28,.F.);
#209=EDGE_CURVE('',#244,#249,#29,.F.);
#210=EDGE_CURVE('',#250,#243,#30,.T.);
#211=EDGE_CURVE('',#251,#251,#272,.T.);
#212=VERTEX_POINT('',#609);
#213=VERTEX_POINT('',#622);
#214=VERTEX_POINT('',#623);
#215=VERTEX_POINT('',#638);
#216=VERTEX_POINT('',#641);
#217=VERTEX_POINT('',#661);
#218=VERTEX_POINT('',#664);
#219=VERTEX_POINT('',#667);
#220=VERTEX_POINT('',#699);
#221=VERTEX_POINT('',#700);
#222=VERTEX_POINT('',#734);
#223=VERTEX_POINT('',#747);
#224=VERTEX_POINT('',#749);
#225=VERTEX_POINT('',#752);
#226=VERTEX_POINT('',#755);
#227=VERTEX_POINT('',#757);
#228=VERTEX_POINT('',#759);
#229=VERTEX_POINT('',#761);
#230=VERTEX_POINT('',#794);
#231=VERTEX_POINT('',#795);
#232=VERTEX_POINT('',#829);
#233=VERTEX_POINT('',#832);
#234=VERTEX_POINT('',#835);
#235=VERTEX_POINT('',#838);
#236=VERTEX_POINT('',#841);
#237=VERTEX_POINT('',#845);
#238=VERTEX_POINT('',#848);
#239=VERTEX_POINT('',#851);
#240=VERTEX_POINT('',#852);
#241=VERTEX_POINT('',#854);
#242=VERTEX_POINT('',#856);
#243=VERTEX_POINT('',#858);
#244=VERTEX_POINT('',#860);
#245=VERTEX_POINT('',#864);
#246=VERTEX_POINT('',#866);
#247=VERTEX_POINT('',#870);
#248=VERTEX_POINT('',#874);
#249=VERTEX_POINT('',#876);
#250=VERTEX_POINT('',#878);
#251=VERTEX_POINT('',#889);
#252=VERTEX_POINT('',#891);
#253=CIRCLE('',#443,0.00256500000000415);
#254=CIRCLE('',#445,0.0039625);
#255=CIRCLE('',#447,0.002);
#256=CIRCLE('',#449,0.002365);
#257=CIRCLE('',#451,0.011);
#258=CIRCLE('',#453,0.0039625);
#259=CIRCLE('',#455,0.011);
#260=CIRCLE('',#457,0.00236499999999751);
#261=CIRCLE('',#459,0.00135);
#262=CIRCLE('',#460,0.00135);
#263=CIRCLE('',#461,0.00135);
#264=CIRCLE('',#462,0.00135);
#265=CIRCLE('',#465,0.00256500000000415);
#266=CIRCLE('',#467,0.00135);
#267=CIRCLE('',#469,0.00135);
#268=CIRCLE('',#471,0.00135);
#269=CIRCLE('',#473,0.00135);
#270=CIRCLE('',#476,0.002413);
#271=CIRCLE('',#478,0.00194055999994256);
#272=CIRCLE('',#488,0.00129539999997537);
#273=EDGE_LOOP('',(#74));
#274=EDGE_LOOP('',(#75,#76));
#275=EDGE_LOOP('',(#77,#78));
#276=EDGE_LOOP('',(#79));
#277=EDGE_LOOP('',(#80));
#278=EDGE_LOOP('',(#81));
#279=EDGE_LOOP('',(#82));
#280=EDGE_LOOP('',(#83));
#281=EDGE_LOOP('',(#84));
#282=EDGE_LOOP('',(#85,#86));
#283=EDGE_LOOP('',(#87));
#284=EDGE_LOOP('',(#88));
#285=EDGE_LOOP('',(#89));
#286=EDGE_LOOP('',(#90));
#287=EDGE_LOOP('',(#91));
#288=EDGE_LOOP('',(#92));
#289=EDGE_LOOP('',(#93));
#290=EDGE_LOOP('',(#94));
#291=EDGE_LOOP('',(#95));
#292=EDGE_LOOP('',(#96));
#293=EDGE_LOOP('',(#97));
#294=EDGE_LOOP('',(#98));
#295=EDGE_LOOP('',(#99));
#296=EDGE_LOOP('',(#100,#101));
#297=EDGE_LOOP('',(#102,#103));
#298=EDGE_LOOP('',(#104));
#299=EDGE_LOOP('',(#105));
#300=EDGE_LOOP('',(#106));
#301=EDGE_LOOP('',(#107));
#302=EDGE_LOOP('',(#108));
#303=EDGE_LOOP('',(#109));
#304=EDGE_LOOP('',(#110));
#305=EDGE_LOOP('',(#111));
#306=EDGE_LOOP('',(#112));
#307=EDGE_LOOP('',(#113));
#308=EDGE_LOOP('',(#114));
#309=EDGE_LOOP('',(#115));
#310=EDGE_LOOP('',(#116));
#311=EDGE_LOOP('',(#117));
#312=EDGE_LOOP('',(#118));
#313=EDGE_LOOP('',(#119));
#314=EDGE_LOOP('',(#120,#121));
#315=EDGE_LOOP('',(#122));
#316=EDGE_LOOP('',(#123));
#317=EDGE_LOOP('',(#124));
#318=EDGE_LOOP('',(#125));
#319=EDGE_LOOP('',(#126,#127,#128,#129,#130,#131));
#320=EDGE_LOOP('',(#132));
#321=EDGE_LOOP('',(#133,#134,#135,#136));
#322=EDGE_LOOP('',(#137,#138,#139,#140));
#323=EDGE_LOOP('',(#141,#142,#143,#144,#145,#146));
#324=EDGE_LOOP('',(#147,#148,#149,#150));
#325=EDGE_LOOP('',(#151,#152,#153,#154));
#326=EDGE_LOOP('',(#155,#156,#157,#158));
#327=EDGE_LOOP('',(#159,#160,#161,#162));
#328=EDGE_LOOP('',(#163));
#329=EDGE_LOOP('',(#164));
#330=EDGE_LOOP('',(#165));
#331=FACE_BOUND('',#273,.T.);
#332=FACE_BOUND('',#274,.T.);
#333=FACE_BOUND('',#275,.T.);
#334=FACE_BOUND('',#276,.T.);
#335=FACE_BOUND('',#277,.T.);
#336=FACE_BOUND('',#278,.T.);
#337=FACE_BOUND('',#279,.T.);
#338=FACE_BOUND('',#280,.T.);
#339=FACE_BOUND('',#281,.T.);
#340=FACE_BOUND('',#282,.T.);
#341=FACE_BOUND('',#283,.T.);
#342=FACE_BOUND('',#284,.T.);
#343=FACE_BOUND('',#285,.T.);
#344=FACE_BOUND('',#286,.T.);
#345=FACE_BOUND('',#287,.T.);
#346=FACE_BOUND('',#288,.T.);
#347=FACE_BOUND('',#289,.T.);
#348=FACE_BOUND('',#290,.T.);
#349=FACE_BOUND('',#291,.T.);
#350=FACE_BOUND('',#292,.T.);
#351=FACE_BOUND('',#293,.T.);
#352=FACE_BOUND('',#294,.T.);
#353=FACE_BOUND('',#295,.T.);
#354=FACE_BOUND('',#296,.T.);
#355=FACE_BOUND('',#297,.T.);
#356=FACE_BOUND('',#298,.T.);
#357=FACE_BOUND('',#299,.T.);
#358=FACE_BOUND('',#300,.T.);
#359=FACE_BOUND('',#301,.T.);
#360=FACE_BOUND('',#302,.T.);
#361=FACE_BOUND('',#303,.T.);
#362=FACE_BOUND('',#304,.T.);
#363=FACE_BOUND('',#305,.T.);
#364=FACE_BOUND('',#306,.T.);
#365=FACE_BOUND('',#307,.T.);
#366=FACE_BOUND('',#308,.T.);
#367=FACE_BOUND('',#309,.T.);
#368=FACE_BOUND('',#310,.T.);
#369=FACE_BOUND('',#311,.T.);
#370=FACE_BOUND('',#312,.T.);
#371=FACE_BOUND('',#313,.T.);
#372=FACE_BOUND('',#314,.T.);
#373=FACE_BOUND('',#315,.T.);
#374=FACE_BOUND('',#316,.T.);
#375=FACE_BOUND('',#317,.T.);
#376=FACE_BOUND('',#318,.T.);
#377=FACE_BOUND('',#319,.T.);
#378=FACE_BOUND('',#320,.T.);
#379=FACE_BOUND('',#321,.T.);
#380=FACE_BOUND('',#322,.T.);
#381=FACE_BOUND('',#323,.T.);
#382=FACE_BOUND('',#324,.T.);
#383=FACE_BOUND('',#325,.T.);
#384=FACE_BOUND('',#326,.T.);
#385=FACE_BOUND('',#327,.T.);
#386=FACE_BOUND('',#328,.T.);
#387=FACE_BOUND('',#329,.T.);
#388=FACE_BOUND('',#12,.T.);
#389=FACE_BOUND('',#330,.T.);
#390=PLANE('',#442);
#391=PLANE('',#458);
#392=PLANE('',#474);
#393=PLANE('',#479);
#394=PLANE('',#480);
#395=PLANE('',#481);
#396=PLANE('',#482);
#397=PLANE('',#483);
#398=PLANE('',#484);
#399=PLANE('',#485);
#400=PLANE('',#486);
#401=ADVANCED_FACE('',(#331,#332),#390,.T.);
#402=ADVANCED_FACE('',(#333,#334),#63,.T.);
#403=ADVANCED_FACE('',(#335,#336),#54,.F.);
#404=ADVANCED_FACE('',(#337,#338),#49,.F.);
#405=ADVANCED_FACE('',(#339,#340),#64,.T.);
#406=ADVANCED_FACE('',(#341,#342),#55,.T.);
#407=ADVANCED_FACE('',(#343,#344,#345),#56,.T.);
#408=ADVANCED_FACE('',(#346,#347,#348),#57,.F.);
#409=ADVANCED_FACE('',(#349,#350,#351,#352,#353,#354),#391,.T.);
#410=ADVANCED_FACE('',(#355,#356),#65,.T.);
#411=ADVANCED_FACE('',(#357,#358),#50,.F.);
#412=ADVANCED_FACE('',(#359,#360),#58,.F.);
#413=ADVANCED_FACE('',(#361,#362),#59,.F.);
#414=ADVANCED_FACE('',(#363,#364),#60,.F.);
#415=ADVANCED_FACE('',(#365,#366),#61,.F.);
#416=ADVANCED_FACE('',(#367,#368,#369,#370,#371,#372),#392,.F.);
#417=ADVANCED_FACE('',(#373,#374),#62,.T.);
#418=ADVANCED_FACE('',(#375,#376),#51,.T.);
#419=ADVANCED_FACE('',(#377,#378),#393,.T.);
#420=ADVANCED_FACE('',(#379),#394,.F.);
#421=ADVANCED_FACE('',(#380),#395,.T.);
#422=ADVANCED_FACE('',(#381),#396,.F.);
#423=ADVANCED_FACE('',(#382),#397,.F.);
#424=ADVANCED_FACE('',(#383),#398,.T.);
#425=ADVANCED_FACE('',(#384),#399,.T.);
#426=ADVANCED_FACE('NONE',(#385),#400,.F.);
#427=ADVANCED_FACE('',(#386,#387),#52,.T.);
#428=ADVANCED_FACE('',(#388,#389),#53,.F.);
#429=CLOSED_SHELL('',(#401,#402,#403,#404,#405,#406,#407,#408,#409,#410,
#411,#412,#413,#414,#415,#416,#417,#418,#419,#420,#421,#422,#423,#424,#425,
#426,#427,#428));
#430=STYLED_ITEM('',(#431),#438);
#431=PRESENTATION_STYLE_ASSIGNMENT((#432));
#432=SURFACE_STYLE_USAGE(.BOTH.,#433);
#433=SURFACE_SIDE_STYLE('',(#434));
#434=SURFACE_STYLE_FILL_AREA(#435);
#435=FILL_AREA_STYLE('',(#436));
#436=FILL_AREA_STYLE_COLOUR('',#437);
#437=COLOUR_RGB('',0.917647058823529,0.917647058823529,0.917647058823529);
#438=MANIFOLD_SOLID_BREP('Part 3',#429);
#439=SHAPE_DEFINITION_REPRESENTATION(#898,#440);
#440=SHAPE_REPRESENTATION('Part 3',(#441),#893);
#441=AXIS2_PLACEMENT_3D('',#606,#490,#491);
#442=AXIS2_PLACEMENT_3D('',#607,#492,#493);
#443=AXIS2_PLACEMENT_3D('',#608,#494,#495);
#444=AXIS2_PLACEMENT_3D('',#636,#496,#497);
#445=AXIS2_PLACEMENT_3D('',#637,#498,#499);
#446=AXIS2_PLACEMENT_3D('',#639,#500,#501);
#447=AXIS2_PLACEMENT_3D('',#640,#502,#503);
#448=AXIS2_PLACEMENT_3D('',#662,#504,#505);
#449=AXIS2_PLACEMENT_3D('',#663,#506,#507);
#450=AXIS2_PLACEMENT_3D('',#665,#508,#509);
#451=AXIS2_PLACEMENT_3D('',#666,#510,#511);
#452=AXIS2_PLACEMENT_3D('',#732,#512,#513);
#453=AXIS2_PLACEMENT_3D('',#733,#514,#515);
#454=AXIS2_PLACEMENT_3D('',#735,#516,#517);
#455=AXIS2_PLACEMENT_3D('',#748,#518,#519);
#456=AXIS2_PLACEMENT_3D('',#750,#520,#521);
#457=AXIS2_PLACEMENT_3D('',#751,#522,#523);
#458=AXIS2_PLACEMENT_3D('',#753,#524,#525);
#459=AXIS2_PLACEMENT_3D('',#754,#526,#527);
#460=AXIS2_PLACEMENT_3D('',#756,#528,#529);
#461=AXIS2_PLACEMENT_3D('',#758,#530,#531);
#462=AXIS2_PLACEMENT_3D('',#760,#532,#533);
#463=AXIS2_PLACEMENT_3D('',#762,#534,#535);
#464=AXIS2_PLACEMENT_3D('',#827,#536,#537);
#465=AXIS2_PLACEMENT_3D('',#828,#538,#539);
#466=AXIS2_PLACEMENT_3D('',#830,#540,#541);
#467=AXIS2_PLACEMENT_3D('',#831,#542,#543);
#468=AXIS2_PLACEMENT_3D('',#833,#544,#545);
#469=AXIS2_PLACEMENT_3D('',#834,#546,#547);
#470=AXIS2_PLACEMENT_3D('',#836,#548,#549);
#471=AXIS2_PLACEMENT_3D('',#837,#550,#551);
#472=AXIS2_PLACEMENT_3D('',#839,#552,#553);
#473=AXIS2_PLACEMENT_3D('',#840,#554,#555);
#474=AXIS2_PLACEMENT_3D('',#842,#556,#557);
#475=AXIS2_PLACEMENT_3D('',#843,#558,#559);
#476=AXIS2_PLACEMENT_3D('',#844,#560,#561);
#477=AXIS2_PLACEMENT_3D('',#846,#562,#563);
#478=AXIS2_PLACEMENT_3D('',#847,#564,#565);
#479=AXIS2_PLACEMENT_3D('',#849,#566,#567);
#480=AXIS2_PLACEMENT_3D('',#862,#574,#575);
#481=AXIS2_PLACEMENT_3D('',#868,#579,#580);
#482=AXIS2_PLACEMENT_3D('',#872,#583,#584);
#483=AXIS2_PLACEMENT_3D('',#880,#589,#590);
#484=AXIS2_PLACEMENT_3D('',#882,#592,#593);
#485=AXIS2_PLACEMENT_3D('',#884,#595,#596);
#486=AXIS2_PLACEMENT_3D('',#886,#598,#599);
#487=AXIS2_PLACEMENT_3D('',#887,#600,#601);
#488=AXIS2_PLACEMENT_3D('',#888,#602,#603);
#489=AXIS2_PLACEMENT_3D('',#890,#604,#605);
#490=DIRECTION('',(0.,0.,1.));
#491=DIRECTION('',(1.,0.,0.));
#492=DIRECTION('',(0.,0.,1.));
#493=DIRECTION('',(1.,0.,0.));
#494=DIRECTION('',(0.,0.,1.));
#495=DIRECTION('',(1.,0.,0.));
#496=DIRECTION('',(0.,0.,1.));
#497=DIRECTION('',(1.,0.,0.));
#498=DIRECTION('',(0.,0.,-1.));
#499=DIRECTION('',(-1.,0.,0.));
#500=DIRECTION('',(-0.707106781186549,-0.707106781186546,0.));
#501=DIRECTION('',(0.707106781186546,-0.707106781186549,0.));
#502=DIRECTION('',(0.707106781186548,0.707106781186547,2.36395401963339E-16));
#503=DIRECTION('',(-0.707106781186547,0.707106781186548,0.));
#504=DIRECTION('',(0.,0.,1.));
#505=DIRECTION('',(1.,0.,0.));
#506=DIRECTION('',(0.,0.,1.));
#507=DIRECTION('',(1.,0.,0.));
#508=DIRECTION('',(0.,0.,1.));
#509=DIRECTION('',(1.,0.,0.));
#510=DIRECTION('',(0.,0.,1.));
#511=DIRECTION('',(1.,0.,0.));
#512=DIRECTION('',(0.,0.,-1.));
#513=DIRECTION('',(-1.,0.,0.));
#514=DIRECTION('',(0.,0.,-1.));
#515=DIRECTION('',(-1.,0.,0.));
#516=DIRECTION('',(0.,0.,1.));
#517=DIRECTION('',(1.,0.,0.));
#518=DIRECTION('',(0.,0.,1.));
#519=DIRECTION('',(1.,0.,0.));
#520=DIRECTION('',(0.,0.,1.));
#521=DIRECTION('',(1.,0.,0.));
#522=DIRECTION('',(0.,0.,-1.));
#523=DIRECTION('',(-1.,0.,0.));
#524=DIRECTION('',(0.,0.,1.));
#525=DIRECTION('',(1.,0.,0.));
#526=DIRECTION('',(0.,0.,1.));
#527=DIRECTION('',(1.,0.,0.));
#528=DIRECTION('',(0.,0.,1.));
#529=DIRECTION('',(1.,0.,0.));
#530=DIRECTION('',(0.,0.,1.));
#531=DIRECTION('',(1.,0.,0.));
#532=DIRECTION('',(0.,0.,1.));
#533=DIRECTION('',(1.,0.,0.));
#534=DIRECTION('',(0.,0.,1.));
#535=DIRECTION('',(1.,0.,0.));
#536=DIRECTION('',(0.,1.69076362180702E-16,-1.));
#537=DIRECTION('',(0.,1.,1.69076362180702E-16));
#538=DIRECTION('',(0.,1.69076362180702E-16,-1.));
#539=DIRECTION('',(0.,1.,1.69076362180702E-16));
#540=DIRECTION('',(0.,0.,1.));
#541=DIRECTION('',(1.,0.,0.));
#542=DIRECTION('',(0.,0.,1.));
#543=DIRECTION('',(1.,0.,0.));
#544=DIRECTION('',(0.,0.,1.));
#545=DIRECTION('',(1.,0.,0.));
#546=DIRECTION('',(0.,0.,1.));
#547=DIRECTION('',(1.,0.,0.));
#548=DIRECTION('',(0.,0.,1.));
#549=DIRECTION('',(1.,0.,0.));
#550=DIRECTION('',(0.,0.,1.));
#551=DIRECTION('',(1.,0.,0.));
#552=DIRECTION('',(0.,0.,1.));
#553=DIRECTION('',(1.,0.,0.));
#554=DIRECTION('',(0.,0.,1.));
#555=DIRECTION('',(1.,0.,0.));
#556=DIRECTION('',(0.,0.,1.));
#557=DIRECTION('',(1.,0.,0.));
#558=DIRECTION('',(0.707106781186548,0.707106781186547,6.93645834746531E-17));
#559=DIRECTION('',(-0.707106781186547,0.707106781186548,0.));
#560=DIRECTION('',(0.707106781186548,0.707106781186547,6.93645834746531E-17));
#561=DIRECTION('',(-0.707106781186547,0.707106781186548,0.));
#562=DIRECTION('',(-0.707106781186548,-0.707106781186547,8.72844561167308E-16));
#563=DIRECTION('',(0.707106781186547,-0.707106781186548,0.));
#564=DIRECTION('',(-0.707106781186548,-0.707106781186547,8.72844561167308E-16));
#565=DIRECTION('',(0.707106781186547,-0.707106781186548,0.));
#566=DIRECTION('',(0.707106781186548,0.707106781186547,4.85722573273506E-17));
#567=DIRECTION('',(-0.707106781186547,0.707106781186548,0.));
#568=DIRECTION('',(-0.646916631966093,0.646916631966094,0.403729789056112));
#569=DIRECTION('',(0.570691310270286,-0.570691310270288,0.590442932690337));
#570=DIRECTION('',(-0.0762253216958056,0.0762253216958058,0.994172721746449));
#571=DIRECTION('',(0.646916631966093,-0.646916631966094,-0.403729789056112));
#572=DIRECTION('',(-0.570691310270287,0.570691310270288,-0.590442932690337));
#573=DIRECTION('',(-0.0762253216958061,0.0762253216958063,0.994172721746449));
#574=DIRECTION('',(0.417506201609009,-0.41750620160901,-0.807079390912712));
#575=DIRECTION('',(0.,0.888194584355133,-0.459467496480667));
#576=DIRECTION('',(0.707106781186548,0.707106781186547,0.));
#577=DIRECTION('',(-0.570691310270286,0.570691310270288,-0.590442932690337));
#578=DIRECTION('',(-0.707106781186549,-0.707106781186547,-3.41480999208033E-16));
#579=DIRECTION('',(0.285480071608591,-0.285480071608591,0.914878274651173));
#580=DIRECTION('',(0.,-0.954604478436466,-0.297876299408063));
#581=DIRECTION('',(0.646916631966093,-0.646916631966094,-0.403729789056111));
#582=DIRECTION('',(-0.707106781186548,-0.707106781186547,-3.41480999208033E-16));
#583=DIRECTION('',(-0.707106781186548,-0.707106781186547,-4.85722573273506E-17));
#584=DIRECTION('',(0.707106781186547,-0.707106781186548,0.));
#585=DIRECTION('',(-0.0762253216958055,0.0762253216958055,0.994172721746449));
#586=DIRECTION('',(0.0762253216958068,-0.076225321695808,-0.994172721746449));
#587=DIRECTION('',(0.570691310270287,-0.570691310270288,0.590442932690337));
#588=DIRECTION('',(-0.646916631966092,0.646916631966094,0.403729789056112));
#589=DIRECTION('',(0.7029862732176,-0.702986273217601,0.107798883738461));
#590=DIRECTION('',(0.707106781186548,0.707106781186547,0.));
#591=DIRECTION('',(0.707106781186548,0.707106781186547,0.));
#592=DIRECTION('',(0.7029862732176,-0.702986273217601,0.107798883738461));
#593=DIRECTION('',(0.707106781186548,0.707106781186547,0.));
#594=DIRECTION('',(0.707106781186548,0.707106781186547,0.));
#595=DIRECTION('',(-0.285480071608591,0.285480071608591,-0.914878274651173));
#596=DIRECTION('',(0.,0.954604478436466,0.297876299408063));
#597=DIRECTION('',(0.707106781186548,0.707106781186547,1.70740499604016E-16));
#598=DIRECTION('',(-0.417506201609009,0.41750620160901,0.807079390912712));
#599=DIRECTION('',(0.,-0.888194584355134,0.459467496480667));
#600=DIRECTION('',(0.707106781186548,0.707106781186547,2.36395401963339E-16));
#601=DIRECTION('',(-0.707106781186547,0.707106781186548,0.));
#602=DIRECTION('',(0.707106781186548,0.707106781186547,6.93645834746531E-17));
#603=DIRECTION('',(-0.0762253216730458,0.0762253216730461,0.994172721749939));
#604=DIRECTION('',(-0.707106781186548,-0.707106781186547,-1.65627268208546E-16));
#605=DIRECTION('',(0.707106781186547,-0.707106781186548,0.));
#606=CARTESIAN_POINT('',(0.,0.,0.));
#607=CARTESIAN_POINT('',(0.,0.,0.0027));
#608=CARTESIAN_POINT('',(0.,0.,0.00269999999994752));
#609=CARTESIAN_POINT('',(0.00256500000000415,0.,0.00269999999994752));
#610=CARTESIAN_POINT('',(0.0037125,0.,0.0027));
#611=CARTESIAN_POINT('',(0.0037125,0.000471911905699538,0.0027));
#612=CARTESIAN_POINT('',(0.00355225848760402,0.00136699164258311,0.0027));
#613=CARTESIAN_POINT('',(0.00270937969955154,0.00270697104790052,0.0027));
#614=CARTESIAN_POINT('',(0.00158575183752541,0.00341443493860441,0.0027));
#615=CARTESIAN_POINT('',(0.000703425580289302,0.00366814010401477,0.0027));
#616=CARTESIAN_POINT('',(-0.00023856773126316,0.00375499762162538,0.0027));
#617=CARTESIAN_POINT('',(-0.00137001832007806,0.00355182088529774,0.0027));
#618=CARTESIAN_POINT('',(-0.00270695876167826,0.00270811789608377,0.0027));
#619=CARTESIAN_POINT('',(-0.00355295018413924,0.00136651108129755,0.0027));
#620=CARTESIAN_POINT('',(-0.0037125,0.000472268649910348,0.0027));
#621=CARTESIAN_POINT('',(-0.0037125,4.69958209172797E-19,0.0027));
#622=CARTESIAN_POINT('',(-0.0037125,4.62304166678126E-19,0.0027));
#623=CARTESIAN_POINT('',(0.0037125,-2.27325062091728E-19,0.0027));
#624=CARTESIAN_POINT('',(-0.0037125,4.69958209172797E-19,0.0027));
#625=CARTESIAN_POINT('',(-0.0037125,-0.000471911905700028,0.0027));
#626=CARTESIAN_POINT('',(-0.00355225848760399,-0.00136699164258288,0.0027));
#627=CARTESIAN_POINT('',(-0.00270937969955166,-0.00270697104790058,0.0027));
#628=CARTESIAN_POINT('',(-0.00158575183752505,-0.0034144349386044,0.0027));
#629=CARTESIAN_POINT('',(-0.000703425580289922,-0.00366814010401477,0.0027));
#630=CARTESIAN_POINT('',(0.000238567731263517,-0.00375499762162538,0.0027));
#631=CARTESIAN_POINT('',(0.00137001832007794,-0.00355182088529772,0.0027));
#632=CARTESIAN_POINT('',(0.0027069587616783,-0.00270811789608382,0.0027));
#633=CARTESIAN_POINT('',(0.00355295018413924,-0.00136651108129736,0.0027));
#634=CARTESIAN_POINT('',(0.0037125,-0.000472268649910749,0.0027));
#635=CARTESIAN_POINT('',(0.0037125,0.,0.0027));
#636=CARTESIAN_POINT('',(0.,0.,0.00245));
#637=CARTESIAN_POINT('',(0.,0.,0.00245));
#638=CARTESIAN_POINT('',(-0.0039625,0.,0.00245));
#639=CARTESIAN_POINT('',(0.011,0.011,-0.0035));
#640=CARTESIAN_POINT('',(0.00401047815751739,0.00401047815751737,-0.0035));
#641=CARTESIAN_POINT('',(0.0025962645951443,0.00542469171989047,-0.0035));
#642=CARTESIAN_POINT('',(-0.000293052357146747,0.00236366538668224,-0.00268163231438706));
#643=CARTESIAN_POINT('',(-0.000636286213419179,0.00227826686920547,-0.00349956227340545));
#644=CARTESIAN_POINT('',(-0.000291895091122695,0.00236373758302688,-0.00432011859198459));
#645=CARTESIAN_POINT('',(0.000298780250142336,0.00237673726870454,-0.00491945805934018));
#646=CARTESIAN_POINT('',(0.00100218968809343,0.00219080300010555,-0.00537551510292613));
#647=CARTESIAN_POINT('',(0.00170792260632788,0.00171191136007885,-0.0055617335162859));
#648=CARTESIAN_POINT('',(0.00218924489119492,0.00100610556372299,-0.00537754126521769));
#649=CARTESIAN_POINT('',(0.00237667961412998,0.000301039758695669,-0.00492134361729876));
#650=CARTESIAN_POINT('',(0.00236380307154417,-0.000292174862367945,-0.00432098810933878));
#651=CARTESIAN_POINT('',(0.00227814191815018,-0.00063668257147826,-0.00349530282262262));
#652=CARTESIAN_POINT('',(0.00236410545015344,-0.000291161738394429,-0.00267953127059817));
#653=CARTESIAN_POINT('',(0.00237615656122125,0.000303439949681754,-0.0020764076401504));
#654=CARTESIAN_POINT('',(0.00218981851611477,0.00100438558269203,-0.00162361976492528));
#655=CARTESIAN_POINT('',(0.0017084128209099,0.0017115781642934,-0.00143806185206699));
#656=CARTESIAN_POINT('',(0.00100349268085619,0.0021900250115953,-0.00162413677178268));
#657=CARTESIAN_POINT('',(0.000300483433986684,0.00237671364828762,-0.00207875804372745));
#658=CARTESIAN_POINT('',(-0.000293052357146747,0.00236366538668224,-0.00268163231438706));
#659=CARTESIAN_POINT('',(-0.000636286213419179,0.00227826686920547,-0.00349956227340545));
#660=CARTESIAN_POINT('',(-0.000291895091122695,0.00236373758302688,-0.00432011859198459));
#661=CARTESIAN_POINT('',(-0.00052168205032436,0.00230674507442183,-0.00349999999999891));
#662=CARTESIAN_POINT('',(0.,0.,0.00269999999994752));
#663=CARTESIAN_POINT('',(0.,0.,0.0025));
#664=CARTESIAN_POINT('',(0.002365,0.,0.0025));
#665=CARTESIAN_POINT('',(0.,0.,-0.00025));
#666=CARTESIAN_POINT('',(0.,0.,-0.00025));
#667=CARTESIAN_POINT('',(0.011,0.,-0.00025));
#668=CARTESIAN_POINT('',(-0.01075,1.33180339407275E-18,0.));
#669=CARTESIAN_POINT('',(-0.01075,-0.000328672503497975,0.));
#670=CARTESIAN_POINT('',(-0.0107189195638043,-0.00098789142586681,0.));
#671=CARTESIAN_POINT('',(-0.0105895805924022,-0.00194157800584682,0.));
#672=CARTESIAN_POINT('',(-0.0103459543294561,-0.00298241343132926,0.));
#673=CARTESIAN_POINT('',(-0.0100163240853758,-0.00395057844989668,0.));
#674=CARTESIAN_POINT('',(-0.00956009474756743,-0.00495738153582477,0.));
#675=CARTESIAN_POINT('',(-0.00883411037640256,-0.00619920707550107,0.));
#676=CARTESIAN_POINT('',(-0.00765805905854748,-0.00765780137472072,0.));
#677=CARTESIAN_POINT('',(-0.00619870193673194,-0.00883437828911373,0.));
#678=CARTESIAN_POINT('',(-0.00495823924884386,-0.00955966404145264,0.));
#679=CARTESIAN_POINT('',(-0.00395012319615787,-0.0100165029467207,0.));
#680=CARTESIAN_POINT('',(-0.00298337673326549,-0.0103456695901911,0.));
#681=CARTESIAN_POINT('',(-0.00194120674633692,-0.0105896666219659,0.));
#682=CARTESIAN_POINT('',(-0.000988413161970179,-0.0107188601848144,0.));
#683=CARTESIAN_POINT('',(2.63688747858066E-7,-0.0107655456539556,0.));
#684=CARTESIAN_POINT('',(0.000987358406978736,-0.0107189571993634,0.));
#685=CARTESIAN_POINT('',(0.00194172082663882,-0.0105895705080844,0.));
#686=CARTESIAN_POINT('',(0.00298237516704933,-0.0103459570311681,0.));
#687=CARTESIAN_POINT('',(0.00395058868627706,-0.0100163233628255,0.));
#688=CARTESIAN_POINT('',(0.00495737885458327,-0.00956009493605666,0.));
#689=CARTESIAN_POINT('',(0.00619920862072891,-0.00883411027168274,0.));
#690=CARTESIAN_POINT('',(0.00765780087387766,-0.00765805905857949,0.));
#691=CARTESIAN_POINT('',(0.00883437824641505,-0.00619870204135573,0.));
#692=CARTESIAN_POINT('',(0.00955966421847888,-0.00495823906051463,0.));
#693=CARTESIAN_POINT('',(0.0100165022263751,-0.00395012391811245,0.));
#694=CARTESIAN_POINT('',(0.0103456722945474,-0.00298337403377639,0.));
#695=CARTESIAN_POINT('',(0.0105896565248776,-0.00194121682235819,0.));
#696=CARTESIAN_POINT('',(0.0107188978688113,-0.000988375557374194,0.));
#697=CARTESIAN_POINT('',(0.01075,-0.000328850273736271,0.));
#698=CARTESIAN_POINT('',(0.01075,0.,0.));
#699=CARTESIAN_POINT('',(-0.01075,1.32261854307914E-18,-1.30104260698261E-19));
#700=CARTESIAN_POINT('',(0.01075,0.,-1.30104260698261E-19));
#701=CARTESIAN_POINT('',(0.01075,0.,0.));
#702=CARTESIAN_POINT('',(0.01075,0.000328672503499039,0.));
#703=CARTESIAN_POINT('',(0.0107189195638045,0.000987891425868333,0.));
#704=CARTESIAN_POINT('',(0.0105895805924016,0.00194157800584947,0.));
#705=CARTESIAN_POINT('',(0.0103459543294582,0.00298241343131717,0.));
#706=CARTESIAN_POINT('',(0.0100163240853734,0.00395057844990256,0.));
#707=CARTESIAN_POINT('',(0.00956009474757481,0.00495738153581338,0.));
#708=CARTESIAN_POINT('',(0.00883411037639796,0.00619920707550784,0.));
#709=CARTESIAN_POINT('',(0.0076580590585519,0.00765780137471678,0.));
#710=CARTESIAN_POINT('',(0.00619870193672331,0.00883437828911877,0.));
#711=CARTESIAN_POINT('',(0.00495823924885851,0.00955966404144436,0.));
#712=CARTESIAN_POINT('',(0.00395012319615543,0.0100165029467219,0.));
#713=CARTESIAN_POINT('',(0.00298337673326056,0.0103456695901949,0.));
#714=CARTESIAN_POINT('',(0.00194120674634266,0.0105896666219649,0.));
#715=CARTESIAN_POINT('',(0.00098841316195218,0.0107188601848147,0.));
#716=CARTESIAN_POINT('',(-2.63688743983142E-7,0.0107655456539554,0.));
#717=CARTESIAN_POINT('',(-0.000987358406976247,0.0107189571993635,0.));
#718=CARTESIAN_POINT('',(-0.00194172082664162,0.0105895705080838,0.));
#719=CARTESIAN_POINT('',(-0.00298237516704064,0.0103459570311705,0.));
#720=CARTESIAN_POINT('',(-0.00395058868628046,0.0100163233628241,0.));
#721=CARTESIAN_POINT('',(-0.0049573788545783,0.00956009493605968,0.));
#722=CARTESIAN_POINT('',(-0.00619920862073182,0.008834110271681,0.));
#723=CARTESIAN_POINT('',(-0.00765780087387631,0.00765805905858011,0.));
#724=CARTESIAN_POINT('',(-0.00883437824641618,0.00619870204135563,0.));
#725=CARTESIAN_POINT('',(-0.00955966421847711,0.00495823906051469,0.));
#726=CARTESIAN_POINT('',(-0.010016502226376,0.00395012391811036,0.));
#727=CARTESIAN_POINT('',(-0.0103456722945458,0.00298337403378467,0.));
#728=CARTESIAN_POINT('',(-0.010589656524878,0.00194121682235604,0.));
#729=CARTESIAN_POINT('',(-0.0107188978688112,0.00098837555737452,0.));
#730=CARTESIAN_POINT('',(-0.01075,0.000328850273736137,0.));
#731=CARTESIAN_POINT('',(-0.01075,1.33180339407275E-18,0.));
#732=CARTESIAN_POINT('',(0.,0.,0.0027));
#733=CARTESIAN_POINT('',(0.,0.,0.));
#734=CARTESIAN_POINT('',(-0.0039625,0.,0.));
#735=CARTESIAN_POINT('',(0.,0.,-0.0067));
#736=CARTESIAN_POINT('',(0.00634887953654269,0.0090207630840969,-0.00539267565813473));
#737=CARTESIAN_POINT('',(0.00564938554050498,0.00943203674217502,-0.0034996009269938));
#738=CARTESIAN_POINT('',(0.00634842382106956,0.00902091942287294,-0.00160892063389008));
#739=CARTESIAN_POINT('',(0.00782310776929352,0.00782675817653058,-0.000826011319386978));
#740=CARTESIAN_POINT('',(0.00902201192747335,0.00634727534345951,-0.00160903672679936));
#741=CARTESIAN_POINT('',(0.00943124867825992,0.0056504229925193,-0.00349902174861533));
#742=CARTESIAN_POINT('',(0.00902282215051225,0.00634587928791105,-0.00538886227506626));
#743=CARTESIAN_POINT('',(0.00782596246222683,0.0078239750755271,-0.00617411478614951));
#744=CARTESIAN_POINT('',(0.00634887953654269,0.0090207630840969,-0.00539267565813473));
#745=CARTESIAN_POINT('',(0.00564938554050498,0.00943203674217502,-0.0034996009269938));
#746=CARTESIAN_POINT('',(0.00634842382106956,0.00902091942287294,-0.00160892063389008));
#747=CARTESIAN_POINT('',(0.00588247425327203,0.00929497157927832,-0.0035));
#748=CARTESIAN_POINT('',(0.,0.,-0.00645));
#749=CARTESIAN_POINT('',(0.011,0.,-0.00645));
#750=CARTESIAN_POINT('',(0.,0.,-0.0067));
#751=CARTESIAN_POINT('',(0.,0.,-0.00649999999995998));
#752=CARTESIAN_POINT('',(-0.00236499999999751,0.,-0.00649999999995998));
#753=CARTESIAN_POINT('',(0.,0.,0.));
#754=CARTESIAN_POINT('',(0.,0.008,0.));
#755=CARTESIAN_POINT('',(0.00135,0.008,0.));
#756=CARTESIAN_POINT('',(0.008,0.,0.));
#757=CARTESIAN_POINT('',(0.00935,0.,0.));
#758=CARTESIAN_POINT('',(0.,-0.008,0.));
#759=CARTESIAN_POINT('',(0.00135,-0.008,0.));
#760=CARTESIAN_POINT('',(-0.008,0.,0.));
#761=CARTESIAN_POINT('',(-0.00665,0.,0.));
#762=CARTESIAN_POINT('',(0.,0.,-0.00645));
#763=CARTESIAN_POINT('',(0.01075,0.,-0.0067));
#764=CARTESIAN_POINT('',(0.01075,0.000328672503497841,-0.0067));
#765=CARTESIAN_POINT('',(0.0107189195638043,0.000987891425866694,-0.0067));
#766=CARTESIAN_POINT('',(0.0105895805924023,0.00194157800584622,-0.0067));
#767=CARTESIAN_POINT('',(0.0103459543294557,0.0029824134313318,-0.0067));
#768=CARTESIAN_POINT('',(0.0100163240853761,0.00395057844989591,-0.0067));
#769=CARTESIAN_POINT('',(0.0095600947475666,0.00495738153582542,-0.0067));
#770=CARTESIAN_POINT('',(0.00883411037640302,0.00619920707550073,-0.0067));
#771=CARTESIAN_POINT('',(0.00765805905854736,0.00765780137472054,-0.0067));
#772=CARTESIAN_POINT('',(0.00619870193673186,0.0088343782891146,-0.0067));
#773=CARTESIAN_POINT('',(0.00495823924884402,0.00955966404145112,-0.0067));
#774=CARTESIAN_POINT('',(0.00395012319615791,0.0100165029467208,-0.0067));
#775=CARTESIAN_POINT('',(0.00298337673326518,0.0103456695901925,-0.0067));
#776=CARTESIAN_POINT('',(0.00194120674633873,0.0105896666219655,-0.0067));
#777=CARTESIAN_POINT('',(0.000988413161963247,0.0107188601848146,-0.0067));
#778=CARTESIAN_POINT('',(-2.63688748164018E-7,0.0107655456539554,-0.0067));
#779=CARTESIAN_POINT('',(-0.000987358406970602,0.0107189571993637,-0.0067));
#780=CARTESIAN_POINT('',(-0.00194172082664483,0.0105895705080832,-0.0067));
#781=CARTESIAN_POINT('',(-0.00298237516703342,0.0103459570311729,-0.0067));
#782=CARTESIAN_POINT('',(-0.00395058868628523,0.0100163233628223,-0.0067));
#783=CARTESIAN_POINT('',(-0.00495737885456649,0.00956009493606474,-0.0067));
#784=CARTESIAN_POINT('',(-0.00619920862073866,0.00883411027167806,-0.0067));
#785=CARTESIAN_POINT('',(-0.00765780087387381,0.00765805905858128,-0.0067));
#786=CARTESIAN_POINT('',(-0.00883437824641684,0.00619870204135506,-0.0067));
#787=CARTESIAN_POINT('',(-0.00955966421847646,0.00495823906051548,-0.0067));
#788=CARTESIAN_POINT('',(-0.0100165022263755,0.00395012391811166,-0.0067));
#789=CARTESIAN_POINT('',(-0.0103456722945483,0.00298337403377864,-0.0067));
#790=CARTESIAN_POINT('',(-0.0105896565248774,0.00194121682235935,-0.0067));
#791=CARTESIAN_POINT('',(-0.0107188978688114,0.000988375557367336,-0.0067));
#792=CARTESIAN_POINT('',(-0.01075,0.000328850273733225,-0.0067));
#793=CARTESIAN_POINT('',(-0.01075,1.33180339407275E-18,-0.0067));
#794=CARTESIAN_POINT('',(0.01075,0.,-0.0067));
#795=CARTESIAN_POINT('',(-0.01075,1.32261854307914E-18,-0.0067));
#796=CARTESIAN_POINT('',(-0.01075,1.33180339407275E-18,-0.0067));
#797=CARTESIAN_POINT('',(-0.01075,-0.000328672503497975,-0.0067));
#798=CARTESIAN_POINT('',(-0.0107189195638044,-0.00098789142586622,-0.0067));
#799=CARTESIAN_POINT('',(-0.0105895805924018,-0.00194157800584888,-0.0067));
#800=CARTESIAN_POINT('',(-0.0103459543294577,-0.00298241343132161,-0.0067));
#801=CARTESIAN_POINT('',(-0.0100163240853744,-0.00395057844990024,-0.0067));
#802=CARTESIAN_POINT('',(-0.00956009474757151,-0.00495738153581823,-0.0067));
#803=CARTESIAN_POINT('',(-0.00883411037639993,-0.006199207075505,-0.0067));
#804=CARTESIAN_POINT('',(-0.00765805905855056,-0.00765780137471808,-0.0067));
#805=CARTESIAN_POINT('',(-0.00619870193672534,-0.0088343782891177,-0.0067));
#806=CARTESIAN_POINT('',(-0.00495823924885512,-0.00955966404144603,-0.0067));
#807=CARTESIAN_POINT('',(-0.00395012319615293,-0.0100165029467228,-0.0067));
#808=CARTESIAN_POINT('',(-0.00298337673327395,-0.0103456695901897,-0.0067));
#809=CARTESIAN_POINT('',(-0.00194120674633544,-0.0105896666219663,-0.0067));
#810=CARTESIAN_POINT('',(-0.000988413161967644,-0.0107188601848143,-0.0067));
#811=CARTESIAN_POINT('',(2.63688746156179E-7,-0.0107655456539556,-0.0067));
#812=CARTESIAN_POINT('',(0.000987358406983019,-0.0107189571993634,-0.0067));
#813=CARTESIAN_POINT('',(0.00194172082663854,-0.0105895705080844,-0.0067));
#814=CARTESIAN_POINT('',(0.00298237516704616,-0.0103459570311682,-0.0067));
#815=CARTESIAN_POINT('',(0.00395058868628092,-0.0100163233628239,-0.0067));
#816=CARTESIAN_POINT('',(0.00495737885457092,-0.00956009493606294,-0.0067));
#817=CARTESIAN_POINT('',(0.00619920862073623,-0.00883411027167886,-0.0067));
#818=CARTESIAN_POINT('',(0.00765780087387356,-0.00765805905858307,-0.0067));
#819=CARTESIAN_POINT('',(0.00883437824642005,-0.00619870204134887,-0.0067));
#820=CARTESIAN_POINT('',(0.00955966421847071,-0.00495823906052626,-0.0067));
#821=CARTESIAN_POINT('',(0.0100165022263785,-0.00395012391810399,-0.0067));
#822=CARTESIAN_POINT('',(0.0103456722945422,-0.00298337403379855,-0.0067));
#823=CARTESIAN_POINT('',(0.010589656524879,-0.00194121682235139,-0.0067));
#824=CARTESIAN_POINT('',(0.0107188978688109,-0.000988375557379271,-0.0067));
#825=CARTESIAN_POINT('',(0.01075,-0.000328850273737732,-0.0067));
#826=CARTESIAN_POINT('',(0.01075,0.,-0.0067));
#827=CARTESIAN_POINT('',(0.,0.,-0.00670000000002346));
#828=CARTESIAN_POINT('',(0.,8.97974514905644E-51,-0.00670000000002346));
#829=CARTESIAN_POINT('',(0.,0.00256500000000415,-0.00670000000002346));
#830=CARTESIAN_POINT('',(-0.008,0.,-0.0067));
#831=CARTESIAN_POINT('',(-0.008,0.,-0.0067));
#832=CARTESIAN_POINT('',(-0.00665,0.,-0.0067));
#833=CARTESIAN_POINT('',(0.,-0.008,-0.0067));
#834=CARTESIAN_POINT('',(0.,-0.008,-0.0067));
#835=CARTESIAN_POINT('',(0.00135,-0.008,-0.0067));
#836=CARTESIAN_POINT('',(0.008,0.,-0.0067));
#837=CARTESIAN_POINT('',(0.008,0.,-0.0067));
#838=CARTESIAN_POINT('',(0.00935,0.,-0.0067));
#839=CARTESIAN_POINT('',(0.,0.008,-0.0067));
#840=CARTESIAN_POINT('',(0.,0.008,-0.0067));
#841=CARTESIAN_POINT('',(0.00135,0.008,-0.0067));
#842=CARTESIAN_POINT('',(0.,0.,-0.0067));
#843=CARTESIAN_POINT('',(0.0181051669162706,0.0181051669162706,-0.0035));
#844=CARTESIAN_POINT('',(0.00879084526749769,0.00879084526749765,-0.0035));
#845=CARTESIAN_POINT('',(0.00708459660449455,0.0104970939305008,-0.0035));
#846=CARTESIAN_POINT('',(0.00879084526749809,0.00879084526749806,-0.0035));
#847=CARTESIAN_POINT('',(0.00912491079523649,0.00912491079523646,-0.0035));
#848=CARTESIAN_POINT('',(0.0104970939304952,0.00775272765997771,-0.0035));
#849=CARTESIAN_POINT('',(0.00912491079520146,0.00912491079520143,-0.0035));
#850=CARTESIAN_POINT('',(0.0092296506448276,0.00902017094557529,-0.00486607493496291));
#851=CARTESIAN_POINT('',(0.0092296506448276,0.00902017094557529,-0.00486607493496291));
#852=CARTESIAN_POINT('',(0.00834073408474832,0.00990908750565457,-0.00431131706114139));
#853=CARTESIAN_POINT('',(0.0092296506448276,0.00902017094557529,-0.00486607493496291));
#854=CARTESIAN_POINT('',(0.0100138273552807,0.00823599423512215,-0.00405475787382152));
#855=CARTESIAN_POINT('',(0.00990908750565461,0.00834073408474828,-0.00268868293885861));
#856=CARTESIAN_POINT('',(0.00990908750565461,0.00834073408474828,-0.00268868293885861));
#857=CARTESIAN_POINT('',(0.00902017094557533,0.00922965064482756,-0.00213392506503709));
#858=CARTESIAN_POINT('',(0.00902017094557533,0.00922965064482756,-0.00213392506503709));
#859=CARTESIAN_POINT('',(0.00902017094557533,0.00922965064482756,-0.00213392506503709));
#860=CARTESIAN_POINT('',(0.00823599423512219,0.0100138273552807,-0.00294524212617847));
#861=CARTESIAN_POINT('',(0.00823599423512219,0.0100138273552807,-0.00294524212617848));
#862=CARTESIAN_POINT('',(0.00821777613106691,0.00643994301090832,-0.00405475787382152));
#863=CARTESIAN_POINT('',(0.00743359942061376,0.00722411972136147,-0.00486607493496291));
#864=CARTESIAN_POINT('',(0.00743359942061376,0.00722411972136147,-0.00486607493496291));
#865=CARTESIAN_POINT('',(0.00821777613106691,0.00643994301090832,-0.00405475787382152));
#866=CARTESIAN_POINT('',(0.00821777613106691,0.00643994301090832,-0.00405475787382152));
#867=CARTESIAN_POINT('',(0.0100138273552807,0.00823599423512215,-0.00405475787382152));
#868=CARTESIAN_POINT('',(0.00654468286053449,0.00811303628144074,-0.00431131706114139));
#869=CARTESIAN_POINT('',(0.00654468286053449,0.00811303628144074,-0.00431131706114139));
#870=CARTESIAN_POINT('',(0.00654468286053449,0.00811303628144074,-0.00431131706114139));
#871=CARTESIAN_POINT('',(0.00834073408474832,0.00990908750565457,-0.00431131706114139));
#872=CARTESIAN_POINT('',(0.00900195284152005,0.00565576630045517,-0.00324344081268014));
#873=CARTESIAN_POINT('',(0.00821777613106691,0.00643994301090832,-0.00405475787382152));
#874=CARTESIAN_POINT('',(0.00811303628144078,0.00654468286053445,-0.00268868293885861));
#875=CARTESIAN_POINT('',(0.00643994301090835,0.00821777613106688,-0.00294524212617848));
#876=CARTESIAN_POINT('',(0.00643994301090835,0.00821777613106688,-0.00294524212617848));
#877=CARTESIAN_POINT('',(0.00643994301090835,0.00821777613106688,-0.00294524212617848));
#878=CARTESIAN_POINT('',(0.0072241197213615,0.00743359942061373,-0.00213392506503709));
#879=CARTESIAN_POINT('',(0.00811303628144078,0.00654468286053445,-0.00268868293885861));
#880=CARTESIAN_POINT('',(0.00811303628144078,0.00654468286053445,-0.00268868293885861));
#881=CARTESIAN_POINT('',(0.00811303628144078,0.00654468286053445,-0.00268868293885861));
#882=CARTESIAN_POINT('',(0.00643994301090835,0.00821777613106688,-0.00294524212617848));
#883=CARTESIAN_POINT('',(0.00643994301090835,0.00821777613106688,-0.00294524212617848));
#884=CARTESIAN_POINT('',(0.00811303628144078,0.00654468286053445,-0.00268868293885861));
#885=CARTESIAN_POINT('',(0.0072241197213615,0.00743359942061373,-0.00213392506503709));
#886=CARTESIAN_POINT('',(0.00643994301090835,0.00821777613106688,-0.00294524212617848));
#887=CARTESIAN_POINT('',(0.00430251325818177,0.00430251325818175,-0.0035));
#888=CARTESIAN_POINT('',(0.00351225071949558,0.00351225071949556,-0.0035));
#889=CARTESIAN_POINT('',(0.00341350843780219,0.00361099300118895,-0.00221214865626962));
#890=CARTESIAN_POINT('',(0.0035122507195332,0.0035122507195331,-0.0035));
#891=CARTESIAN_POINT('',(0.00406263070923024,0.00406263070923013,-0.0035));
#892=MECHANICAL_DESIGN_GEOMETRIC_PRESENTATION_REPRESENTATION('',(#430),
#893);
#893=(
GEOMETRIC_REPRESENTATION_CONTEXT(3)
GLOBAL_UNCERTAINTY_ASSIGNED_CONTEXT((#894))
GLOBAL_UNIT_ASSIGNED_CONTEXT((#897,#896,#895))
REPRESENTATION_CONTEXT('Part 3','TOP_LEVEL_ASSEMBLY_PART')
);
#894=UNCERTAINTY_MEASURE_WITH_UNIT(LENGTH_MEASURE(2.E-5),#897,
'DISTANCE_ACCURACY_VALUE','Maximum Tolerance applied to model');
#895=(
NAMED_UNIT(*)
SI_UNIT($,.STERADIAN.)
SOLID_ANGLE_UNIT()
);
#896=(
NAMED_UNIT(*)
PLANE_ANGLE_UNIT()
SI_UNIT($,.RADIAN.)
);
#897=(
LENGTH_UNIT()
NAMED_UNIT(*)
SI_UNIT($,.METRE.)
);
#898=PRODUCT_DEFINITION_SHAPE('','',#899);
#899=PRODUCT_DEFINITION('','',#901,#900);
#900=PRODUCT_DEFINITION_CONTEXT('',#907,'design');
#901=PRODUCT_DEFINITION_FORMATION_WITH_SPECIFIED_SOURCE('','',#903,
 .NOT_KNOWN.);
#902=PRODUCT_RELATED_PRODUCT_CATEGORY('','',(#903));
#903=PRODUCT('Part 3','Part 3','Part 3',(#905));
#904=PRODUCT_CATEGORY('','');
#905=PRODUCT_CONTEXT('',#907,'mechanical');
#906=APPLICATION_PROTOCOL_DEFINITION('international standard',
'ap242_managed_model_based_3d_engineering',2020,#907);
#907=APPLICATION_CONTEXT('managed model based 3d engineering');
ENDSEC;
END-ISO-10303-21;
