ISO-10303-21;
HEADER;
/* Generated by software containing ST-Developer
 * from STEP Tools, Inc. (www.steptools.com) 
 */
/* OPTION: using custom renumber hook */

FILE_DESCRIPTION(
/* description */ ('STEP AP242 Edition 2',
'CAx-IF Rec.Pracs.---Representation and Presentation of Product Manufa
cturing Information (PMI)---4.0---2014-10-13',
'CAx-IF Rec.Pracs.---3D Tessellated Geometry---0.4---2014-09-14','2;1',
'CAx-IF Rec.Pracs.---User Defined Attributes---1.5---2016-08-15'),
/* implementation_level */ '2;1');

FILE_NAME(
/* name */ 'Tetrix Steel Axle 100mm(2) - Chamfer1',
/* time_stamp */ '2026-05-11T01:34:29Z',
/* author */ (''),
/* organization */ (''),
/* preprocessor_version */ 'ST-DEVELOPER v20',
/* originating_system */ 'ONSHAPE BY PTC INC, 1.214',
/* authorisation */ '  ');

FILE_SCHEMA (('AP242_MANAGED_MODEL_BASED_3D_ENGINEERING_MIM_LF { 1 0 10303 442 3 1 4 }'));
ENDSEC;

DATA;
#10=SHAPE_REPRESENTATION_RELATIONSHIP('','',#91,#11);
#11=ADVANCED_BREP_SHAPE_REPRESENTATION('',(#89),#157);
#12=CYLINDRICAL_SURFACE('',#102,0.00235);
#13=CONICAL_SURFACE('',#98,0.00235000000003538,0.785398163397448);
#14=CONICAL_SURFACE('',#100,0.00234999999997854,0.785398163397448);
#15=LINE('',#139,#17);
#16=LINE('',#147,#18);
#17=VECTOR('',#111,1.);
#18=VECTOR('',#112,1.);
#19=B_SPLINE_CURVE_WITH_KNOTS('',3,(#132,#133,#134,#135,#136),
 .UNSPECIFIED.,.F.,.F.,(4,1,4),(2.90980431838756E-15,0.00137977903391354,
0.00275955806782418),.UNSPECIFIED.);
#20=B_SPLINE_CURVE_WITH_KNOTS('',3,(#141,#142,#143,#144,#145),
 .UNSPECIFIED.,.F.,.F.,(4,1,4),(3.98165701165742E-15,0.00137977903395557,
0.00275955806790716),.UNSPECIFIED.);
#21=ORIENTED_EDGE('',*,*,#37,.F.);
#22=ORIENTED_EDGE('',*,*,#38,.F.);
#23=ORIENTED_EDGE('',*,*,#39,.F.);
#24=ORIENTED_EDGE('',*,*,#40,.F.);
#25=ORIENTED_EDGE('',*,*,#41,.F.);
#26=ORIENTED_EDGE('',*,*,#42,.F.);
#27=ORIENTED_EDGE('',*,*,#37,.T.);
#28=ORIENTED_EDGE('',*,*,#43,.F.);
#29=ORIENTED_EDGE('',*,*,#40,.T.);
#30=ORIENTED_EDGE('',*,*,#44,.F.);
#31=ORIENTED_EDGE('',*,*,#38,.T.);
#32=ORIENTED_EDGE('',*,*,#42,.T.);
#33=ORIENTED_EDGE('',*,*,#43,.T.);
#34=ORIENTED_EDGE('',*,*,#39,.T.);
#35=ORIENTED_EDGE('',*,*,#44,.T.);
#36=ORIENTED_EDGE('',*,*,#41,.T.);
#37=EDGE_CURVE('',#45,#45,#51,.T.);
#38=EDGE_CURVE('',#46,#47,#19,.T.);
#39=EDGE_CURVE('',#48,#46,#15,.T.);
#40=EDGE_CURVE('',#49,#48,#20,.T.);
#41=EDGE_CURVE('',#47,#49,#16,.F.);
#42=EDGE_CURVE('',#50,#50,#52,.T.);
#43=EDGE_CURVE('',#49,#48,#53,.T.);
#44=EDGE_CURVE('',#46,#47,#54,.F.);
#45=VERTEX_POINT('',#130);
#46=VERTEX_POINT('',#137);
#47=VERTEX_POINT('',#138);
#48=VERTEX_POINT('',#140);
#49=VERTEX_POINT('',#146);
#50=VERTEX_POINT('',#150);
#51=CIRCLE('',#94,0.0018500000000472);
#52=CIRCLE('',#97,0.00184999999999036);
#53=CIRCLE('',#99,0.00235);
#54=CIRCLE('',#101,0.00235);
#55=EDGE_LOOP('',(#21));
#56=EDGE_LOOP('',(#22,#23,#24,#25));
#57=EDGE_LOOP('',(#26));
#58=EDGE_LOOP('',(#27));
#59=EDGE_LOOP('',(#28,#29));
#60=EDGE_LOOP('',(#30,#31));
#61=EDGE_LOOP('',(#32));
#62=EDGE_LOOP('',(#33,#34,#35,#36));
#63=FACE_BOUND('',#55,.T.);
#64=FACE_BOUND('',#56,.T.);
#65=FACE_BOUND('',#57,.T.);
#66=FACE_BOUND('',#58,.T.);
#67=FACE_BOUND('',#59,.T.);
#68=FACE_BOUND('',#60,.T.);
#69=FACE_BOUND('',#61,.T.);
#70=FACE_BOUND('',#62,.T.);
#71=PLANE('',#93);
#72=PLANE('',#95);
#73=PLANE('',#96);
#74=ADVANCED_FACE('NONE',(#63),#71,.T.);
#75=ADVANCED_FACE('',(#64),#72,.F.);
#76=ADVANCED_FACE('',(#65),#73,.F.);
#77=ADVANCED_FACE('',(#66,#67),#13,.T.);
#78=ADVANCED_FACE('',(#68,#69),#14,.T.);
#79=ADVANCED_FACE('',(#70),#12,.T.);
#80=CLOSED_SHELL('',(#74,#75,#76,#77,#78,#79));
#81=STYLED_ITEM('',(#82),#89);
#82=PRESENTATION_STYLE_ASSIGNMENT((#83));
#83=SURFACE_STYLE_USAGE(.BOTH.,#84);
#84=SURFACE_SIDE_STYLE('',(#85));
#85=SURFACE_STYLE_FILL_AREA(#86);
#86=FILL_AREA_STYLE('',(#87));
#87=FILL_AREA_STYLE_COLOUR('',#88);
#88=COLOUR_RGB('',0.792156862745098,0.819607843137255,0.933333333333333);
#89=MANIFOLD_SOLID_BREP('Chamfer1',#80);
#90=SHAPE_DEFINITION_REPRESENTATION(#162,#91);
#91=SHAPE_REPRESENTATION('Chamfer1',(#92),#157);
#92=AXIS2_PLACEMENT_3D('',#127,#103,#104);
#93=AXIS2_PLACEMENT_3D('',#128,#105,#106);
#94=AXIS2_PLACEMENT_3D('',#129,#107,#108);
#95=AXIS2_PLACEMENT_3D('',#131,#109,#110);
#96=AXIS2_PLACEMENT_3D('',#148,#113,#114);
#97=AXIS2_PLACEMENT_3D('',#149,#115,#116);
#98=AXIS2_PLACEMENT_3D('',#151,#117,#118);
#99=AXIS2_PLACEMENT_3D('',#152,#119,#120);
#100=AXIS2_PLACEMENT_3D('',#153,#121,#122);
#101=AXIS2_PLACEMENT_3D('',#154,#123,#124);
#102=AXIS2_PLACEMENT_3D('',#155,#125,#126);
#103=DIRECTION('',(0.,0.,1.));
#104=DIRECTION('',(1.,0.,0.));
#105=DIRECTION('',(0.,0.,1.));
#106=DIRECTION('',(1.,0.,0.));
#107=DIRECTION('',(0.,-2.95272081012884E-15,-1.));
#108=DIRECTION('',(0.,1.,-2.95272081012884E-15));
#109=DIRECTION('',(0.,-1.,0.));
#110=DIRECTION('',(0.,0.,-1.));
#111=DIRECTION('',(0.,0.,-1.));
#112=DIRECTION('',(0.,0.,-1.));
#113=DIRECTION('',(0.,0.,1.));
#114=DIRECTION('',(1.,0.,0.));
#115=DIRECTION('',(0.,0.,1.));
#116=DIRECTION('',(1.,0.,0.));
#117=DIRECTION('',(0.,-2.95272081012884E-15,-1.));
#118=DIRECTION('',(0.,1.,-2.95272081012884E-15));
#119=DIRECTION('',(0.,0.,-1.));
#120=DIRECTION('',(-1.,0.,0.));
#121=DIRECTION('',(0.,0.,1.));
#122=DIRECTION('',(1.,0.,0.));
#123=DIRECTION('',(0.,0.,-1.));
#124=DIRECTION('',(-1.,0.,0.));
#125=DIRECTION('',(0.,0.,-1.));
#126=DIRECTION('',(-1.,0.,0.));
#127=CARTESIAN_POINT('',(0.,0.,0.));
#128=CARTESIAN_POINT('',(0.,0.,0.1));
#129=CARTESIAN_POINT('',(0.,1.47636040502951E-18,0.100000000000023));
#130=CARTESIAN_POINT('',(0.,0.0018500000000472,0.100000000000023));
#131=CARTESIAN_POINT('',(-0.0013114877048604,0.00195,0.1));
#132=CARTESIAN_POINT('',(-0.00131148770485213,0.00195,0.000500000000005026));
#133=CARTESIAN_POINT('',(-0.000906448627293204,0.00195,0.000273955842471314));
#134=CARTESIAN_POINT('',(-2.04223804467756E-6,0.00195,-7.37990973524158E-5));
#135=CARTESIAN_POINT('',(0.000905889374233276,0.00195,0.000273643734593761));
#136=CARTESIAN_POINT('',(0.00131148770485277,0.00195,0.000500000000005352));
#137=CARTESIAN_POINT('',(-0.00131148770485626,0.00195,0.00050000000000252));
#138=CARTESIAN_POINT('',(0.00131148770485658,0.00195,0.000500000000002696));
#139=CARTESIAN_POINT('',(-0.0013114877048604,0.00195,0.1));
#140=CARTESIAN_POINT('',(-0.00131148770487528,0.00195,0.0995000000000267));
#141=CARTESIAN_POINT('',(0.00131148770489016,0.00195,0.0995000000000533));
#142=CARTESIAN_POINT('',(0.000906448627321273,0.00195,0.0997260441575971));
#143=CARTESIAN_POINT('',(2.04223804757379E-6,0.00195,0.100073799097443));
#144=CARTESIAN_POINT('',(-0.000905889374260515,0.00195,0.0997263562654751));
#145=CARTESIAN_POINT('',(-0.00131148770489018,0.00195,0.0995000000000534));
#146=CARTESIAN_POINT('',(0.00131148770487528,0.00195,0.0995000000000267));
#147=CARTESIAN_POINT('',(0.0013114877048604,0.00195,0.1));
#148=CARTESIAN_POINT('',(0.,0.,0.));
#149=CARTESIAN_POINT('',(0.,0.,0.));
#150=CARTESIAN_POINT('',(0.00184999999999036,0.,0.));
#151=CARTESIAN_POINT('',(0.,0.,0.0995000000000346));
#152=CARTESIAN_POINT('',(0.,0.,0.0995));
#153=CARTESIAN_POINT('',(0.,0.,0.000499999999988177));
#154=CARTESIAN_POINT('',(0.,0.,0.000500000000000014));
#155=CARTESIAN_POINT('',(0.,0.,0.1));
#156=MECHANICAL_DESIGN_GEOMETRIC_PRESENTATION_REPRESENTATION('',(#81),#157);
#157=(
GEOMETRIC_REPRESENTATION_CONTEXT(3)
GLOBAL_UNCERTAINTY_ASSIGNED_CONTEXT((#158))
GLOBAL_UNIT_ASSIGNED_CONTEXT((#161,#160,#159))
REPRESENTATION_CONTEXT('Chamfer1','TOP_LEVEL_ASSEMBLY_PART')
);
#158=UNCERTAINTY_MEASURE_WITH_UNIT(LENGTH_MEASURE(2.E-5),#161,
'DISTANCE_ACCURACY_VALUE','Maximum Tolerance applied to model');
#159=(
NAMED_UNIT(*)
SI_UNIT($,.STERADIAN.)
SOLID_ANGLE_UNIT()
);
#160=(
NAMED_UNIT(*)
PLANE_ANGLE_UNIT()
SI_UNIT($,.RADIAN.)
);
#161=(
LENGTH_UNIT()
NAMED_UNIT(*)
SI_UNIT($,.METRE.)
);
#162=PRODUCT_DEFINITION_SHAPE('','',#163);
#163=PRODUCT_DEFINITION('','',#165,#164);
#164=PRODUCT_DEFINITION_CONTEXT('',#171,'design');
#165=PRODUCT_DEFINITION_FORMATION_WITH_SPECIFIED_SOURCE('','',#167,
 .NOT_KNOWN.);
#166=PRODUCT_RELATED_PRODUCT_CATEGORY('','',(#167));
#167=PRODUCT('Chamfer1','Chamfer1','Chamfer1',(#169));
#168=PRODUCT_CATEGORY('','');
#169=PRODUCT_CONTEXT('',#171,'mechanical');
#170=APPLICATION_PROTOCOL_DEFINITION('international standard',
'ap242_managed_model_based_3d_engineering',2020,#171);
#171=APPLICATION_CONTEXT('managed model based 3d engineering');
ENDSEC;
END-ISO-10303-21;
