ISO-10303-21;
HEADER;
/* Generated by software containing ST-Developer
 * from STEP Tools, Inc. (www.steptools.com) 
 */

FILE_DESCRIPTION(
/* description */ (''),
/* implementation_level */ '2;1');

FILE_NAME(
/* name */ '09d76b00-7c7c-4301-b1b2-93331abed1e1.step',
/* time_stamp */ '2026-05-06T03:12:39Z',
/* author */ (''),
/* organization */ (''),
/* preprocessor_version */ 'ST-DEVELOPER v20.1',
/* originating_system */ 'Autodesk Translation Framework v15.8.0.0',
/* authorisation */ '');

FILE_SCHEMA (('AUTOMOTIVE_DESIGN { 1 0 10303 214 3 1 1 }'));
ENDSEC;

DATA;
#10=MECHANICAL_DESIGN_GEOMETRIC_PRESENTATION_REPRESENTATION('',(#13),#640);
#11=SHAPE_REPRESENTATION_RELATIONSHIP('SRR','None',#647,#12);
#12=ADVANCED_BREP_SHAPE_REPRESENTATION('',(#14),#639);
#13=STYLED_ITEM('',(#656),#14);
#14=MANIFOLD_SOLID_BREP('Body1',#376);
#15=FACE_BOUND('',#55,.T.);
#16=FACE_BOUND('',#62,.T.);
#17=FACE_BOUND('',#65,.T.);
#18=FACE_BOUND('',#68,.T.);
#19=FACE_BOUND('',#71,.T.);
#20=FACE_BOUND('',#72,.T.);
#21=PLANE('',#399);
#22=PLANE('',#404);
#23=PLANE('',#413);
#24=PLANE('',#417);
#25=PLANE('',#418);
#26=PLANE('',#419);
#27=PLANE('',#420);
#28=PLANE('',#421);
#29=PLANE('',#422);
#30=PLANE('',#423);
#31=PLANE('',#424);
#32=FACE_OUTER_BOUND('',#51,.T.);
#33=FACE_OUTER_BOUND('',#52,.T.);
#34=FACE_OUTER_BOUND('',#53,.T.);
#35=FACE_OUTER_BOUND('',#54,.T.);
#36=FACE_OUTER_BOUND('',#56,.T.);
#37=FACE_OUTER_BOUND('',#57,.T.);
#38=FACE_OUTER_BOUND('',#58,.T.);
#39=FACE_OUTER_BOUND('',#59,.T.);
#40=FACE_OUTER_BOUND('',#60,.T.);
#41=FACE_OUTER_BOUND('',#61,.T.);
#42=FACE_OUTER_BOUND('',#63,.T.);
#43=FACE_OUTER_BOUND('',#64,.T.);
#44=FACE_OUTER_BOUND('',#66,.T.);
#45=FACE_OUTER_BOUND('',#67,.T.);
#46=FACE_OUTER_BOUND('',#69,.T.);
#47=FACE_OUTER_BOUND('',#70,.T.);
#48=FACE_OUTER_BOUND('',#73,.T.);
#49=FACE_OUTER_BOUND('',#74,.T.);
#50=FACE_OUTER_BOUND('',#75,.T.);
#51=EDGE_LOOP('',(#247,#248,#249,#250));
#52=EDGE_LOOP('',(#251,#252,#253,#254));
#53=EDGE_LOOP('',(#255,#256,#257,#258));
#54=EDGE_LOOP('',(#259,#260,#261,#262));
#55=EDGE_LOOP('',(#263));
#56=EDGE_LOOP('',(#264,#265,#266,#267));
#57=EDGE_LOOP('',(#268,#269,#270,#271));
#58=EDGE_LOOP('',(#272,#273,#274,#275));
#59=EDGE_LOOP('',(#276,#277,#278,#279));
#60=EDGE_LOOP('',(#280,#281,#282,#283));
#61=EDGE_LOOP('',(#284,#285,#286,#287));
#62=EDGE_LOOP('',(#288));
#63=EDGE_LOOP('',(#289,#290,#291,#292));
#64=EDGE_LOOP('',(#293,#294,#295,#296));
#65=EDGE_LOOP('',(#297));
#66=EDGE_LOOP('',(#298,#299,#300,#301));
#67=EDGE_LOOP('',(#302,#303,#304,#305));
#68=EDGE_LOOP('',(#306));
#69=EDGE_LOOP('',(#307,#308,#309,#310));
#70=EDGE_LOOP('',(#311,#312,#313,#314));
#71=EDGE_LOOP('',(#315));
#72=EDGE_LOOP('',(#316));
#73=EDGE_LOOP('',(#317,#318,#319,#320));
#74=EDGE_LOOP('',(#321,#322,#323,#324,#325,#326,#327,#328,#329,#330,#331,
#332,#333,#334));
#75=EDGE_LOOP('',(#335,#336,#337,#338,#339,#340,#341,#342,#343,#344,#345,
#346,#347,#348));
#76=LINE('',#538,#111);
#77=LINE('',#541,#112);
#78=LINE('',#546,#113);
#79=LINE('',#553,#114);
#80=LINE('',#556,#115);
#81=LINE('',#559,#116);
#82=LINE('',#561,#117);
#83=LINE('',#562,#118);
#84=LINE('',#570,#119);
#85=LINE('',#572,#120);
#86=LINE('',#573,#121);
#87=LINE('',#577,#122);
#88=LINE('',#582,#123);
#89=LINE('',#588,#124);
#90=LINE('',#593,#125);
#91=LINE('',#595,#126);
#92=LINE('',#597,#127);
#93=LINE('',#598,#128);
#94=LINE('',#604,#129);
#95=LINE('',#607,#130);
#96=LINE('',#609,#131);
#97=LINE('',#610,#132);
#98=LINE('',#612,#133);
#99=LINE('',#613,#134);
#100=LINE('',#616,#135);
#101=LINE('',#618,#136);
#102=LINE('',#619,#137);
#103=LINE('',#622,#138);
#104=LINE('',#624,#139);
#105=LINE('',#625,#140);
#106=LINE('',#628,#141);
#107=LINE('',#630,#142);
#108=LINE('',#631,#143);
#109=LINE('',#633,#144);
#110=LINE('',#634,#145);
#111=VECTOR('',#431,10.);
#112=VECTOR('',#434,10.);
#113=VECTOR('',#439,10.);
#114=VECTOR('',#446,10.);
#115=VECTOR('',#449,10.);
#116=VECTOR('',#452,10.);
#117=VECTOR('',#453,10.);
#118=VECTOR('',#454,10.);
#119=VECTOR('',#463,10.);
#120=VECTOR('',#466,10.);
#121=VECTOR('',#467,10.);
#122=VECTOR('',#472,2.);
#123=VECTOR('',#477,2.);
#124=VECTOR('',#484,2.);
#125=VECTOR('',#489,10.);
#126=VECTOR('',#490,10.);
#127=VECTOR('',#491,10.);
#128=VECTOR('',#492,10.);
#129=VECTOR('',#499,10.);
#130=VECTOR('',#502,10.);
#131=VECTOR('',#503,10.);
#132=VECTOR('',#504,10.);
#133=VECTOR('',#507,10.);
#134=VECTOR('',#508,10.);
#135=VECTOR('',#511,10.);
#136=VECTOR('',#512,10.);
#137=VECTOR('',#513,10.);
#138=VECTOR('',#516,10.);
#139=VECTOR('',#517,10.);
#140=VECTOR('',#518,10.);
#141=VECTOR('',#521,10.);
#142=VECTOR('',#522,10.);
#143=VECTOR('',#523,10.);
#144=VECTOR('',#526,10.);
#145=VECTOR('',#527,10.);
#146=CIRCLE('',#391,2.5);
#147=CIRCLE('',#392,2.5);
#148=CIRCLE('',#394,22.5);
#149=CIRCLE('',#395,22.5);
#150=CIRCLE('',#397,5.);
#151=CIRCLE('',#398,5.);
#152=CIRCLE('',#400,2.);
#153=CIRCLE('',#402,24.5);
#154=CIRCLE('',#403,24.5);
#155=CIRCLE('',#406,2.);
#156=CIRCLE('',#408,2.);
#157=CIRCLE('',#409,2.);
#158=CIRCLE('',#411,2.);
#159=CIRCLE('',#412,2.);
#160=CIRCLE('',#415,18.5);
#161=CIRCLE('',#416,18.5);
#162=VERTEX_POINT('',#534);
#163=VERTEX_POINT('',#535);
#164=VERTEX_POINT('',#537);
#165=VERTEX_POINT('',#539);
#166=VERTEX_POINT('',#543);
#167=VERTEX_POINT('',#545);
#168=VERTEX_POINT('',#549);
#169=VERTEX_POINT('',#550);
#170=VERTEX_POINT('',#552);
#171=VERTEX_POINT('',#554);
#172=VERTEX_POINT('',#558);
#173=VERTEX_POINT('',#560);
#174=VERTEX_POINT('',#563);
#175=VERTEX_POINT('',#566);
#176=VERTEX_POINT('',#568);
#177=VERTEX_POINT('',#575);
#178=VERTEX_POINT('',#579);
#179=VERTEX_POINT('',#581);
#180=VERTEX_POINT('',#585);
#181=VERTEX_POINT('',#587);
#182=VERTEX_POINT('',#591);
#183=VERTEX_POINT('',#592);
#184=VERTEX_POINT('',#594);
#185=VERTEX_POINT('',#596);
#186=VERTEX_POINT('',#600);
#187=VERTEX_POINT('',#602);
#188=VERTEX_POINT('',#606);
#189=VERTEX_POINT('',#608);
#190=VERTEX_POINT('',#615);
#191=VERTEX_POINT('',#617);
#192=VERTEX_POINT('',#621);
#193=VERTEX_POINT('',#623);
#194=VERTEX_POINT('',#627);
#195=VERTEX_POINT('',#629);
#196=EDGE_CURVE('',#162,#163,#146,.T.);
#197=EDGE_CURVE('',#163,#164,#76,.T.);
#198=EDGE_CURVE('',#164,#165,#147,.T.);
#199=EDGE_CURVE('',#165,#162,#77,.T.);
#200=EDGE_CURVE('',#163,#166,#148,.T.);
#201=EDGE_CURVE('',#167,#166,#78,.T.);
#202=EDGE_CURVE('',#164,#167,#149,.T.);
#203=EDGE_CURVE('',#168,#169,#150,.T.);
#204=EDGE_CURVE('',#169,#170,#79,.T.);
#205=EDGE_CURVE('',#170,#171,#151,.T.);
#206=EDGE_CURVE('',#171,#168,#80,.T.);
#207=EDGE_CURVE('',#169,#172,#81,.T.);
#208=EDGE_CURVE('',#172,#173,#82,.T.);
#209=EDGE_CURVE('',#170,#173,#83,.T.);
#210=EDGE_CURVE('',#174,#174,#152,.T.);
#211=EDGE_CURVE('',#175,#167,#153,.T.);
#212=EDGE_CURVE('',#166,#176,#154,.T.);
#213=EDGE_CURVE('',#176,#175,#84,.T.);
#214=EDGE_CURVE('',#171,#175,#85,.T.);
#215=EDGE_CURVE('',#176,#168,#86,.T.);
#216=EDGE_CURVE('',#177,#177,#155,.T.);
#217=EDGE_CURVE('',#177,#174,#87,.T.);
#218=EDGE_CURVE('',#178,#178,#156,.T.);
#219=EDGE_CURVE('',#178,#179,#88,.T.);
#220=EDGE_CURVE('',#179,#179,#157,.T.);
#221=EDGE_CURVE('',#180,#180,#158,.T.);
#222=EDGE_CURVE('',#180,#181,#89,.T.);
#223=EDGE_CURVE('',#181,#181,#159,.T.);
#224=EDGE_CURVE('',#182,#183,#90,.T.);
#225=EDGE_CURVE('',#182,#184,#91,.T.);
#226=EDGE_CURVE('',#185,#184,#92,.T.);
#227=EDGE_CURVE('',#183,#185,#93,.T.);
#228=EDGE_CURVE('',#183,#186,#160,.T.);
#229=EDGE_CURVE('',#187,#185,#161,.T.);
#230=EDGE_CURVE('',#186,#187,#94,.T.);
#231=EDGE_CURVE('',#188,#186,#95,.T.);
#232=EDGE_CURVE('',#189,#187,#96,.T.);
#233=EDGE_CURVE('',#188,#189,#97,.T.);
#234=EDGE_CURVE('',#172,#188,#98,.T.);
#235=EDGE_CURVE('',#173,#189,#99,.T.);
#236=EDGE_CURVE('',#190,#165,#100,.T.);
#237=EDGE_CURVE('',#191,#190,#101,.T.);
#238=EDGE_CURVE('',#191,#162,#102,.T.);
#239=EDGE_CURVE('',#192,#191,#103,.T.);
#240=EDGE_CURVE('',#193,#190,#104,.T.);
#241=EDGE_CURVE('',#192,#193,#105,.T.);
#242=EDGE_CURVE('',#194,#192,#106,.T.);
#243=EDGE_CURVE('',#195,#193,#107,.T.);
#244=EDGE_CURVE('',#194,#195,#108,.T.);
#245=EDGE_CURVE('',#182,#194,#109,.T.);
#246=EDGE_CURVE('',#184,#195,#110,.T.);
#247=ORIENTED_EDGE('',*,*,#196,.T.);
#248=ORIENTED_EDGE('',*,*,#197,.T.);
#249=ORIENTED_EDGE('',*,*,#198,.T.);
#250=ORIENTED_EDGE('',*,*,#199,.T.);
#251=ORIENTED_EDGE('',*,*,#197,.F.);
#252=ORIENTED_EDGE('',*,*,#200,.T.);
#253=ORIENTED_EDGE('',*,*,#201,.F.);
#254=ORIENTED_EDGE('',*,*,#202,.F.);
#255=ORIENTED_EDGE('',*,*,#203,.T.);
#256=ORIENTED_EDGE('',*,*,#204,.T.);
#257=ORIENTED_EDGE('',*,*,#205,.T.);
#258=ORIENTED_EDGE('',*,*,#206,.T.);
#259=ORIENTED_EDGE('',*,*,#204,.F.);
#260=ORIENTED_EDGE('',*,*,#207,.T.);
#261=ORIENTED_EDGE('',*,*,#208,.T.);
#262=ORIENTED_EDGE('',*,*,#209,.F.);
#263=ORIENTED_EDGE('',*,*,#210,.T.);
#264=ORIENTED_EDGE('',*,*,#211,.T.);
#265=ORIENTED_EDGE('',*,*,#201,.T.);
#266=ORIENTED_EDGE('',*,*,#212,.T.);
#267=ORIENTED_EDGE('',*,*,#213,.T.);
#268=ORIENTED_EDGE('',*,*,#206,.F.);
#269=ORIENTED_EDGE('',*,*,#214,.T.);
#270=ORIENTED_EDGE('',*,*,#213,.F.);
#271=ORIENTED_EDGE('',*,*,#215,.T.);
#272=ORIENTED_EDGE('',*,*,#216,.F.);
#273=ORIENTED_EDGE('',*,*,#217,.T.);
#274=ORIENTED_EDGE('',*,*,#210,.F.);
#275=ORIENTED_EDGE('',*,*,#217,.F.);
#276=ORIENTED_EDGE('',*,*,#218,.F.);
#277=ORIENTED_EDGE('',*,*,#219,.T.);
#278=ORIENTED_EDGE('',*,*,#220,.F.);
#279=ORIENTED_EDGE('',*,*,#219,.F.);
#280=ORIENTED_EDGE('',*,*,#221,.F.);
#281=ORIENTED_EDGE('',*,*,#222,.T.);
#282=ORIENTED_EDGE('',*,*,#223,.F.);
#283=ORIENTED_EDGE('',*,*,#222,.F.);
#284=ORIENTED_EDGE('',*,*,#224,.F.);
#285=ORIENTED_EDGE('',*,*,#225,.T.);
#286=ORIENTED_EDGE('',*,*,#226,.F.);
#287=ORIENTED_EDGE('',*,*,#227,.F.);
#288=ORIENTED_EDGE('',*,*,#220,.T.);
#289=ORIENTED_EDGE('',*,*,#228,.F.);
#290=ORIENTED_EDGE('',*,*,#227,.T.);
#291=ORIENTED_EDGE('',*,*,#229,.F.);
#292=ORIENTED_EDGE('',*,*,#230,.F.);
#293=ORIENTED_EDGE('',*,*,#231,.T.);
#294=ORIENTED_EDGE('',*,*,#230,.T.);
#295=ORIENTED_EDGE('',*,*,#232,.F.);
#296=ORIENTED_EDGE('',*,*,#233,.F.);
#297=ORIENTED_EDGE('',*,*,#216,.T.);
#298=ORIENTED_EDGE('',*,*,#234,.T.);
#299=ORIENTED_EDGE('',*,*,#233,.T.);
#300=ORIENTED_EDGE('',*,*,#235,.F.);
#301=ORIENTED_EDGE('',*,*,#208,.F.);
#302=ORIENTED_EDGE('',*,*,#199,.F.);
#303=ORIENTED_EDGE('',*,*,#236,.F.);
#304=ORIENTED_EDGE('',*,*,#237,.F.);
#305=ORIENTED_EDGE('',*,*,#238,.T.);
#306=ORIENTED_EDGE('',*,*,#223,.T.);
#307=ORIENTED_EDGE('',*,*,#239,.T.);
#308=ORIENTED_EDGE('',*,*,#237,.T.);
#309=ORIENTED_EDGE('',*,*,#240,.F.);
#310=ORIENTED_EDGE('',*,*,#241,.F.);
#311=ORIENTED_EDGE('',*,*,#242,.T.);
#312=ORIENTED_EDGE('',*,*,#241,.T.);
#313=ORIENTED_EDGE('',*,*,#243,.F.);
#314=ORIENTED_EDGE('',*,*,#244,.F.);
#315=ORIENTED_EDGE('',*,*,#218,.T.);
#316=ORIENTED_EDGE('',*,*,#221,.T.);
#317=ORIENTED_EDGE('',*,*,#245,.T.);
#318=ORIENTED_EDGE('',*,*,#244,.T.);
#319=ORIENTED_EDGE('',*,*,#246,.F.);
#320=ORIENTED_EDGE('',*,*,#225,.F.);
#321=ORIENTED_EDGE('',*,*,#246,.T.);
#322=ORIENTED_EDGE('',*,*,#243,.T.);
#323=ORIENTED_EDGE('',*,*,#240,.T.);
#324=ORIENTED_EDGE('',*,*,#236,.T.);
#325=ORIENTED_EDGE('',*,*,#198,.F.);
#326=ORIENTED_EDGE('',*,*,#202,.T.);
#327=ORIENTED_EDGE('',*,*,#211,.F.);
#328=ORIENTED_EDGE('',*,*,#214,.F.);
#329=ORIENTED_EDGE('',*,*,#205,.F.);
#330=ORIENTED_EDGE('',*,*,#209,.T.);
#331=ORIENTED_EDGE('',*,*,#235,.T.);
#332=ORIENTED_EDGE('',*,*,#232,.T.);
#333=ORIENTED_EDGE('',*,*,#229,.T.);
#334=ORIENTED_EDGE('',*,*,#226,.T.);
#335=ORIENTED_EDGE('',*,*,#245,.F.);
#336=ORIENTED_EDGE('',*,*,#224,.T.);
#337=ORIENTED_EDGE('',*,*,#228,.T.);
#338=ORIENTED_EDGE('',*,*,#231,.F.);
#339=ORIENTED_EDGE('',*,*,#234,.F.);
#340=ORIENTED_EDGE('',*,*,#207,.F.);
#341=ORIENTED_EDGE('',*,*,#203,.F.);
#342=ORIENTED_EDGE('',*,*,#215,.F.);
#343=ORIENTED_EDGE('',*,*,#212,.F.);
#344=ORIENTED_EDGE('',*,*,#200,.F.);
#345=ORIENTED_EDGE('',*,*,#196,.F.);
#346=ORIENTED_EDGE('',*,*,#238,.F.);
#347=ORIENTED_EDGE('',*,*,#239,.F.);
#348=ORIENTED_EDGE('',*,*,#242,.F.);
#349=CYLINDRICAL_SURFACE('',#390,2.5);
#350=CYLINDRICAL_SURFACE('',#393,22.5);
#351=CYLINDRICAL_SURFACE('',#396,5.);
#352=CYLINDRICAL_SURFACE('',#401,24.5);
#353=CYLINDRICAL_SURFACE('',#405,2.);
#354=CYLINDRICAL_SURFACE('',#407,2.);
#355=CYLINDRICAL_SURFACE('',#410,2.);
#356=CYLINDRICAL_SURFACE('',#414,18.5);
#357=ADVANCED_FACE('',(#32),#349,.F.);
#358=ADVANCED_FACE('',(#33),#350,.T.);
#359=ADVANCED_FACE('',(#34),#351,.F.);
#360=ADVANCED_FACE('',(#35,#15),#21,.T.);
#361=ADVANCED_FACE('',(#36),#352,.F.);
#362=ADVANCED_FACE('',(#37),#22,.T.);
#363=ADVANCED_FACE('',(#38),#353,.F.);
#364=ADVANCED_FACE('',(#39),#354,.F.);
#365=ADVANCED_FACE('',(#40),#355,.F.);
#366=ADVANCED_FACE('',(#41,#16),#23,.T.);
#367=ADVANCED_FACE('',(#42),#356,.F.);
#368=ADVANCED_FACE('',(#43,#17),#24,.T.);
#369=ADVANCED_FACE('',(#44),#25,.T.);
#370=ADVANCED_FACE('',(#45,#18),#26,.T.);
#371=ADVANCED_FACE('',(#46),#27,.T.);
#372=ADVANCED_FACE('',(#47,#19,#20),#28,.T.);
#373=ADVANCED_FACE('',(#48),#29,.T.);
#374=ADVANCED_FACE('',(#49),#30,.T.);
#375=ADVANCED_FACE('',(#50),#31,.F.);
#376=CLOSED_SHELL('',(#357,#358,#359,#360,#361,#362,#363,#364,#365,#366,
#367,#368,#369,#370,#371,#372,#373,#374,#375));
#377=DERIVED_UNIT_ELEMENT(#379,1.);
#378=DERIVED_UNIT_ELEMENT(#642,-3.);
#379=(
MASS_UNIT()
NAMED_UNIT(*)
SI_UNIT(.KILO.,.GRAM.)
);
#380=DERIVED_UNIT((#377,#378));
#381=MEASURE_REPRESENTATION_ITEM('density measure',
POSITIVE_RATIO_MEASURE(7850.),#380);
#382=PROPERTY_DEFINITION_REPRESENTATION(#387,#384);
#383=PROPERTY_DEFINITION_REPRESENTATION(#388,#385);
#384=REPRESENTATION('material name',(#386),#639);
#385=REPRESENTATION('density',(#381),#639);
#386=DESCRIPTIVE_REPRESENTATION_ITEM('Steel','Steel');
#387=PROPERTY_DEFINITION('material property','material name',#649);
#388=PROPERTY_DEFINITION('material property','density of part',#649);
#389=AXIS2_PLACEMENT_3D('',#532,#425,#426);
#390=AXIS2_PLACEMENT_3D('',#533,#427,#428);
#391=AXIS2_PLACEMENT_3D('',#536,#429,#430);
#392=AXIS2_PLACEMENT_3D('',#540,#432,#433);
#393=AXIS2_PLACEMENT_3D('',#542,#435,#436);
#394=AXIS2_PLACEMENT_3D('',#544,#437,#438);
#395=AXIS2_PLACEMENT_3D('',#547,#440,#441);
#396=AXIS2_PLACEMENT_3D('',#548,#442,#443);
#397=AXIS2_PLACEMENT_3D('',#551,#444,#445);
#398=AXIS2_PLACEMENT_3D('',#555,#447,#448);
#399=AXIS2_PLACEMENT_3D('',#557,#450,#451);
#400=AXIS2_PLACEMENT_3D('',#564,#455,#456);
#401=AXIS2_PLACEMENT_3D('',#565,#457,#458);
#402=AXIS2_PLACEMENT_3D('',#567,#459,#460);
#403=AXIS2_PLACEMENT_3D('',#569,#461,#462);
#404=AXIS2_PLACEMENT_3D('',#571,#464,#465);
#405=AXIS2_PLACEMENT_3D('',#574,#468,#469);
#406=AXIS2_PLACEMENT_3D('',#576,#470,#471);
#407=AXIS2_PLACEMENT_3D('',#578,#473,#474);
#408=AXIS2_PLACEMENT_3D('',#580,#475,#476);
#409=AXIS2_PLACEMENT_3D('',#583,#478,#479);
#410=AXIS2_PLACEMENT_3D('',#584,#480,#481);
#411=AXIS2_PLACEMENT_3D('',#586,#482,#483);
#412=AXIS2_PLACEMENT_3D('',#589,#485,#486);
#413=AXIS2_PLACEMENT_3D('',#590,#487,#488);
#414=AXIS2_PLACEMENT_3D('',#599,#493,#494);
#415=AXIS2_PLACEMENT_3D('',#601,#495,#496);
#416=AXIS2_PLACEMENT_3D('',#603,#497,#498);
#417=AXIS2_PLACEMENT_3D('',#605,#500,#501);
#418=AXIS2_PLACEMENT_3D('',#611,#505,#506);
#419=AXIS2_PLACEMENT_3D('',#614,#509,#510);
#420=AXIS2_PLACEMENT_3D('',#620,#514,#515);
#421=AXIS2_PLACEMENT_3D('',#626,#519,#520);
#422=AXIS2_PLACEMENT_3D('',#632,#524,#525);
#423=AXIS2_PLACEMENT_3D('',#635,#528,#529);
#424=AXIS2_PLACEMENT_3D('',#636,#530,#531);
#425=DIRECTION('axis',(0.,0.,1.));
#426=DIRECTION('refdir',(1.,0.,0.));
#427=DIRECTION('center_axis',(0.,0.,1.));
#428=DIRECTION('ref_axis',(-0.670820393249937,-0.741619848709566,0.));
#429=DIRECTION('center_axis',(0.,0.,-1.));
#430=DIRECTION('ref_axis',(-0.670820393249937,-0.741619848709566,0.));
#431=DIRECTION('',(0.,0.,1.));
#432=DIRECTION('center_axis',(0.,0.,1.));
#433=DIRECTION('ref_axis',(-0.670820393249937,-0.741619848709566,0.));
#434=DIRECTION('',(0.,0.,-1.));
#435=DIRECTION('center_axis',(0.,0.,1.));
#436=DIRECTION('ref_axis',(1.,0.,0.));
#437=DIRECTION('center_axis',(0.,0.,1.));
#438=DIRECTION('ref_axis',(1.,0.,0.));
#439=DIRECTION('',(0.,0.,-1.));
#440=DIRECTION('center_axis',(0.,0.,1.));
#441=DIRECTION('ref_axis',(1.,0.,0.));
#442=DIRECTION('center_axis',(0.,0.,1.));
#443=DIRECTION('ref_axis',(0.27057160018941,-0.962699854145072,0.));
#444=DIRECTION('center_axis',(0.,0.,-1.));
#445=DIRECTION('ref_axis',(0.27057160018941,-0.962699854145072,0.));
#446=DIRECTION('',(0.,0.,1.));
#447=DIRECTION('center_axis',(0.,0.,1.));
#448=DIRECTION('ref_axis',(0.27057160018941,-0.962699854145072,0.));
#449=DIRECTION('',(0.,0.,-1.));
#450=DIRECTION('center_axis',(0.,1.,0.));
#451=DIRECTION('ref_axis',(-1.,0.,0.));
#452=DIRECTION('',(-1.,0.,0.));
#453=DIRECTION('',(0.,0.,1.));
#454=DIRECTION('',(-1.,0.,0.));
#455=DIRECTION('center_axis',(0.,-1.,0.));
#456=DIRECTION('ref_axis',(1.,0.,0.));
#457=DIRECTION('center_axis',(0.,0.,-1.));
#458=DIRECTION('ref_axis',(0.642989800085966,-0.765874739748877,0.));
#459=DIRECTION('center_axis',(0.,0.,1.));
#460=DIRECTION('ref_axis',(0.642989800085966,-0.765874739748877,0.));
#461=DIRECTION('center_axis',(0.,0.,-1.));
#462=DIRECTION('ref_axis',(0.642989800085966,-0.765874739748877,0.));
#463=DIRECTION('',(0.,0.,1.));
#464=DIRECTION('center_axis',(-0.520958480076288,0.853582018341884,0.));
#465=DIRECTION('ref_axis',(0.,0.,1.));
#466=DIRECTION('',(0.853582018341884,0.520958480076288,0.));
#467=DIRECTION('',(-0.853582018341884,-0.520958480076288,0.));
#468=DIRECTION('center_axis',(0.,1.,0.));
#469=DIRECTION('ref_axis',(1.,0.,0.));
#470=DIRECTION('center_axis',(0.,1.,0.));
#471=DIRECTION('ref_axis',(1.,0.,0.));
#472=DIRECTION('',(0.,1.,0.));
#473=DIRECTION('center_axis',(0.,1.,0.));
#474=DIRECTION('ref_axis',(1.,0.,0.));
#475=DIRECTION('center_axis',(0.,1.,0.));
#476=DIRECTION('ref_axis',(1.,0.,0.));
#477=DIRECTION('',(0.,1.,0.));
#478=DIRECTION('center_axis',(0.,-1.,0.));
#479=DIRECTION('ref_axis',(1.,0.,0.));
#480=DIRECTION('center_axis',(0.,1.,0.));
#481=DIRECTION('ref_axis',(1.,0.,0.));
#482=DIRECTION('center_axis',(0.,1.,0.));
#483=DIRECTION('ref_axis',(1.,0.,0.));
#484=DIRECTION('',(0.,1.,0.));
#485=DIRECTION('center_axis',(3.04344485038971E-33,-1.,0.));
#486=DIRECTION('ref_axis',(1.,0.,0.));
#487=DIRECTION('center_axis',(0.,1.,0.));
#488=DIRECTION('ref_axis',(-1.,0.,0.));
#489=DIRECTION('',(1.,0.,0.));
#490=DIRECTION('',(0.,0.,1.));
#491=DIRECTION('',(-1.,0.,0.));
#492=DIRECTION('',(0.,0.,1.));
#493=DIRECTION('center_axis',(0.,0.,1.));
#494=DIRECTION('ref_axis',(1.,0.,0.));
#495=DIRECTION('center_axis',(0.,0.,1.));
#496=DIRECTION('ref_axis',(1.,0.,0.));
#497=DIRECTION('center_axis',(0.,0.,-1.));
#498=DIRECTION('ref_axis',(1.,0.,0.));
#499=DIRECTION('',(0.,0.,1.));
#500=DIRECTION('center_axis',(0.,-1.,0.));
#501=DIRECTION('ref_axis',(1.,0.,0.));
#502=DIRECTION('',(1.,0.,0.));
#503=DIRECTION('',(1.,0.,0.));
#504=DIRECTION('',(0.,0.,1.));
#505=DIRECTION('center_axis',(-1.,0.,0.));
#506=DIRECTION('ref_axis',(0.,-1.,0.));
#507=DIRECTION('',(0.,-1.,0.));
#508=DIRECTION('',(0.,-1.,0.));
#509=DIRECTION('center_axis',(-3.04344485038971E-33,1.,0.));
#510=DIRECTION('ref_axis',(-1.,-3.04344485038971E-33,0.));
#511=DIRECTION('',(-1.,-3.04344485038971E-33,0.));
#512=DIRECTION('',(0.,0.,1.));
#513=DIRECTION('',(-1.,-3.04344485038971E-33,0.));
#514=DIRECTION('center_axis',(1.,0.,0.));
#515=DIRECTION('ref_axis',(0.,1.,0.));
#516=DIRECTION('',(0.,1.,0.));
#517=DIRECTION('',(0.,1.,0.));
#518=DIRECTION('',(0.,0.,1.));
#519=DIRECTION('center_axis',(0.,-1.,0.));
#520=DIRECTION('ref_axis',(1.,0.,0.));
#521=DIRECTION('',(1.,0.,0.));
#522=DIRECTION('',(1.,0.,0.));
#523=DIRECTION('',(0.,0.,1.));
#524=DIRECTION('center_axis',(-1.,0.,0.));
#525=DIRECTION('ref_axis',(0.,-1.,0.));
#526=DIRECTION('',(0.,-1.,0.));
#527=DIRECTION('',(0.,-1.,0.));
#528=DIRECTION('center_axis',(0.,0.,1.));
#529=DIRECTION('ref_axis',(1.,0.,0.));
#530=DIRECTION('center_axis',(0.,0.,1.));
#531=DIRECTION('ref_axis',(1.,0.,0.));
#532=CARTESIAN_POINT('',(0.,0.,0.));
#533=CARTESIAN_POINT('Origin',(24.8746859276655,2.5,0.));
#534=CARTESIAN_POINT('',(24.8746859276655,7.57047347916149E-32,0.));
#535=CARTESIAN_POINT('',(22.3872173348989,2.25,0.));
#536=CARTESIAN_POINT('Origin',(24.8746859276655,2.5,0.));
#537=CARTESIAN_POINT('',(22.3872173348989,2.25,14.));
#538=CARTESIAN_POINT('',(22.3872173348989,2.25,0.));
#539=CARTESIAN_POINT('',(24.8746859276655,7.57047347916149E-32,14.));
#540=CARTESIAN_POINT('Origin',(24.8746859276655,2.5,14.));
#541=CARTESIAN_POINT('',(24.8746859276655,0.,0.));
#542=CARTESIAN_POINT('Origin',(0.,0.,0.));
#543=CARTESIAN_POINT('',(-16.8862433301707,14.8695926707582,0.));
#544=CARTESIAN_POINT('Origin',(0.,0.,0.));
#545=CARTESIAN_POINT('',(-16.8862433301707,14.8695926707582,14.));
#546=CARTESIAN_POINT('',(-16.8862433301707,14.8695926707582,0.));
#547=CARTESIAN_POINT('Origin',(0.,0.,14.));
#548=CARTESIAN_POINT('Origin',(-27.4350158068089,13.,0.));
#549=CARTESIAN_POINT('',(-24.8302234064274,8.73208990829058,0.));
#550=CARTESIAN_POINT('',(-27.4350158068089,8.,0.));
#551=CARTESIAN_POINT('Origin',(-27.4350158068089,13.,0.));
#552=CARTESIAN_POINT('',(-27.4350158068089,8.,14.));
#553=CARTESIAN_POINT('',(-27.4350158068089,8.,0.));
#554=CARTESIAN_POINT('',(-24.8302234064274,8.73208990829058,14.));
#555=CARTESIAN_POINT('Origin',(-27.4350158068089,13.,14.));
#556=CARTESIAN_POINT('',(-24.8302234064274,8.73208990829058,0.));
#557=CARTESIAN_POINT('Origin',(-21.0297408448131,8.,0.));
#558=CARTESIAN_POINT('',(-40.1415898254845,8.,0.));
#559=CARTESIAN_POINT('',(-14.0000002086163,8.,0.));
#560=CARTESIAN_POINT('',(-40.1415898254845,8.,14.));
#561=CARTESIAN_POINT('',(-40.1415898254845,8.,0.));
#562=CARTESIAN_POINT('',(-14.0000002086163,8.,14.));
#563=CARTESIAN_POINT('',(-33.9130189378343,8.,7.));
#564=CARTESIAN_POINT('Origin',(-31.9130189378343,8.,7.));
#565=CARTESIAN_POINT('Origin',(-35.2734860674676,31.0609269122505,0.));
#566=CARTESIAN_POINT('',(-22.5100033055986,10.1481674628744,14.));
#567=CARTESIAN_POINT('Origin',(-35.2734860674676,31.0609269122505,14.));
#568=CARTESIAN_POINT('',(-22.5100033055986,10.1481674628744,0.));
#569=CARTESIAN_POINT('Origin',(-35.2734860674676,31.0609269122505,0.));
#570=CARTESIAN_POINT('',(-22.5100033055986,10.1481674628744,0.));
#571=CARTESIAN_POINT('Origin',(-22.3867295346306,10.2234039544789,0.));
#572=CARTESIAN_POINT('',(-16.4390097074543,13.8534184281956,14.));
#573=CARTESIAN_POINT('',(-16.4390097074543,13.8534184281956,0.));
#574=CARTESIAN_POINT('Origin',(-31.9130189378343,-22.5,7.));
#575=CARTESIAN_POINT('',(-33.9130189378343,0.,7.));
#576=CARTESIAN_POINT('Origin',(-31.9130189378343,0.,7.));
#577=CARTESIAN_POINT('',(-33.9130189378343,-22.5,7.));
#578=CARTESIAN_POINT('Origin',(-31.9130189378343,-22.5,7.));
#579=CARTESIAN_POINT('',(-33.9130189378343,-22.5,7.));
#580=CARTESIAN_POINT('Origin',(-31.9130189378343,-22.5,7.));
#581=CARTESIAN_POINT('',(-33.9130189378343,-4.,7.));
#582=CARTESIAN_POINT('',(-33.9130189378343,-22.5,7.));
#583=CARTESIAN_POINT('Origin',(-31.9130189378343,-4.,7.));
#584=CARTESIAN_POINT('Origin',(32.092224025092,-22.5,7.));
#585=CARTESIAN_POINT('',(30.092224025092,-22.5,7.));
#586=CARTESIAN_POINT('Origin',(32.092224025092,-22.5,7.));
#587=CARTESIAN_POINT('',(30.092224025092,0.,7.));
#588=CARTESIAN_POINT('',(30.092224025092,-22.5,7.));
#589=CARTESIAN_POINT('Origin',(32.092224025092,0.,7.));
#590=CARTESIAN_POINT('Origin',(-18.0623918681884,-4.,0.));
#591=CARTESIAN_POINT('',(-40.1415898254845,-4.,0.));
#592=CARTESIAN_POINT('',(-18.0623918681884,-4.,0.));
#593=CARTESIAN_POINT('',(-22.1415898254845,-4.,0.));
#594=CARTESIAN_POINT('',(-40.1415898254845,-4.,14.));
#595=CARTESIAN_POINT('',(-40.1415898254845,-4.,0.));
#596=CARTESIAN_POINT('',(-18.0623918681884,-4.,14.));
#597=CARTESIAN_POINT('',(-22.1415898254845,-4.,14.));
#598=CARTESIAN_POINT('',(-18.0623918681884,-4.,0.));
#599=CARTESIAN_POINT('Origin',(0.,0.,0.));
#600=CARTESIAN_POINT('',(-18.5,0.,0.));
#601=CARTESIAN_POINT('Origin',(0.,0.,0.));
#602=CARTESIAN_POINT('',(-18.5,0.,14.));
#603=CARTESIAN_POINT('Origin',(0.,0.,14.));
#604=CARTESIAN_POINT('',(-18.5,0.,0.));
#605=CARTESIAN_POINT('Origin',(-40.1415898254845,0.,0.));
#606=CARTESIAN_POINT('',(-40.1415898254845,0.,0.));
#607=CARTESIAN_POINT('',(-40.1415898254845,0.,0.));
#608=CARTESIAN_POINT('',(-40.1415898254845,0.,14.));
#609=CARTESIAN_POINT('',(-40.1415898254845,0.,14.));
#610=CARTESIAN_POINT('',(-40.1415898254845,0.,0.));
#611=CARTESIAN_POINT('Origin',(-40.1415898254845,8.,0.));
#612=CARTESIAN_POINT('',(-40.1415898254845,8.,0.));
#613=CARTESIAN_POINT('',(-40.1415898254845,8.,14.));
#614=CARTESIAN_POINT('Origin',(40.5,1.23259516440783E-31,0.));
#615=CARTESIAN_POINT('',(40.5,0.,14.));
#616=CARTESIAN_POINT('',(40.5,1.23259516440783E-31,14.));
#617=CARTESIAN_POINT('',(40.5,1.23259516440783E-31,0.));
#618=CARTESIAN_POINT('',(40.5,1.23259516440783E-31,0.));
#619=CARTESIAN_POINT('',(40.5,1.23259516440783E-31,0.));
#620=CARTESIAN_POINT('Origin',(40.5,-22.5,0.));
#621=CARTESIAN_POINT('',(40.5,-22.5,0.));
#622=CARTESIAN_POINT('',(40.5,-22.5,0.));
#623=CARTESIAN_POINT('',(40.5,-22.5,14.));
#624=CARTESIAN_POINT('',(40.5,-22.5,14.));
#625=CARTESIAN_POINT('',(40.5,-22.5,0.));
#626=CARTESIAN_POINT('Origin',(-40.1415898254845,-22.5,0.));
#627=CARTESIAN_POINT('',(-40.1415898254845,-22.5,0.));
#628=CARTESIAN_POINT('',(-40.1415898254845,-22.5,0.));
#629=CARTESIAN_POINT('',(-40.1415898254845,-22.5,14.));
#630=CARTESIAN_POINT('',(-40.1415898254845,-22.5,14.));
#631=CARTESIAN_POINT('',(-40.1415898254845,-22.5,0.));
#632=CARTESIAN_POINT('Origin',(-40.1415898254845,-4.,0.));
#633=CARTESIAN_POINT('',(-40.1415898254845,-4.,0.));
#634=CARTESIAN_POINT('',(-40.1415898254845,-4.,14.));
#635=CARTESIAN_POINT('Origin',(0.179205087257737,0.,14.));
#636=CARTESIAN_POINT('Origin',(0.179205087257737,0.,0.));
#637=UNCERTAINTY_MEASURE_WITH_UNIT(LENGTH_MEASURE(0.01),#641,
'DISTANCE_ACCURACY_VALUE',
'Maximum model space distance between geometric entities at asserted c
onnectivities');
#638=UNCERTAINTY_MEASURE_WITH_UNIT(LENGTH_MEASURE(0.01),#641,
'DISTANCE_ACCURACY_VALUE',
'Maximum model space distance between geometric entities at asserted c
onnectivities');
#639=(
GEOMETRIC_REPRESENTATION_CONTEXT(3)
GLOBAL_UNCERTAINTY_ASSIGNED_CONTEXT((#637))
GLOBAL_UNIT_ASSIGNED_CONTEXT((#641,#643,#644))
REPRESENTATION_CONTEXT('','3D')
);
#640=(
GEOMETRIC_REPRESENTATION_CONTEXT(3)
GLOBAL_UNCERTAINTY_ASSIGNED_CONTEXT((#638))
GLOBAL_UNIT_ASSIGNED_CONTEXT((#641,#643,#644))
REPRESENTATION_CONTEXT('','3D')
);
#641=(
LENGTH_UNIT()
NAMED_UNIT(*)
SI_UNIT(.MILLI.,.METRE.)
);
#642=(
LENGTH_UNIT()
NAMED_UNIT(*)
SI_UNIT($,.METRE.)
);
#643=(
NAMED_UNIT(*)
PLANE_ANGLE_UNIT()
SI_UNIT($,.RADIAN.)
);
#644=(
NAMED_UNIT(*)
SI_UNIT($,.STERADIAN.)
SOLID_ANGLE_UNIT()
);
#645=SHAPE_DEFINITION_REPRESENTATION(#646,#647);
#646=PRODUCT_DEFINITION_SHAPE('',$,#649);
#647=SHAPE_REPRESENTATION('',(#389),#639);
#648=PRODUCT_DEFINITION_CONTEXT('part definition',#653,'design');
#649=PRODUCT_DEFINITION('motortart\X\F3 v3','motortart\X\F3 v3 v1',#650,
#648);
#650=PRODUCT_DEFINITION_FORMATION('',$,#655);
#651=PRODUCT_RELATED_PRODUCT_CATEGORY('motortart\X\F3 v3 v1',
'motortart\X\F3 v3 v1',(#655));
#652=APPLICATION_PROTOCOL_DEFINITION('international standard',
'automotive_design',2009,#653);
#653=APPLICATION_CONTEXT(
'Core Data for Automotive Mechanical Design Process');
#654=PRODUCT_CONTEXT('part definition',#653,'mechanical');
#655=PRODUCT('motortart\X\F3 v3','motortart\X\F3 v3 v1',$,(#654));
#656=PRESENTATION_STYLE_ASSIGNMENT((#657));
#657=SURFACE_STYLE_USAGE(.BOTH.,#658);
#658=SURFACE_SIDE_STYLE('',(#659));
#659=SURFACE_STYLE_FILL_AREA(#660);
#660=FILL_AREA_STYLE('Steel - Satin',(#661));
#661=FILL_AREA_STYLE_COLOUR('Steel - Satin',#662);
#662=COLOUR_RGB('Steel - Satin',0.627450980392157,0.627450980392157,0.627450980392157);
ENDSEC;
END-ISO-10303-21;
